<?xml version="1.0" encoding="UTF-8"?> <!-- Generator: Adobe Illustrator 19.0.0, SVG Export Plug-In . SVG Version: 6.00 Build 0) --> <svg xmlns="http://www.w3.org/2000/svg" xmlns:xlink="http://www.w3.org/1999/xlink" id="Layer_1" x="0px" y="0px" viewBox="0 0 800 800" style="enable-background:new 0 0 800 800;" xml:space="preserve"> <style type="text/css"> .st0{fill:#FFFFFF;} .st1{fill-rule:evenodd;clip-rule:evenodd;fill:#FFFFFF;} </style> <g id="XMLID_2_"> <g id="Shape_2_2_"> <path id="XMLID_28_" class="st0" d="M318.1,571.4c1.6,5,3.4,6.1,8.2,4.9c-0.6-2.1-1.3-4.2-2-6.5 C322.1,570.4,320.1,570.9,318.1,571.4z M574.1,503.3c-7.2,1.5-7.5,2.1-4.5,8.1C574.2,509.8,575,508.4,574.1,503.3z M546,535.5v6.2 c5-0.4,6.7-2.3,6.4-7C550.3,535,548.1,535.2,546,535.5z M352.7,588.2c2.8,4.2,4.4,4.7,9.2,2.7c-1.1-2-2.1-3.8-3.2-5.8 C356.4,586.3,354.5,587.3,352.7,588.2z M263,519.3c-0.2,5.1,0.9,6.7,5.1,7.4C270.4,520.4,270.1,520,263,519.3z M294.5,554.6v-6.3 h-6.6C288.6,553.3,290,554.6,294.5,554.6z M517.5,563.7c-0.1,0.9-0.2,1.8-0.3,2.7c4.6,0.7,6.4-0.5,7.8-5.2 c-2.3-0.3-4.6-0.6-6.8-0.8C517.9,561.8,517.7,562.7,517.5,563.7z M390,597.2c3,3.5,5.4,3.7,9.2,0.7c-1.3-1.5-2.5-3.1-4-4.9 C393.3,594.5,391.6,595.9,390,597.2z M484.4,582.5c-0.3,0.6-0.5,1.3-0.7,1.9c4.1,1.9,6.2,1.1,8.5-3.2c-2.1-0.8-4.1-1.5-6.2-2.3 C485.3,580.3,484.9,581.4,484.4,582.5z M432.4,593.2c-1.4,1.8-2.8,3.5-4.2,5.3c4.3,2.3,6,2,8.9-1.5c-0.6-0.5-1.2-1.1-1.8-1.6 C434.4,594.6,433.5,594,432.4,593.2z M448.6,593.2c-0.5,0.8-0.8,1.6-1.2,2.4c4.2,2.1,5.6,1.9,8.7-1.7c-2-1.2-3.7-2.3-5.5-3.3 C449.7,591.6,449.1,592.4,448.6,593.2z M274.7,534.8c0.5,4.1,2.3,6,6.1,6.4c0.1-0.9,0.3-1.6,0.3-2.3c0-1.1,0-2.1,0-3.5 C278.9,535.1,276.9,534.9,274.7,534.8z M257.6,510.6c0.5-1.9,1-3.8,1.5-5.9c-2.2-0.6-4.1-1.1-6-1.6 C252.3,507.3,253.3,508.9,257.6,510.6z M465.8,591.5c4.1,1.1,6.8,0.3,8.5-3.5c-1.8-0.9-3.5-1.7-5.4-2.5 C467.9,587.6,466.9,589.4,465.8,591.5z M501.3,576.5c4.5,0.7,5.8-0.1,7.3-4.6c-1.8-0.5-3.5-1-5.6-1.6 C502.4,572.5,501.8,574.5,501.3,576.5z M371.4,593.6c3.2,3.6,4.7,4,8.4,1.9c-1-1.6-2-3.1-3.3-5C374.5,591.6,373,592.6,371.4,593.6 z M558,520.9c0.3,2.3,0.6,4.1,0.9,5.9c4.1-0.9,5.1-2.5,4.5-6.9C561.6,520.3,559.8,520.6,558,520.9z M302.6,561.2 c2,4.5,3.5,5.4,7.1,4.4c-0.3-1.6-0.6-3.2-1-5.4C306.5,560.5,304.6,560.8,302.6,561.2z M533.1,554.6c4.1-0.4,5.3-1.5,5.7-5.7 c-1.7-0.1-3.5-0.3-5.7-0.4V554.6z M409,598.5c3.3,2.6,6,3,8.6,0.8c-1.4-1.7-2.7-3.4-3.8-4.8C412,595.9,410.6,597.1,409,598.5z M335.4,581c-0.1,0.5-0.1,0.9-0.2,1.4c2.4,1,4.8,2,7.3,3.1c0.2-0.4,0.4-0.9,0.7-1.3c-0.7-1.7-1.4-3.4-2.2-5.4 C338.9,579.6,337.2,580.3,335.4,581z"></path> </g> <g id="Shape_3_2_"> <path id="XMLID_15_" class="st1" d="M520.7,414.1c1.2-0.9,2.2-2.2,3.3-3.3v-1.9c-1-1.1-2-2.3-3.2-3.2c-2-1.5-2.2-3.2-0.3-4.9 c0.5-0.4,1-0.8,1.4-1.3c1.9-2.1,1.6-4.6-0.8-6.2c-0.6-0.4-1.3-0.7-2-1c-1.9-1-2.2-2.7-0.9-4.4c0.4-0.5,0.8-0.9,1.2-1.3 c2-2.5,1.4-5.3-1.6-6.6c-0.6-0.3-1.3-0.4-2-0.7c-1.8-0.8-2.3-2.4-1.3-4.1c0.3-0.5,0.7-1,1-1.5c1.8-2.8,0.6-5.7-2.5-6.5 c-4.4-1.1-4.7-1.8-2.8-5.8c1.5-3.2-0.2-6-3.8-6.2c-0.4,0-0.8,0-1.2-0.1c-2.2-0.4-3.1-1.8-2.4-4c0.3-0.8,0.6-1.6,0.7-2.4 c0.4-2.7-1.1-4.5-3.8-4.7c-0.6,0-1.3,0-1.9,0c-2.5,0-3.6-1.4-3-3.8c0.2-0.8,0.4-1.7,0.4-2.6c0-2.2-1.4-3.7-3.6-3.7 c-0.7,0-1.5,0-2.2,0.2c-2.8,0.5-4.1-0.6-3.9-3.4c0-0.7,0.2-1.5,0.1-2.2c-0.3-2.7-2.2-4.1-4.9-3.5c-0.6,0.1-1.2,0.4-1.9,0.5 c-2.2,0.6-3.7-0.4-3.9-2.7c0-0.5,0-1,0-1.5c-0.1-3.3-2.5-4.9-5.6-3.9c-0.5,0.2-0.9,0.4-1.4,0.6c-2.4,1.1-4.1,0.1-4.4-2.6 c-0.1-0.5-0.1-1-0.2-1.5c-0.8-3-3.2-4.1-6-2.7c-0.6,0.3-1.2,0.7-1.8,1c-1.8,0.9-3.2,0.3-3.9-1.5c-0.2-0.6-0.3-1.2-0.6-1.9 c-1.1-3.2-3.9-4.1-6.6-2.1c-0.5,0.3-0.9,0.8-1.4,1.1c-1.7,1.2-3.3,0.7-4.2-1.1c-0.4-0.7-0.6-1.5-1-2.1c-1.4-2.4-3.9-2.8-6-1.2 c-0.5,0.4-1,1-1.5,1.4c-1.8,1.7-3.6,1.5-4.8-0.6c-0.8-1.5-1.8-2.8-3.4-3.5h-2c-1.1,1-2.2,1.9-3.2,3c-1.5,1.7-3.3,1.7-4.9,0 c-1-1.1-2.1-2-3.2-3h-2c-1.5,0.7-2.5,1.8-3.3,3.2c-1.3,2.5-3.2,2.7-5.2,0.6c-0.4-0.4-0.8-0.8-1.2-1.2c-2.2-1.7-4.6-1.2-6,1.2 c-0.4,0.6-0.6,1.3-0.9,2c-1,2-2.6,2.5-4.4,1.2c-0.5-0.3-0.9-0.7-1.3-1c-2.7-1.9-5.5-1-6.6,2.1c-0.2,0.6-0.3,1.2-0.5,1.7 c-0.7,2-2.2,2.5-4.1,1.6c-0.5-0.2-0.9-0.5-1.3-0.8c-3.2-1.8-6.1-0.4-6.6,3.3c0,0.3,0,0.7-0.1,1c-0.4,2.4-2,3.3-4.3,2.3 c-0.8-0.3-1.5-0.7-2.3-0.9c-2.5-0.5-4.5,0.9-4.8,3.5c-0.1,0.6,0,1.1,0,1.7c-0.1,2.7-1.6,3.8-4.2,3c-0.5-0.1-1-0.3-1.5-0.4 c-3.1-0.7-5.4,1.3-5.1,4.5c0,0.6,0.1,1.1,0.2,1.7c0.1,2.3-1.2,3.4-3.5,3.1c-0.6-0.1-1.2-0.2-1.8-0.3c-3.3-0.1-5.1,2-4.4,5.3 c0,0.2,0.1,0.4,0.2,0.5c0.8,3.2-0.2,4.4-3.6,4.3c-4.3-0.2-6.2,2.4-4.6,6.4c1.2,3,0.1,4.5-3.1,4.7c-4.1,0.2-5.8,3-3.8,6.7 c0.2,0.4,0.4,0.7,0.6,1.1c0.8,1.8,0,3.4-1.9,3.9c-0.8,0.2-1.6,0.3-2.4,0.6c-2.5,0.9-3.4,3.2-2.2,5.6c0.3,0.7,0.8,1.2,1.2,1.9 c1.2,1.9,0.7,3.6-1.4,4.5c-0.6,0.3-1.3,0.4-2,0.7c-2.6,1.3-3.2,3.9-1.5,6.2c0.4,0.6,1,1,1.4,1.6c1.3,1.7,1,3.4-0.9,4.4 c-0.6,0.4-1.3,0.6-2,1c-2.4,1.5-2.7,4.1-0.8,6.2c0.5,0.5,1.1,1,1.6,1.5c1.6,1.5,1.5,3.3-0.4,4.5c-1.4,0.9-2.6,1.9-3.4,3.4v1.9 c1,1.1,2,2.3,3.2,3.2c2,1.5,2.2,3.2,0.3,4.9c-0.5,0.5-1.1,0.9-1.5,1.4c-1.8,2-1.5,4.5,0.7,6c0.6,0.4,1.4,0.7,2.1,1.1 c1.9,1,2.2,2.7,0.9,4.4c-0.3,0.4-0.7,0.7-1,1.1c-2.3,2.6-1.6,5.6,1.6,6.9c0.6,0.2,1.2,0.4,1.7,0.6c1.8,0.8,2.3,2.4,1.3,4.1 c-0.3,0.6-0.8,1-1.1,1.6c-1.7,2.8-0.5,5.5,2.6,6.3c4.4,1.1,4.7,1.8,2.8,5.8c-1.5,3.1,0.2,6,3.7,6.2c0.5,0,0.9,0,1.4,0.1 c2.2,0.4,3.1,1.8,2.4,4c-0.2,0.5-0.4,0.9-0.5,1.4c-1,3.2,0.7,5.6,4.1,5.6c0.6,0,1.1-0.1,1.7-0.1c2.3,0,3.4,1.4,2.9,3.7 c-0.2,0.9-0.4,1.8-0.4,2.7c0,2.2,1.4,3.7,3.6,3.7c0.7,0,1.5,0,2.2-0.2c2.7-0.5,4.1,0.6,3.9,3.4c0,0.8-0.1,1.7,0,2.5 c0.3,2.4,2.2,3.7,4.6,3.3c0.6-0.1,1.3-0.3,1.9-0.5c2.6-0.8,4.1,0.3,4.1,3c0,0.4,0,0.7,0,1.1c0.1,3.3,2.5,4.9,5.6,3.9 c0.5-0.2,1-0.5,1.5-0.7c2.2-0.9,3.9,0,4.3,2.3c0.1,0.6,0.1,1.2,0.3,1.8c0.8,3,3.3,4.1,6,2.7c0.6-0.3,1.2-0.7,1.8-1 c1.8-0.9,3.2-0.3,3.9,1.5c0.2,0.6,0.3,1.2,0.6,1.9c1.1,3.2,3.9,4.1,6.6,2.1c0.5-0.3,0.9-0.8,1.4-1.1c1.7-1.2,3.3-0.7,4.2,1.1 c0.3,0.7,0.5,1.4,0.9,2c1.4,2.5,4,3,6.2,1.2c0.5-0.4,0.9-0.9,1.4-1.4c1.7-1.7,3.6-1.5,4.8,0.6c0.8,1.5,1.8,2.8,3.4,3.5h2 c1.1-1,2.2-1.9,3.1-3c1.5-1.7,3.3-1.7,4.9,0c1,1.1,2.1,2,3.2,3h2c1.5-0.7,2.5-1.8,3.3-3.2c1.3-2.5,3.2-2.7,5.2-0.6 c0.4,0.4,0.8,0.9,1.3,1.2c2,1.5,4.4,1.1,5.8-1c0.4-0.7,0.7-1.4,1-2.1c1-2.2,2.7-2.6,4.6-1.2c0.4,0.3,0.8,0.7,1.2,1 c2.7,1.9,5.5,1,6.6-2.1c0.2-0.5,0.2-1,0.4-1.5c0.7-2.3,2.4-2.9,4.4-1.7c0.6,0.3,1.1,0.7,1.7,1c2.6,1.2,5,0.1,5.8-2.6 c0.1-0.5,0.2-1,0.3-1.5c0.3-2.8,2-3.8,4.6-2.6c0.7,0.3,1.4,0.6,2.1,0.7c2.6,0.5,4.6-1,4.8-3.6c0-0.6,0-1.2,0-1.8 c0.2-2.4,1.7-3.4,4-2.8c0.5,0.2,1.1,0.3,1.6,0.4c3.1,0.7,5.3-1.3,5.1-4.5c0-0.6-0.1-1.1-0.2-1.7c-0.1-2.3,1.2-3.4,3.5-3.1 c0.6,0.1,1.2,0.2,1.8,0.3c3.3,0.1,5.1-2,4.4-5.3c0-0.2-0.1-0.4-0.2-0.5c-0.8-3.2,0.3-4.4,3.6-4.3c4.3,0.2,6.2-2.4,4.6-6.4 c-1.2-3-0.1-4.5,3.1-4.7c4.1-0.2,5.8-3.1,3.8-6.7c-0.2-0.4-0.4-0.7-0.6-1.1c-0.8-1.8,0-3.4,1.9-3.9c0.5-0.1,1.1-0.2,1.6-0.3 c3.3-0.8,4.5-3.6,2.7-6.5c-0.3-0.5-0.7-1-1-1.5c-1-1.7-0.5-3.3,1.3-4.1c0.5-0.2,1.1-0.4,1.7-0.6c3.2-1.3,4-4.3,1.6-6.9 c-0.3-0.4-0.7-0.7-1-1.1c-1.3-1.7-1-3.4,0.9-4.4c0.7-0.4,1.4-0.7,2.1-1.1c2.2-1.5,2.5-4,0.7-6c-0.5-0.6-1.1-1-1.6-1.5 C518.6,417.2,518.8,415.5,520.7,414.1z M414.1,507.6c-54,0-97.7-43.9-97.6-98.1c0-53.7,44.1-97.3,98.3-97.2 c53.6,0,97.4,43.9,97.4,97.6C512.2,464,468.4,507.6,414.1,507.6z"></path> </g> <g id="Shape_4_2_"> <path id="XMLID_6_" class="st0" d="M580.3,335.2c-0.1-0.4-0.3-0.8-0.4-1.1c-11.3-25.9-27.7-48-49.2-66.4 c-13.1-11.2-27.6-20.4-43.4-27.4c-19.4-8.7-39.7-13.8-60.9-15.2c-2-0.1-3.9-0.3-5.9-0.5h-14.6c-0.4,0.1-0.8,0.2-1.2,0.2 c-2.8,0.2-5.6,0.3-8.3,0.6c-9.8,0.8-19.5,2.5-29.1,5c-26.1,6.8-49.5,18.8-70.2,36.1c-22.3,18.6-39.2,41.2-50.8,67.8 c-0.2,0.4-0.3,0.8-0.4,1.3c2.4,0.5,4.6,0.9,6.8,1.5c1.1,0.3,1.5,0,2-1c12.6-28.3,31.3-51.6,56.3-69.9 c23.8-17.5,50.5-28.1,79.8-31.9c10.3-1.4,20.7-1.7,31-1.2c11.8,0.6,23.4,2.2,34.8,5.3c46.8,12.7,82.4,40,106.9,81.7 c3.1,5.2,5.5,10.8,8.2,16.1c0.2,0.4,0.8,1.1,1.1,1c2.5-0.5,5-1.1,7.5-1.7C580.3,335.3,580.3,335.3,580.3,335.2z M415.2,240.8 c-77.2-0.9-132.9,49-153.6,98.2c0.3,0.1,0.7,0.2,1,0.3c2.1,0.5,2.1,0.5,3-1.4c11.6-24.7,28.3-45.3,50.2-61.6 c26.3-19.6,56-30.2,88.8-31.9c15.4-0.8,30.6,0.3,45.6,3.9c44.2,10.7,78.2,35.6,102.2,74.2c3.4,5.5,6.2,11.4,9.4,17.2 c0.8-0.2,1.8-0.4,2.9-0.6C543.8,289.5,488.8,241.7,415.2,240.8z"></path> </g> <g id="Shape_18_2_"> <polygon id="XMLID_5_" class="st1" points="260.9,378.2 251.6,375.8 256.1,367.6 247.8,372.3 245.1,363.5 242.5,372.4 234,368.2 238.8,376.2 229.6,378.9 238.9,381.2 234.4,389.4 242.8,384.8 245.6,393.6 248.1,384.6 256.6,388.9 251.8,381 "></polygon> </g> <g id="Shape_18_copy_2_"> <polygon id="XMLID_9_" class="st1" points="596.6,378.2 587.3,375.8 591.8,367.6 583.4,372.3 580.7,363.5 578.1,372.4 569.6,368.2 574.5,376.2 565.3,378.9 574.5,381.2 570.1,389.4 578.5,384.8 581.3,393.6 583.7,384.6 592.3,388.9 587.5,381 "></polygon> </g> <g id="XMLID_73_"> <path id="XMLID_74_" class="st0" d="M290.2,310.6c0.3-0.4,0.7-0.8,1-1.2c0.4-0.4,0.7-0.8,1.1-1.2c0.7-0.7,1.3-1.3,1.9-1.8 c0,0,0.1,0,0.1,0l0.1-0.1l0.1-0.1c0-0.1,0.1-0.3,0.3-0.6c0.2-0.3,0.4-0.4,0.5-0.5c0.2-0.2,0.4-0.4,0.6-0.5 c0.2-0.2,0.4-0.2,0.7-0.2c0.1-0.2,0.2-0.4,0.3-0.5c0.1-0.1,0.3-0.3,0.4-0.5c0.1-0.1,0.2-0.3,0.3-0.4c0.1-0.1,0.2-0.2,0.4-0.3 c0.1-0.1,0.1-0.1,0.2-0.2c0-0.1,0.1-0.2,0.2-0.2c0.3-0.3,0.6-0.6,1-0.8c0.4-0.2,0.7-0.4,1-0.8c0.2-0.2,0.3-0.4,0.4-0.5 c0.1-0.1,0.2-0.2,0.3-0.2c0.1,0,0.2-0.1,0.3-0.2l0.2-0.3c0.3-0.3,0.6-0.6,1-0.8c0.3-0.2,0.7-0.3,1-0.5c0.3-0.1,0.7-0.3,1-0.4 c0.3-0.2,0.6-0.3,0.9-0.6c0.2,0,0.3,0,0.5-0.1c0.2,0,0.3,0,0.5,0c0.3-0.2,0.6-0.3,0.8-0.4c0.3,0,0.5-0.1,0.8,0 c0.3,0,0.6,0,0.8,0.1c0.3,0,0.6,0,0.9-0.2c0.2,0,0.3,0,0.5,0.1c0.2,0.1,0.3,0.2,0.5,0.3c0.2,0.1,0.3,0.1,0.5,0.2 c0.2,0,0.4,0,0.5-0.1c0.3,0,0.6,0.2,0.9,0.5c0.3,0.3,0.6,0.5,0.9,0.4c0.1,0.1,0.1,0.2,0.3,0.3c0.2,0.2,0.4,0.3,0.6,0.4 c0.2,0.1,0.4,0.2,0.6,0.4c0.1,0.1,0.1,0.1,0.2,0.2c0.1,0.1,0.1,0.1,0.2,0.2c0.1,0.1,0.3,0.2,0.4,0.3c0.1,0.1,0.3,0.2,0.4,0.3 c0.2,0.2,0.3,0.3,0.3,0.5c0,0.2,0.1,0.3,0.3,0.5c0.1,0.1,0.1,0.1,0.1,0.1c0,0,0.1,0,0.1,0.1c0.1,0.1,0.2,0.3,0.3,0.4 c0,0.1,0.1,0.2,0.1,0.3c0.2,0.2,0.4,0.4,0.4,0.6c0,0.2,0.1,0.4,0.1,0.7c0,0.2,0.1,0.5,0.1,0.7c0.1,0.2,0.2,0.4,0.4,0.6 c0,0.2,0,0.3,0.1,0.5s0.2,0.3,0.2,0.4c-0.1,0.4-0.2,0.9-0.4,1.5c-0.1,0.7-0.1,1.1,0.2,1.4c0.3,0.2,0.5,0.3,0.8,0.2 c0.3-0.1,0.6-0.2,0.9-0.3s0.6-0.3,0.9-0.4c0.3-0.1,0.6-0.1,0.9,0c0.2,0,0.4-0.1,0.7-0.1c0.3,0,0.6,0,0.9,0c0.3,0,0.6,0,0.8,0 c0.2,0,0.4,0,0.4,0c0.3,0,0.6,0.2,0.9,0.4c0.3,0.3,0.6,0.3,0.9,0.1c0.3,0.1,0.5,0.2,0.7,0.4c0.2,0.2,0.4,0.3,0.7,0.4 c0.3,0,0.7,0.2,1,0.4s0.6,0.5,0.9,0.7c0,0.1,0.1,0.2,0.2,0.2c0.1,0.1,0.3,0.2,0.5,0.3c0.2,0.1,0.4,0.3,0.7,0.5 c0.5,0.4,0.9,0.9,1.2,1.5c0.3,0.6,0.7,1.1,1.2,1.5c0.3,0.3,0.4,0.7,0.4,1s0.2,0.7,0.5,1l0.1,0.1c0.1,0.3,0.2,0.6,0.1,1 c0,0.3,0,0.7,0.1,1c0,0.2,0,0.5,0.1,0.7c0.1,0.3,0,0.5-0.1,0.8c0,0.8,0,1.6-0.1,2.6c-0.1,1-0.4,1.9-0.9,2.7c0,0.2-0.1,0.4-0.3,0.6 c-0.1,0.2-0.3,0.5-0.4,0.8s-0.3,0.5-0.4,0.7c-0.1,0.2-0.2,0.3-0.2,0.3l-0.5,0.6c-0.2,0.2-0.3,0.3-0.3,0.5c0,0.2-0.1,0.3-0.2,0.4 c-0.1,0.1-0.3,0.3-0.5,0.5c-0.2,0.2-0.3,0.3-0.5,0.5c-0.4,0.4-0.5,0.7-0.5,1l-0.4,0.4l-0.6,0.6c-0.3,0.3-0.6,0.6-0.9,0.8 c-0.3,0.2-0.5,0.4-0.8,0.7c-0.2,0.3-0.3,0.5-0.5,0.7c-0.1,0.1-0.2,0.2-0.3,0.3c-0.1,0.1-0.2,0.2-0.3,0.3c-0.2,0.2-0.3,0.4-0.4,0.6 s-0.2,0.4-0.3,0.5c-0.2,0.3-0.5,0.5-0.9,0.7c-0.3,0.2-0.6,0.4-0.9,0.7l-0.1,0.1l0,0c-0.2,0.2-0.3,0.4-0.5,0.6 c-0.2,0.2-0.3,0.4-0.5,0.6c-0.4,0.5-0.8,0.9-1.3,1.3c-0.4,0.4-0.8,0.8-1.2,1.2c-0.1,0.1-0.2,0.3-0.3,0.4c-0.1,0.1-0.2,0.2-0.3,0.4 l-0.4,0.4c-0.2,0.2-0.4,0.4-0.6,0.7c-0.2,0.2-0.3,0.4-0.5,0.6c-0.2,0.2-0.4,0.4-0.7,0.4c-0.3,0.1-0.5,0.1-0.7,0 c-0.2,0-0.4-0.1-0.6-0.1c-0.2-0.1-0.3-0.1-0.3-0.1c-0.2-0.2-0.3-0.3-0.3-0.4c0-0.1-0.1-0.2-0.2-0.3c-0.1-0.1-0.3-0.3-0.6-0.4 s-0.4-0.1-0.5-0.1c-0.1-0.2-0.3-0.4-0.6-0.6s-0.4-0.4-0.6-0.6l-0.5-0.4c-0.1-0.1-0.2-0.2-0.3-0.4c-0.2-0.2-0.5-0.4-0.7-0.5 c-0.2-0.1-0.5-0.3-0.7-0.5c-0.1-0.1-0.2-0.3-0.3-0.4s-0.2-0.3-0.3-0.4c-0.1-0.1-0.2-0.1-0.3-0.1c-0.2,0-0.3-0.1-0.4-0.2 c-0.2-0.2-0.4-0.4-0.5-0.6c-0.1-0.2-0.3-0.5-0.5-0.6c-0.1-0.1-0.3-0.2-0.5-0.3c-0.2,0-0.3-0.1-0.5-0.3c-0.3-0.2-0.5-0.5-0.7-0.8 c-0.2-0.2-0.4-0.3-0.7-0.5c-0.2-0.1-0.5-0.3-0.7-0.5c-0.1-0.1-0.3-0.3-0.4-0.5c-0.1-0.2-0.2-0.3-0.4-0.5c-0.2-0.2-0.4-0.3-0.6-0.4 c-0.2-0.1-0.4-0.3-0.6-0.4l-0.2-0.2c-0.3,0-0.6-0.2-1-0.5c-0.4-0.3-0.6-0.7-0.8-0.9c-0.3-0.4-0.6-0.7-1-1c-0.4-0.3-0.7-0.7-1.1-1 l-1.3-1.2c-0.3-0.3-0.6-0.6-1-0.9c-0.3-0.3-0.6-0.6-0.9-1c-0.2-0.1-0.4-0.2-0.6-0.4c-0.1-0.1-0.2-0.2-0.2-0.2 c-0.1-0.1-0.1-0.2-0.2-0.2c-0.3-0.3-0.6-0.5-1-0.6c-0.3-0.1-0.7-0.4-1-0.7c-0.4-0.3-0.6-0.7-0.7-1c-0.1-0.3-0.3-0.6-0.7-0.9 c-0.3-0.2-0.5-0.4-0.7-0.4c-0.3-0.3-0.6-0.6-0.9-0.9c-0.3-0.3-0.6-0.6-1-0.9l-0.7-0.7c0,0,0-0.1,0-0.1c0,0,0-0.1-0.1-0.1 c0,0-0.1,0-0.1-0.1c0,0-0.1,0-0.1-0.1c-0.1-0.1-0.1-0.1-0.1-0.2c-0.1-0.1-0.3-0.1-0.4-0.2c-0.1-0.1-0.3-0.2-0.4-0.3 c-0.3-0.3-0.7-0.7-1.2-1.2c-0.4-0.5-0.7-0.9-0.8-1.3c0.1-0.5,0.3-0.9,0.6-1.3c0.3-0.4,0.6-0.8,1-1.3c0.1-0.1,0.1-0.2,0.2-0.3 c0.1-0.1,0.1-0.2,0.2-0.3c0.3-0.3,0.5-0.5,0.8-0.8c0.3-0.2,0.5-0.5,0.8-0.8C290,310.9,290.1,310.7,290.2,310.6z M295.8,313.4 c-0.1-0.1-0.1-0.1-0.2-0.1c0,0-0.1,0.1-0.1,0.1c-0.2,0.3-0.3,0.5-0.1,0.7c0.1,0,0.2,0,0.3-0.1c0.1-0.1,0.1-0.2,0-0.3 C295.6,313.7,295.7,313.5,295.8,313.4z M296.8,311.4c-0.1,0-0.2,0.1-0.4,0.2c-0.1,0.1-0.2,0.3-0.2,0.5s-0.1,0.4-0.1,0.6 c0.1,0.1,0.1,0.1,0.3,0c0.1,0,0.2-0.1,0.3-0.2c0.1-0.1,0.2-0.3,0.3-0.5C297,311.8,297,311.6,296.8,311.4z M300.1,311.8 c-0.1,0-0.2,0-0.3,0.1l-0.2,0.2l0,0c0.1,0.1,0.1,0.1,0,0.1c-0.1,0-0.1,0.1,0,0.1c0,0,0.1,0,0.1,0c0,0,0.1,0,0.1,0l0.1-0.1l0.2-0.3 C300.2,312,300.3,312,300.1,311.8L300.1,311.8z M303.9,310.1c-0.2,0.1-0.4,0.2-0.6,0.3s-0.4,0.3-0.5,0.5c-0.1,0.1-0.2,0.3-0.3,0.4 c-0.1,0.1-0.2,0.2-0.3,0.4c-0.2,0.2-0.3,0.3-0.4,0.4c0,0.1,0,0.3-0.2,0.4c-0.2,0.1-0.2,0.2-0.2,0.4l-0.1,0.1 c-0.3,0.4-0.3,0.8,0,1.4s0.7,1,1.1,1.3c0.1,0.1,0.2,0.2,0.4,0.2c0.1,0,0.3,0.1,0.4,0.2c0.1,0.1,0.3,0.3,0.3,0.4 c0.1,0.1,0.2,0.3,0.3,0.4c0.2,0.2,0.4,0.3,0.6,0.4c0.2,0.1,0.4,0.2,0.6,0.4l0.2,0.2c0.2,0.2,0.6,0.2,1,0.1 c0.4-0.2,0.7-0.3,0.9-0.5c0.1-0.1,0.1-0.1,0.1-0.2c0-0.1,0.1-0.1,0.1-0.2c0.2-0.2,0.3-0.3,0.5-0.4c0.2-0.1,0.3-0.2,0.4-0.4 c0.1-0.1,0.3-0.3,0.4-0.4c0.1-0.2,0.2-0.3,0.2-0.6c0.3-0.5,0.6-1,0.9-1.5c0.3-0.5,0.5-1,0.5-1.5c-0.3-0.5-0.5-0.9-0.7-1.4 c-0.2-0.4-0.5-0.9-1-1.3c-0.2-0.2-0.4-0.3-0.8-0.3c-0.3,0-0.5-0.1-0.7-0.3c-0.1-0.1-0.1-0.2-0.1-0.4c0-0.1,0.1-0.3,0.2-0.4 c0.1-0.2,0.2-0.3,0.3-0.5c0.1-0.2,0.1-0.3,0.1-0.4c-0.2,0-0.4,0.1-0.7,0.3c-0.3,0.3-0.4,0.5-0.4,0.7c0,0.2-0.1,0.3-0.2,0.5 c-0.4,0.4-0.8,0.7-1.2,0.8C304.5,309.5,304.2,309.7,303.9,310.1z M303.1,305.1L303.1,305.1c-0.1-0.1-0.1-0.1-0.1,0l-0.2,0.2l0,0 l0,0c0,0,0.1,0,0.1,0L303.1,305.1L303.1,305.1z M303.2,320.9L303.2,320.9c-0.1-0.1-0.2-0.1-0.3-0.1c-0.1,0.1-0.1,0.2,0,0.3 c0.1,0.1,0.2,0.1,0.2,0S303.2,320.9,303.2,320.9z M303.7,322.7c-0.1-0.1-0.3-0.1-0.4,0.1c-0.2,0.2-0.2,0.4-0.1,0.5 c0.1,0.1,0.3,0.2,0.4,0.1c0.1-0.1,0.2-0.1,0.3-0.1c0.1-0.1,0.1-0.1,0.1-0.2l0,0c0.1-0.1,0.1-0.1,0-0.1c-0.1-0.1-0.1-0.1-0.1-0.1 C303.8,322.7,303.8,322.7,303.7,322.7z M303.9,319.1l0-0.1c-0.1-0.1-0.1,0-0.2,0.1c-0.1,0.1-0.1,0.1-0.2,0.2 c-0.1,0.1-0.1,0.1,0,0.2c0.1,0.1,0.2,0.1,0.2,0l0,0l0.2-0.2C303.9,319.2,303.9,319.1,303.9,319.1z M305.6,323.1 c-0.1,0-0.2,0-0.3,0.1l0,0l0,0l0,0.1l0,0.1c0,0,0.1,0,0.1,0l0,0.1c0,0,0.1,0,0.2-0.1C305.7,323.3,305.7,323.2,305.6,323.1 L305.6,323.1z M305.7,303.9c-0.2,0-0.3,0-0.3,0.1l0,0c0.2,0.2,0.4,0.2,0.5,0.1C305.9,304.1,305.9,304.1,305.7,303.9z M307,301.8 c0-0.1,0-0.1-0.1-0.2c-0.1-0.1-0.2,0-0.3,0.2c-0.2,0.2-0.2,0.2-0.2,0.2c0,0.1,0,0.1,0.1,0.2c0,0.1,0,0.1,0.1,0.2c0,0,0.1,0,0.2,0 l0.1-0.1l0.2-0.2C307,302,307,301.9,307,301.8z M307.5,322.1c-0.1,0.1-0.2,0.1-0.3,0.1c-0.1,0-0.2,0.1-0.3,0.2l-0.1,0.2 c0,0.1,0,0.2,0.1,0.3c0.1,0.1,0.2,0.1,0.3,0c0.1-0.1,0.1-0.1,0.1-0.2c0-0.1,0.1-0.1,0.1-0.2l0.1-0.1c0-0.1,0-0.1,0-0.2 C307.6,322.2,307.6,322.2,307.5,322.1L307.5,322.1z M307.7,323.9c-0.2,0-0.4,0-0.4,0.1c0,0-0.1,0.1-0.1,0.1c0,0.1,0,0.1,0,0.1 c0.1,0.1,0.1,0.1,0.2,0.1c0.1,0,0.1,0,0.1,0c0-0.1,0.1-0.2,0.2-0.2C307.8,324.1,307.8,324,307.7,323.9z M308.4,303.8L308.4,303.8 c-0.1-0.1-0.2,0-0.3,0.1c-0.1,0.1-0.1,0.2,0,0.2c0.1,0.1,0.1,0.1,0.2,0c0.1-0.1,0.1-0.1,0.1-0.2L308.4,303.8L308.4,303.8z M309.5,306.3c-0.3-0.1-0.7,0-1.1,0.3c0,0.1,0,0.1,0.1,0.2c0.1,0.1,0.3,0.2,0.4,0.2c0.1,0,0.2-0.1,0.4-0.1c0.1,0,0.2-0.1,0.2-0.1 c0,0,0,0,0,0c0.1-0.1,0.1-0.1,0-0.2S309.5,306.4,309.5,306.3z M309.8,328l-0.2,0.2c-0.1,0.1-0.1,0.2,0,0.2l0.1-0.1 C309.8,328.2,309.9,328.1,309.8,328z M310.3,331.8c-0.1,0-0.3,0.2-0.5,0.4c0,0.1,0,0.2,0,0.2c0.1,0.1,0.2,0.1,0.2,0l0.1-0.1 l0.2-0.3C310.4,332,310.4,332,310.3,331.8L310.3,331.8z M310.4,304.3c-0.1-0.1-0.2-0.1-0.2,0l-0.1,0.1l-0.1,0.1 c0.1,0.1,0.2,0.1,0.2,0L310.4,304.3L310.4,304.3z M311,308L311,308c-0.1-0.1-0.2-0.1-0.3,0c-0.1,0.1-0.1,0.1-0.2,0.2 c0,0.4,0,0.9,0.1,1.3c0.2-0.2,0.2-0.5,0.2-0.7C310.9,308.5,310.9,308.3,311,308z M311.2,329.5c-0.1-0.1-0.2-0.1-0.2,0 c-0.1,0.1-0.1,0.2-0.3,0.2l0,0.2c0.1,0.1,0.2,0.1,0.3,0s0.1-0.1,0.1,0c0.1-0.1,0.1-0.2,0.1-0.2 C311.2,329.6,311.2,329.5,311.2,329.5z M311.7,318.5C311.7,318.5,311.7,318.5,311.7,318.5c-0.1-0.1-0.1-0.2-0.1-0.2 c-0.1-0.1-0.2-0.1-0.3,0.1c-0.1,0.1-0.1,0.1-0.1,0.2c0,0.1-0.1,0.1-0.1,0.2c-0.1,0.1-0.1,0.1-0.2,0.1c0.1,0.1,0.1,0.2,0.1,0.3 c-0.1,0.1,0,0.2,0,0.2c0.1,0.1,0.2,0.1,0.2,0c0.1-0.1,0.1-0.2,0.2-0.2C311.7,318.9,311.8,318.7,311.7,318.5z M312.1,322.6 c-0.1-0.1-0.2-0.1-0.3,0c-0.1,0-0.2,0.1-0.3,0.1c0,0.1,0,0.1-0.1,0.2l-0.2,0.2c-0.2,0.2-0.2,0.3-0.1,0.4c0.2,0,0.3-0.1,0.5-0.3 C311.8,322.9,311.9,322.7,312.1,322.6z M313.2,333.5c-0.1,0.1-0.3,0.2-0.4,0.2c-0.1,0.1-0.2,0.1-0.2,0.2c-0.1,0.1-0.2,0.3-0.1,0.4 l-0.1,0.1c-0.1,0.1-0.1,0.1,0,0.1c0,0,0.1,0,0.1,0.1c0,0,0.1,0,0.1,0.1l0,0l0.1-0.1c0.1-0.1,0.1-0.1,0.1,0c0-0.2,0.1-0.3,0.3-0.5 C313.3,333.8,313.3,333.6,313.2,333.5z M312.8,307.7c-0.1,0-0.1,0-0.2,0.1c0,0,0,0.1,0,0.1c0,0,0,0.1-0.1,0.1l0,0 c0.1,0.1,0.1,0.1,0,0.2c0,0.1,0,0.1,0,0.1c0.1,0.1,0.2,0.1,0.3-0.1c0.1-0.1,0.1-0.1,0-0.2C312.9,307.9,312.9,307.8,312.8,307.7z M313.4,320c-0.1,0-0.2,0-0.3,0.1c-0.1,0.1-0.2,0.2-0.3,0.2c0,0.1,0.1,0.2,0.2,0.3l0.1-0.1c0.1-0.1,0.1-0.1,0.2-0.1 c0.1,0,0.1-0.1,0.2-0.1C313.5,320.2,313.5,320.1,313.4,320z M314.5,328.9c-0.2,0.2-0.5,0.4-0.8,0.6c-0.3,0.2-0.5,0.4-0.7,0.5 c-0.1,0.1-0.1,0.1-0.1,0.2c0,0.1-0.1,0.1-0.1,0.2c0.1,0.1,0.3,0.1,0.6,0c0.3-0.1,0.5-0.2,0.8-0.4c0.3-0.2,0.6-0.5,0.9-0.8 c0.1-0.1,0.2-0.3,0.2-0.4l0,0c0.1-0.1,0-0.1,0-0.2C315,328.5,314.8,328.6,314.5,328.9z M314,322.3l-0.2,0.2 c-0.2,0.2-0.4,0.5-0.4,0.7c-0.1,0.3-0.2,0.5-0.4,0.7c-0.2,0.3-0.1,0.6,0.2,0.9c0.3,0.3,0.6,0.5,0.7,0.8c0,0.2,0.1,0.3,0.1,0.4 c0.1,0.1,0.3,0.2,0.4,0.2c0.2,0,0.3,0.1,0.4,0.2c0.1,0.2,0.2,0.3,0.4,0.6c0.2,0.2,0.4,0.4,0.6,0.6c0.2,0.2,0.3,0.4,0.5,0.5 c0.1,0.1,0.2,0.2,0.2,0.2c0.3,0.2,0.6,0.4,1,0.4c0.4,0,0.7,0.1,1,0.3c0.2,0,0.4,0,0.7-0.1c0.2-0.1,0.4-0.3,0.6-0.5 c0.7-0.7,1.1-1.4,1.4-2c0.3-0.6,0.6-1.2,1.1-1.7l0.2-0.3c0-0.1,0.1-0.2,0.3-0.4c0.1-0.2,0.2-0.3,0.2-0.5c0.2-0.3,0.3-0.6,0.3-1 c0-0.4-0.1-0.8-0.2-1.2c-0.1-0.4-0.3-0.8-0.5-1.1s-0.4-0.6-0.7-0.8c-0.3-0.3-0.7-0.5-0.9-0.6c-0.3-0.1-0.6-0.1-0.8-0.1 c-0.3,0-0.5,0-0.8,0c-0.3,0-0.5-0.1-0.8-0.2c0-0.1,0-0.3,0-0.4s0.1-0.2,0-0.3c-0.2,0-0.4,0.1-0.5,0.2c-0.2,0.2-0.3,0.4-0.4,0.7 c-0.1,0.3-0.2,0.5-0.3,0.6c-0.4,0.5-0.9,0.9-1.5,1.3c-0.5,0.4-1,0.8-1.5,1.3L314,322.3z M313.6,306.3L313.6,306.3 c-0.1-0.1-0.2-0.1-0.4,0.1c-0.1,0.1-0.1,0.1-0.2,0.2c-0.1,0.1-0.1,0.2-0.2,0.2c0.1,0.1,0.2,0,0.3-0.1l0.2-0.3L313.6,306.3z M314.8,338.2c-0.1,0-0.2,0-0.2,0c-0.1,0.1,0,0.1,0,0.2c0.1,0,0.2,0,0.2,0L314.8,338.2z M317.1,335.3c-0.2,0.1-0.4,0.1-0.6,0.2 c-0.2,0.1-0.4,0.1-0.4,0c0,0.1,0,0.1-0.1,0.2l-0.2,0.2c-0.1,0.1-0.1,0.1-0.1,0.2c0.2,0.2,0.4,0.2,0.7,0.1c0.2-0.1,0.4-0.2,0.5-0.3 C317.1,335.7,317.1,335.5,317.1,335.3z M317,333.1c-0.1-0.1-0.2,0-0.4,0.2c-0.1,0.1-0.1,0.2,0,0.2l0,0c0.1,0.1,0.1,0,0.2,0 c0-0.1,0.1-0.2,0.2-0.2S317.1,333.2,317,333.1z M317.1,330.8l-0.1,0c-0.1,0.1-0.1,0.1,0,0.2c0,0.1,0,0.1,0,0.2c0,0,0,0-0.1,0 s0,0-0.1,0c0.1,0.1,0.1,0.1,0.1,0.2c0,0.1,0.1,0.2,0.2,0.3c0.1,0,0.3-0.1,0.4-0.3c0-0.1,0-0.2,0-0.4c0-0.1,0-0.3-0.2-0.4l-0.1,0.1 C317.1,330.8,317.1,330.8,317.1,330.8z M317.6,314.2c-0.1,0-0.2,0-0.3,0.1c-0.1,0-0.2,0.1-0.3,0.2c0.1,0.1,0.3,0.2,0.4,0.1 c0.1,0,0.3-0.1,0.4-0.1c0-0.1,0.1-0.1,0.1-0.2c0.1,0,0.1-0.1,0.1-0.2c-0.1,0.1-0.2,0.1-0.2,0C317.8,314.1,317.7,314.1,317.6,314.2 L317.6,314.2z M318.8,329.4c-0.1,0-0.2,0-0.3,0.1c-0.1,0-0.2,0.1-0.2,0.2l0,0l0,0.1c0.1,0.1,0.2,0.1,0.2,0l0,0 c0.1-0.1,0.1-0.1,0.2-0.1C318.8,329.6,318.8,329.5,318.8,329.4z M318.9,334.3c0-0.1,0-0.1,0-0.1l0,0c-0.1-0.1-0.2,0-0.3,0.1 c-0.1,0.1-0.1,0.1-0.2,0.2c-0.1,0.1-0.1,0.1-0.1,0.2c0.1,0.1,0.3,0.2,0.4,0.2c0-0.1,0.1-0.2,0.2-0.2 C318.9,334.5,318.9,334.4,318.9,334.3z M319.4,311.4c-0.1,0-0.3,0.1-0.4,0.1c-0.1,0-0.3,0.2-0.4,0.3c0,0.1,0.1,0.2,0.2,0.3 c0.1,0,0.2-0.1,0.2-0.2C319.1,311.8,319.2,311.6,319.4,311.4z M319.6,315.5c0-0.1,0-0.1-0.1-0.2c-0.1-0.1-0.1,0-0.2,0.1 c-0.1,0.1-0.1,0.1-0.2,0.2c-0.1,0.1-0.1,0.2,0,0.3c0.1,0.1,0.2,0.1,0.2,0c0-0.1,0.1-0.2,0.2-0.2 C319.6,315.6,319.6,315.5,319.6,315.5z M319.8,331.3c-0.2,0-0.3,0.1-0.5,0.3c-0.1,0.1-0.2,0.3-0.2,0.4c0.2,0.2,0.3,0.2,0.5,0 C319.7,331.8,319.8,331.5,319.8,331.3z M321.6,314.3c-0.1-0.1-0.2,0-0.3,0.1l-0.2,0.2l-0.1,0.1c0,0.1,0,0.2,0.1,0.2 c0.1,0.1,0.1,0,0.2,0c0.1-0.1,0.2-0.2,0.3-0.2C321.7,314.5,321.7,314.4,321.6,314.3z M322.3,316.3L322.3,316.3 c-0.2-0.2-0.3-0.1-0.4,0c0,0-0.1,0.1-0.1,0.1c0,0.1-0.1,0.1-0.1,0.2c-0.1,0.1-0.1,0.1-0.2,0.1c0.1,0.1,0.2,0.2,0.3,0.2 c0.1,0,0.2-0.1,0.4-0.3C322.3,316.5,322.3,316.4,322.3,316.3z M322.8,335.1c-0.1-0.1-0.2,0-0.3,0.1c-0.1,0.1,0,0.1,0,0.2 c0.1,0.1,0.2,0,0.4-0.1C322.9,335.2,322.9,335.2,322.8,335.1L322.8,335.1z M324.4,316.9c-0.2,0.1-0.3,0.1-0.4,0.2 c-0.1,0.1-0.2,0.2-0.3,0.4c-0.1,0.1-0.2,0.3-0.3,0.4l-0.1,0.1c0,0.1,0,0.1-0.1,0.2l-0.1,0.1c0.2,0,0.5,0,0.7,0 c0.2,0,0.5-0.1,0.7-0.4c0.1-0.1,0.2-0.2,0.3-0.4c0.1-0.1,0-0.3-0.1-0.4L324.4,316.9z M324.4,315.8c0,0-0.1-0.1-0.1-0.1 c-0.1-0.1-0.1,0-0.2,0c0,0,0,0.1,0.1,0.2C324.3,315.9,324.3,315.9,324.4,315.8L324.4,315.8z M326.1,324.3 c-0.2,0.1-0.4,0.2-0.5,0.2c-0.1,0-0.2,0-0.3,0.1c-0.1,0.1-0.2,0.3-0.2,0.3c0.1,0.1,0.3,0.2,0.5,0.1c0.2,0,0.4-0.1,0.5-0.3 c0,0,0-0.1,0-0.1L326.1,324.3L326.1,324.3z M326.1,321.1c-0.2,0-0.3,0.1-0.5,0.3c-0.1,0.1-0.2,0.3-0.2,0.5c0.2,0,0.3,0,0.3-0.1 c0-0.1,0.1-0.1,0.3-0.1l0.1-0.1l0.2-0.2c0.1-0.1,0.1-0.2,0-0.2C326.3,321.1,326.2,321.1,326.1,321.1 C326.2,321.1,326.2,321.1,326.1,321.1z M326.9,314.7c-0.1-0.1-0.2-0.1-0.4,0.1s-0.4,0.2-0.4,0.3c-0.1,0.1-0.1,0.2-0.2,0.3 c-0.1,0.2-0.1,0.3-0.1,0.3c0.1,0.1,0.3,0.1,0.5-0.1c0.2-0.2,0.4-0.3,0.5-0.4C326.8,315.1,326.9,314.9,326.9,314.7z M327.5,323.3 c-0.2,0-0.4,0.1-0.5,0.2l-0.1,0.1c0.3,0.2,0.5,0.1,0.7-0.1c0,0,0-0.1,0-0.1L327.5,323.3z M328.2,318.9c-0.1,0-0.2,0.1-0.4,0.2 c-0.2,0.2-0.3,0.5-0.4,0.8l-0.1,0l0,0.1l0.1,0.1l0,0c0.1,0,0.3-0.1,0.5-0.3c0.2-0.2,0.3-0.2,0.2-0.2c0.1-0.1,0.1-0.2,0.1-0.4 C328.4,319.1,328.3,319,328.2,318.9L328.2,318.9z"></path> <path id="XMLID_147_" class="st0" d="M322.4,280.2c0.3-0.1,0.5-0.3,0.8-0.4s0.5-0.3,0.7-0.5c0.4-0.2,0.7-0.4,1-0.7 c0.3-0.2,0.6-0.4,1-0.6c1-0.6,1.9-1.1,2.7-1.5c0.1-0.1,0.2-0.2,0.3-0.3s0.3-0.2,0.5-0.3c0.8-0.5,1.5-0.9,2.3-1.3 c0.8-0.4,1.6-0.9,2.4-1.4c0.6-0.4,1.2-0.7,1.7-1.1c0.6-0.3,1.1-0.7,1.7-1.1c0.2,0,0.3-0.1,0.4-0.2c0.1-0.1,0.3-0.2,0.4-0.3 c0.3-0.2,0.6-0.4,0.9-0.6c0.3-0.2,0.6-0.4,0.9-0.6c0.4-0.2,0.9-0.4,1.7-0.6c0.7-0.1,1.3,0,1.8,0.4c0,0.2,0.1,0.4,0.1,0.7 s0.1,0.5,0.2,0.7c0.1,0.2,0.2,0.3,0.4,0.4c0.2,0.1,0.3,0.2,0.4,0.4c0.1,0.2,0.2,0.4,0.2,0.6c0,0.2,0.1,0.4,0.3,0.7 c0.1,0.2,0.3,0.4,0.4,0.6c0.2,0.2,0.3,0.3,0.4,0.5c0.2,0.3,0.3,0.5,0.4,0.8c0.1,0.3,0.3,0.6,0.4,0.8c0.1,0.1,0.3,0.3,0.5,0.6 c-0.1,0.3-0.2,0.6-0.2,0.9c0,0.3-0.3,0.6-0.7,0.8c-0.4,0.2-0.7,0.4-1.1,0.6c-0.3,0.2-0.7,0.4-1,0.6c-0.4,0.2-0.7,0.5-1,0.8 c-0.3,0.3-0.7,0.6-1.1,0.9c-0.5,0.3-1,0.5-1.5,0.8c-0.5,0.2-1,0.5-1.5,0.7c-0.1,0.1-0.3,0.2-0.5,0.4c-0.2,0.1-0.4,0.2-0.6,0.3 c-0.2,0.1-0.4,0.2-0.6,0.3c-0.5,0.3-0.9,0.7-1.2,1.2c-0.3,0.5-0.2,1.1,0.2,1.8c0.1,0.2,0.2,0.3,0.3,0.5c0.1,0.2,0.2,0.3,0.3,0.5 c0.2,0.3,0.2,0.5,0.3,0.7c0.2,0.2,0.3,0.3,0.4,0.4c0,0.1,0.1,0.1,0.1,0.2c0,0.1,0,0.1,0.1,0.2c0.2,0.4,0.5,0.6,0.7,0.7 c0.3,0.1,0.5,0.1,0.8,0c0.3-0.1,0.5-0.2,0.7-0.3c0.2-0.1,0.3-0.2,0.4-0.2c0.2-0.1,0.4-0.2,0.6-0.3c0.2-0.1,0.4-0.2,0.5-0.3 c0.3-0.2,0.6-0.4,0.9-0.6c0.3-0.2,0.6-0.4,1-0.7c0.2-0.1,0.3-0.2,0.4-0.3c0.1-0.1,0.3-0.1,0.4-0.2c0.8-0.6,1.7-1.2,2.6-1.8 c0.4-0.2,0.8-0.5,1.2-0.7c0.4-0.2,0.8-0.4,1.2-0.7l0.1-0.1c0.1,0,0.1,0,0.1,0c0,0,0,0,0.1,0l0,0c0.3,0.1,0.6,0.2,0.9,0.4 s0.6,0.4,0.7,0.7s0.2,0.5,0.2,0.6c0.2,0.2,0.4,0.4,0.6,0.7c0.2,0.3,0.3,0.6,0.5,0.8c0.1,0.2,0.3,0.4,0.4,0.6 c0.1,0.2,0.2,0.4,0.3,0.6c0.1,0.1,0.2,0.3,0.3,0.4c0.1,0.1,0.2,0.3,0.3,0.5c0.2,0.4,0.5,0.8,0.7,1.3c0.2,0.5,0.3,0.9,0.1,1.2 c0,0.3-0.1,0.5-0.3,0.6c-0.2,0.2-0.4,0.3-0.4,0.6c-0.1,0-0.1,0.1-0.2,0.1c0,0-0.1,0-0.2,0.1c-0.2,0.1-0.3,0.2-0.4,0.4 s-0.3,0.3-0.4,0.4c-0.4,0.3-0.9,0.5-1.3,0.7c-0.5,0.2-0.9,0.4-1.3,0.6c-0.2,0.1-0.4,0.3-0.6,0.5c-0.2,0.2-0.4,0.4-0.6,0.5 c-0.4,0.2-0.7,0.3-1,0.4s-0.7,0.2-1.1,0.4c-0.3,0.2-0.6,0.4-0.9,0.6c-0.4,0.2-0.7,0.5-1,0.7c-0.3,0.3-0.5,0.6-0.7,0.8 c-0.2,0.3-0.2,0.6,0,0.8c0,0.1,0.1,0.1,0.1,0.2c0,0,0.1,0.1,0.1,0.2c0.1,0.2,0.2,0.4,0.2,0.6c0,0.2,0,0.3,0.1,0.5 c0,0.1,0.1,0.1,0.3,0.2c0.2,0.1,0.3,0.2,0.4,0.4c0.1,0.2,0.2,0.3,0.3,0.5c0.1,0.2,0.2,0.4,0.3,0.5c0.2,0.3,0.5,0.5,1,0.6 c0.5,0.1,0.9,0.1,1.2-0.1c0.3-0.2,0.5-0.4,0.8-0.6c0.3-0.3,0.6-0.5,1-0.7c0.3-0.2,0.6-0.3,0.9-0.5c0.3-0.1,0.6-0.3,0.9-0.4l0-0.1 c0.2-0.1,0.3-0.2,0.5-0.3s0.3-0.2,0.5-0.4c0.2-0.1,0.3-0.2,0.5-0.3c0.2-0.1,0.3-0.2,0.5-0.3c0.2-0.3,0.5-0.5,0.8-0.7 c0.3-0.2,0.7-0.5,1-0.7l1.4-0.8c0.2-0.1,0.3-0.2,0.5-0.3c0.2-0.1,0.3-0.2,0.5-0.4c0.4-0.1,0.9,0,1.4,0.3c0.6,0.3,0.9,0.6,1.1,0.9 c0.1,0.2,0.2,0.4,0.2,0.6c0,0.2,0.1,0.4,0.2,0.6c0.1,0.1,0.2,0.3,0.4,0.4c0.2,0.1,0.3,0.3,0.4,0.4c0.1,0.2,0.2,0.4,0.3,0.6 c0.1,0.2,0.2,0.4,0.3,0.6c0.1,0.1,0.2,0.2,0.3,0.3c0.1,0.1,0.2,0.2,0.3,0.3c0.2,0.3,0.3,0.5,0.4,0.8c0.1,0.2,0.2,0.5,0.3,0.7 c0.1,0,0.2,0.2,0.3,0.3c0.1,0.2,0.2,0.5,0.2,0.8c0,0.3-0.1,0.5-0.2,0.8c-0.1,0.3-0.3,0.5-0.4,0.7c-0.2,0.2-0.3,0.3-0.4,0.4 c-0.5,0.3-1,0.6-1.6,0.8c-0.6,0.3-1.1,0.6-1.7,0.9l-1.5,0.9l-0.1,0.1l-0.3,0.2c-0.1,0.1-0.3,0.1-0.4,0.1c-0.1,0.1-0.3,0.3-0.6,0.5 l-0.6,0.4c-0.3,0.2-0.5,0.3-0.8,0.5c-0.3,0.2-0.5,0.3-0.8,0.5c-0.6,0.4-1.2,0.7-1.9,0.9c-0.1,0.1-0.2,0.3-0.4,0.4l-0.3,0.2 c-0.3,0.2-0.4,0.3-0.4,0.5c0,0.2-0.1,0.3-0.3,0.4c-0.2,0.1-0.3,0.2-0.5,0.2c-0.2,0-0.4,0.1-0.5,0.2l-0.1,0.1 c-0.2,0-0.4,0.2-0.6,0.3c-0.4,0.2-0.7,0.5-0.9,0.7s-0.5,0.5-0.9,0.7c-0.2,0.1-0.5,0.2-0.8,0.3c0,0-0.1,0-0.1,0.1 c0,0-0.1,0.1-0.1,0.1c-0.1,0.1-0.2,0.1-0.3,0.1c-0.1,0-0.2,0-0.3,0.1c-0.2,0.1-0.3,0.2-0.4,0.4c-0.1,0.1-0.3,0.3-0.4,0.4 c-0.3,0.2-0.7,0.4-1.1,0.5c-0.4,0.1-0.8,0.3-1.1,0.5c-0.2,0.1-0.4,0.3-0.5,0.4c-0.2,0-0.5-0.1-0.7-0.1c-0.2,0-0.5-0.1-0.7-0.1l0,0 c-0.1,0-0.2-0.1-0.5-0.5c-0.3-0.3-0.5-0.7-0.8-1.2c-0.3-0.5-0.6-0.9-0.9-1.4c-0.3-0.5-0.5-0.8-0.6-1.1c-0.1-0.3-0.3-0.5-0.5-0.8 c-0.2-0.3-0.4-0.6-0.5-0.9c-0.1-0.1-0.3-0.2-0.4-0.4c-0.1-0.2-0.2-0.4-0.3-0.7c-0.1-0.3-0.2-0.5-0.3-0.8c-0.1-0.2-0.3-0.4-0.4-0.5 l-0.2-0.3c-0.2-0.3-0.3-0.5-0.5-0.7c-0.2-0.2-0.4-0.5-0.5-0.7c-0.2-0.3-0.3-0.6-0.3-0.9c-0.2-0.2-0.3-0.4-0.5-0.6 c-0.1-0.2-0.3-0.4-0.4-0.6c-0.1-0.1-0.1-0.3-0.2-0.4c0-0.1-0.1-0.2-0.1-0.3c-0.1-0.1-0.2-0.2-0.3-0.3c-0.1-0.1-0.2-0.2-0.2-0.3 c-0.1-0.1-0.1-0.2-0.2-0.2c-0.1-0.2-0.2-0.4-0.3-0.6s-0.2-0.3-0.2-0.4c-0.2-0.1-0.3-0.3-0.4-0.4c-0.1-0.1-0.2-0.3-0.3-0.5 c-0.2-0.4-0.4-0.7-0.6-1.1c-0.2-0.4-0.4-0.7-0.6-1.1c0-0.3,0-0.6-0.2-0.8c-0.1-0.2-0.2-0.3-0.4-0.5c-0.1-0.1-0.2-0.3-0.4-0.5 c-0.2-0.3-0.2-0.5-0.2-0.6c-0.1-0.1-0.2-0.2-0.3-0.3c-0.1-0.2-0.2-0.3-0.2-0.5c0-0.1-0.1-0.3-0.2-0.5c-0.1-0.1-0.2-0.2-0.3-0.3 c-0.1-0.1-0.2-0.2-0.3-0.3c-0.1-0.2-0.2-0.3-0.2-0.5s-0.1-0.4-0.2-0.5c-0.1-0.1-0.2-0.3-0.3-0.4c-0.1-0.1-0.2-0.3-0.4-0.5 c-0.1-0.2-0.2-0.4-0.3-0.6c-0.1-0.2-0.1-0.3-0.2-0.5c-0.1-0.2-0.2-0.3-0.4-0.5c-0.1-0.2-0.3-0.3-0.4-0.5c-0.1-0.1-0.1-0.3-0.2-0.6 c-0.1-0.1-0.3-0.2-0.5-0.5c-0.1-0.1-0.1-0.2-0.2-0.3c-0.1-0.1-0.1-0.2-0.1-0.4c-0.2-0.2-0.3-0.4-0.4-0.6c-0.1-0.2-0.2-0.4-0.4-0.6 c-0.1-0.2-0.3-0.4-0.4-0.6c-0.1-0.2-0.2-0.4-0.3-0.6c-0.2-0.3-0.5-0.5-0.8-0.9c-0.3-0.3-0.5-0.7-0.7-1c-0.1-0.2-0.2-0.5-0.3-0.7 c-0.1-0.2-0.1-0.4-0.2-0.5c-0.1-0.2-0.2-0.3-0.4-0.4c-0.2-0.1-0.3-0.2-0.4-0.4c-0.3-0.5-0.3-1.1-0.1-1.8c0.2-0.7,0.6-1.2,1-1.5 c0.1-0.1,0.3-0.2,0.4-0.2C322.2,280.4,322.3,280.3,322.4,280.2z M328.4,283.5c-0.4-0.1-0.7-0.1-0.9,0c-0.1,0.1-0.2,0.2-0.1,0.2 l0,0l0,0c0.1,0.1,0.1,0.1,0.2,0.1c0.1,0,0.2,0,0.3,0l0.1-0.1l0.2-0.2C328.4,283.7,328.4,283.6,328.4,283.5z M330.1,282.8 c-0.2-0.1-0.5-0.1-0.9,0.1l0,0.2c0,0,0.1,0,0.1,0c0,0,0.1,0,0.1,0l0,0.1c0.2-0.1,0.3-0.1,0.5,0c0.1,0.1,0.3,0,0.4-0.1 c0,0,0-0.1,0-0.1c0,0,0.1-0.1,0-0.1c0-0.1-0.1-0.1-0.1-0.1C330.3,282.9,330.2,282.9,330.1,282.8z M332.8,285.9 c-0.2-0.1-0.3-0.1-0.5-0.1s-0.3,0.1-0.4,0.1l-0.1,0.1l-0.4,0.2c-0.2,0.1-0.3,0.2-0.2,0.3c0.1,0,0.1,0,0.1,0.1c0,0,0.1,0,0.1,0l0,0 c0.2-0.1,0.3-0.1,0.5-0.2c0.1,0,0.3-0.1,0.5-0.2C332.6,286.1,332.7,286,332.8,285.9z M331.7,279.1c-0.1-0.1-0.1-0.1-0.2-0.1 l-0.2,0.1l-0.1,0.1c0,0.1,0,0.1,0,0.2c0,0,0,0.1,0,0.1c0,0.1,0.1,0.1,0.2,0l0,0c0.1,0,0.1-0.1,0.2-0.1c0,0,0.1,0,0.2-0.1 C331.8,279.3,331.8,279.2,331.7,279.1L331.7,279.1z M333.8,283.9c-0.2,0.1-0.5,0.1-0.7,0.1c-0.2,0-0.4,0.1-0.7,0.2l0,0.1 c0.1,0.1,0.1,0.1,0.2,0s0.2-0.1,0.3-0.1c0.2-0.1,0.3-0.1,0.5-0.1c0.2,0.1,0.3,0.1,0.5,0.1l0.1-0.1l0.2-0.1 c0.1-0.1,0.1-0.1,0.1-0.2c0-0.1-0.1-0.1-0.3-0.1C333.9,283.8,333.8,283.9,333.8,283.9z M334.1,281.7c-0.4,0-0.7,0-0.8,0.1 c-0.1,0.1-0.2,0.2-0.3,0.3c0.2,0,0.3,0.1,0.5,0.1c0.2,0,0.3,0,0.5-0.1c0,0,0.1-0.1,0.1-0.1L334.1,281.7L334.1,281.7z M333.8,291.9 c-0.1-0.1-0.2-0.1-0.3,0c-0.2,0.1-0.3,0.3-0.3,0.4c0.1,0.1,0.2,0.1,0.5,0C333.9,292.1,333.9,292,333.8,291.9z M334,290.1 c-0.1-0.1-0.3-0.1-0.5,0c-0.1,0-0.1,0.1-0.1,0.2c0.1,0.1,0.1,0.2,0.1,0.2c0,0,0.1,0,0.3-0.1C334,290.3,334.1,290.2,334,290.1z M335.6,291.4c-0.1,0-0.2,0-0.3,0c-0.1,0-0.2,0-0.3,0.1c0,0.1-0.1,0.1-0.1,0.2c0,0.1,0,0.2,0,0.2c0.1,0.1,0.1,0.2,0.2,0.2 c0.1,0.1,0.3,0.1,0.4,0c0.1,0,0.1-0.1,0.2-0.3C335.7,291.8,335.7,291.6,335.6,291.4z M335.5,288.3c0.1-0.1,0.1-0.2,0.1-0.2 c0,0-0.1,0-0.2,0.1c-0.1,0.1-0.2,0.1-0.2,0.2c0,0.1,0,0.1,0,0.2c0,0,0,0.1,0,0.2c0,0,0,0,0.1,0c0.1,0,0.1-0.1,0.1-0.2 C335.4,288.5,335.4,288.4,335.5,288.3z M336.2,300.3c0-0.1-0.1-0.1-0.2,0c-0.1,0-0.2,0.1-0.3,0.2s-0.1,0.1-0.1,0.2 c0,0,0.1,0.1,0.2,0.1c0-0.1,0.1-0.1,0.2-0.2C336.1,300.4,336.2,300.4,336.2,300.3z M336.3,295.8l-0.1,0.1c-0.1,0-0.1,0-0.2,0 c-0.1,0-0.1,0-0.2,0c0,0.1-0.1,0.2-0.1,0.2c-0.1,0.1-0.1,0.1,0,0.2c0.1,0.2,0.3,0.2,0.5,0c0-0.1,0-0.2,0.1-0.2 C336.5,296.1,336.5,296,336.3,295.8L336.3,295.8z M336.4,281.6L336.4,281.6c-0.1-0.2-0.2-0.3-0.3-0.2c-0.1,0-0.1,0.1-0.2,0.3 c0,0.2-0.1,0.3-0.1,0.4c0.1,0,0.2,0,0.3,0c0.1,0,0.1-0.1,0.2-0.2C336.3,281.7,336.3,281.7,336.4,281.6z M337.4,294.3 c-0.3-0.1-0.5,0-0.7,0.1c0,0.1,0,0.2,0,0.2s0,0.1,0,0.2c0,0.1,0.1,0.1,0.3,0.2c0.2,0.1,0.3,0.1,0.4,0c0.2-0.1,0.3-0.3,0.2-0.4 L337.4,294.3L337.4,294.3z M337.5,292.1c-0.1,0.1-0.2,0.1-0.2,0.1c0,0-0.1,0-0.1,0.1c-0.2,0.1-0.3,0.3-0.3,0.5 c0.1,0.1,0.2,0.2,0.2,0.3c0.1,0.1,0.1,0.2,0.2,0.2c0.2-0.2,0.4-0.4,0.5-0.5C337.8,292.7,337.7,292.5,337.5,292.1z M339.3,294.9 c-0.1-0.1-0.2-0.1-0.3,0c-0.2,0.1-0.3,0.3-0.4,0.5c-0.1,0.2-0.2,0.4-0.3,0.6c-0.1,0.1-0.4,0.3-0.7,0.5c-0.3,0.2-0.4,0.5-0.2,0.7 c0.1,0.1,0.2,0.1,0.4,0c0.1-0.1,0.2-0.2,0.2-0.2c0-0.1,0.1-0.1,0.1-0.2l0.1-0.1c0.2-0.3,0.4-0.6,0.5-0.9 C339,295.5,339.1,295.2,339.3,294.9z M338.8,290.4c-0.1-0.1-0.3-0.1-0.5,0c-0.2,0.1-0.4,0.1-0.5,0.2c0,0.1,0,0.2,0,0.2 c0,0-0.1,0.1,0,0.2c0.2,0,0.3,0,0.5-0.1c0.1-0.1,0.3-0.2,0.4-0.3C338.6,290.5,338.7,290.5,338.8,290.4z M337.9,303.8l-0.1,0.1 c0,0.1,0.1,0.1,0.1,0.1L337.9,303.8z M340.4,291.7c-0.1,0-0.1,0.1-0.2,0.1c-0.1,0-0.1,0.1-0.2,0.1c-0.1,0-0.1,0.1-0.2,0.2 c0,0.1-0.1,0.1-0.2,0.2c-0.1,0-0.1,0.1-0.2,0.1c-0.1,0-0.1,0-0.2,0.1c-0.2,0.1-0.3,0.3-0.3,0.5c0.1,0.1,0.2,0.2,0.2,0.3 s0.2,0.1,0.5-0.1c0.2-0.1,0.3-0.2,0.3-0.4c0.1-0.2,0.2-0.3,0.3-0.4l0.2-0.1C340.6,292.1,340.6,291.9,340.4,291.7L340.4,291.7z M340,296.1c-0.1,0-0.2,0-0.3,0c-0.1,0-0.1,0-0.2,0c-0.1,0-0.1,0.1-0.1,0.2c0,0.1,0,0.2,0.1,0.2c0.1,0,0.2,0.1,0.3,0.1 c0.1,0,0.1,0,0.2,0c0,0,0.1-0.1,0.1-0.1C340,296.4,340,296.3,340,296.1L340,296.1z M341.3,299.6l-0.1-0.2l-0.1,0.1l-0.4,0.3 c-0.2,0.1-0.4,0.3-0.6,0.6s-0.3,0.5-0.3,0.5c0,0.1,0.1,0.1,0.3,0.1c0.1,0,0.2,0,0.3-0.1c0.3-0.2,0.5-0.4,0.7-0.6 C341.2,299.9,341.3,299.7,341.3,299.6z M343,303.2c-0.1-0.1-0.3-0.2-0.5,0c-0.1,0-0.1,0.1-0.2,0.1c-0.1,0.1-0.1,0.1-0.2,0.1 c-0.1,0.1-0.2,0.1-0.2,0.1c0,0.2-0.2,0.3-0.4,0.5c-0.2,0.2-0.4,0.3-0.7,0.5c-0.2,0.2-0.4,0.3-0.5,0.5c-0.1,0.2-0.2,0.4,0,0.6 c0.1,0.2,0.4,0.3,0.7,0.1c0,0,0.2-0.1,0.4-0.3c0.2-0.2,0.5-0.4,0.8-0.7c0.3-0.3,0.5-0.5,0.7-0.8C343,303.6,343,303.4,343,303.2z M343,307.2c-0.1,0-0.1,0-0.2,0c0,0,0,0-0.1,0l0,0c-0.1,0.1-0.2,0.1-0.2,0c0,0.1-0.1,0.1-0.2,0.2s-0.2,0.1-0.2,0.2l-0.2,0.2 c-0.2,0.1-0.3,0.2-0.4,0.3c-0.1,0.1-0.3,0.2-0.4,0.3l-0.1,0.1c0,0.1,0,0.1-0.1,0.1c0,0-0.1,0.1,0,0.1c0,0.1,0.1,0.1,0.2,0 c0.1-0.1,0.2-0.2,0.3-0.4c0.1-0.2,0.2-0.3,0.3-0.4c0.3-0.2,0.5-0.2,0.8-0.1c0.3,0.1,0.5,0.1,0.7,0c0.1-0.1,0.1-0.2,0-0.4 L343,307.2z M342.3,297.4c-0.1,0-0.2,0-0.4,0.1c-0.2,0.1-0.2,0.1-0.2,0.1l0,0.2c0.1,0.2,0.3,0.2,0.4,0.1c0.1,0,0.2-0.1,0.3-0.2 c0.1-0.1,0.1-0.2,0.1-0.3C342.5,297.4,342.4,297.4,342.3,297.4z M343.7,299.2c-0.1-0.1-0.2-0.1-0.3,0l-0.2,0.2l0,0 c0,0.4-0.1,0.6-0.4,0.8c-0.3,0.2-0.4,0.5-0.4,0.8c-0.1,0.1-0.2,0.2-0.3,0.3c-0.1,0.1-0.1,0.2-0.1,0.3c0.1,0.1,0.1,0.1,0.2,0.1 c0.1-0.2,0.3-0.3,0.4-0.4c0.2-0.1,0.2-0.2,0.2-0.4c0-0.4,0.1-0.7,0.3-1C343.2,299.7,343.5,299.5,343.7,299.2z M342.7,293.9 c0-0.1-0.1,0-0.3,0.1c-0.3,0.2-0.4,0.4-0.4,0.7c0,0,0.1,0,0.1,0c0,0,0.1,0,0.1,0c0.1-0.1,0.2-0.2,0.3-0.3 C342.6,294.1,342.7,294,342.7,293.9z M343.1,309.7c-0.1-0.1-0.2-0.1-0.3,0c-0.1,0.1-0.2,0.2-0.3,0.2c0,0.1,0,0.1,0,0.2 c0.1,0.1,0.1,0.1,0.2,0.1c0.1-0.1,0.2-0.2,0.3-0.2C343.1,309.9,343.2,309.9,343.1,309.7L343.1,309.7z M344.4,305.3 c-0.3,0.1-0.6,0.2-0.8,0.4c-0.3,0.2-0.5,0.4-0.6,0.6c0.2,0,0.5,0,0.7-0.1c0.2-0.1,0.4-0.2,0.6-0.3c0.1-0.1,0.2-0.1,0.3-0.2 c0.1-0.1,0.1-0.2,0.1-0.3l-0.1-0.1L344.4,305.3C344.4,305.3,344.4,305.3,344.4,305.3z M344.2,295.4L344.2,295.4 c-0.3,0.2-0.4,0.3-0.5,0.5c0.1,0,0.2,0,0.2,0c0.1,0,0.1-0.1,0.2-0.2C344.2,295.5,344.2,295.5,344.2,295.4L344.2,295.4z M345.2,307.2L345.2,307.2c-0.2,0.1-0.2,0.1-0.3,0.1s-0.1,0-0.2,0c0,0-0.1,0.1-0.2,0.2c-0.1,0.1-0.1,0.2-0.1,0.2 c0.1,0.2,0.2,0.2,0.3,0.1c0.1-0.1,0.3-0.2,0.4-0.3c0-0.1,0-0.2,0-0.2C345.3,307.3,345.2,307.3,345.2,307.2z M345.2,300.6 c-0.1,0-0.2,0-0.3,0c-0.1,0-0.1,0.1-0.2,0.2c-0.1,0.1-0.1,0.2-0.1,0.2c0,0.1,0.1,0.1,0.1,0.1c0.1,0,0.2,0,0.2,0c0,0,0,0,0.1-0.1 C345.2,300.9,345.2,300.8,345.2,300.6z M345.2,304.2c-0.1,0-0.2,0.1-0.4,0.2c0,0.1,0,0.2,0,0.2c0,0.1,0,0.1,0,0.2 c0.2,0,0.4,0,0.6-0.1c0.2-0.1,0.4-0.1,0.6-0.2c0.2-0.1,0.4-0.2,0.5-0.2c0.1-0.1,0.3-0.1,0.4-0.1c0-0.2,0.1-0.3,0.3-0.3 c0.1-0.1,0.2-0.2,0-0.4c-0.2-0.2-0.5-0.1-0.8,0.1l-0.6,0.4C345.4,304.1,345.3,304.1,345.2,304.2z M346,309.4 c-0.1-0.1-0.2-0.1-0.4,0s-0.3,0.2-0.2,0.4c0.1,0.1,0.2,0.1,0.5,0c0-0.1,0-0.1,0.1-0.2C346.1,309.6,346.1,309.5,346,309.4 L346,309.4z M348,307c-0.1-0.1-0.3-0.2-0.5,0c-0.3,0.2-0.5,0.4-0.7,0.8c-0.2,0.4-0.3,0.7-0.2,1c0.1-0.1,0.2-0.1,0.3-0.1 c0.1,0,0.2-0.1,0.4-0.2c0.4-0.2,0.6-0.5,0.7-0.7C348,307.4,348.1,307.2,348,307z M350.8,305.7c-0.1,0-0.1,0.1-0.2,0.1 c0,0-0.1,0-0.1,0c-0.1,0-0.1,0.1-0.2,0.2c-0.1,0.1-0.2,0.1-0.3,0.2l-0.1,0.1c0,0.1-0.1,0.2-0.1,0.3c-0.1,0.1-0.1,0.2,0,0.2 c0,0.1,0.1,0.1,0.2,0.1c0.1,0,0.2-0.1,0.3-0.1c0.2-0.1,0.3-0.3,0.5-0.5s0.3-0.3,0.2-0.4C351,305.8,350.9,305.8,350.8,305.7z M354.9,303.5c-0.1,0-0.1,0-0.3,0.1l-0.4,0.3l-0.1,0.1l0.1,0.1c0.1,0.1,0.2,0.1,0.3,0.1c0.1-0.1,0.3-0.1,0.4-0.1 c0.1-0.1,0.1-0.1,0.1-0.2l0.1,0l0-0.1L354.9,303.5L354.9,303.5z"></path> <path id="XMLID_185_" class="st0" d="M398.9,252.9c-0.1,0.3-0.2,0.7-0.2,1.1c0,0.4-0.1,0.8-0.2,1.1l0.1,0.2c0.1,0.5,0,0.8-0.2,1.1 s-0.3,0.7-0.2,1.1c0.1,0.3,0,0.5-0.2,0.7c-0.2,0.1-0.3,0.4-0.2,0.6l0.1,0.3c0.1,0.3,0.1,0.6-0.1,0.9c-0.1,0.3-0.2,0.5-0.1,0.9 c0,0.4-0.1,0.8-0.3,1.2c-0.2,0.3-0.3,0.7-0.4,1.1c0.2,0.7,0.1,1.3-0.1,1.8c-0.2,0.5-0.4,1.1-0.5,1.7c0.1,0.1,0.1,0.3,0.2,0.4 c0.1,0.5,0,1-0.2,1.5c-0.3,0.5-0.4,1-0.4,1.5c0.1,0.3,0.1,0.6-0.1,0.9c-0.1,0.3-0.2,0.5-0.3,0.8c0,0.4,0,0.8,0.1,1.1 c0,0.4-0.1,0.7-0.3,0.9c-0.1,0.3-0.2,0.7-0.1,1.2s-0.1,0.8-0.3,1.1c0,0.4-0.1,0.8-0.2,1.2c-0.1,0.4-0.1,0.8-0.1,1.2 c0,0.4-0.1,0.7-0.2,1s-0.3,0.6-0.3,0.9c0,0.1,0.1,0.2,0.1,0.4s0.1,0.2,0.1,0.4c0.1,0.4,0,0.9-0.3,1.3s-0.4,1-0.4,1.5 c0,0.6-0.1,1.1-0.3,1.6c-0.2,0.5-0.3,1-0.3,1.6c0.1,0.5,0,0.8-0.2,1.1c-0.2,0.3-0.2,0.7-0.1,1.1c0.1,0.3,0,0.5-0.2,0.7 c-0.2,0.1-0.2,0.4-0.2,0.7c0,0.1,0,0.3,0,0.4c0.1,0.2,0.1,0.3,0,0.5c0,0.2-0.1,0.3-0.2,0.4c-0.1,0.1-0.2,0.2-0.2,0.4 c0,0.3,0,0.7,0.1,1c0.1,0.4,0,0.7-0.1,1c0,0.4-0.2,0.9-0.5,1.4c-0.4,0.5-0.7,0.9-1,1.2l-1.1,0.3c-0.2,0-0.4,0.1-0.5,0.1 c-0.2,0-0.3,0.1-0.5,0.1c-0.2,0.1-0.4,0.2-0.6,0.2c-0.2,0.1-0.5,0.1-0.7,0.2c-0.4,0.1-0.7,0.1-1,0.1c-0.3-0.1-0.6,0-0.9,0 c-0.3,0.1-0.6,0.2-0.9,0.3c-0.3,0.1-0.6,0.2-0.9,0.3c-0.4,0.1-0.7,0.1-1,0.1s-0.6-0.3-0.9-0.6c-0.3-0.6-0.8-1.2-1.4-1.7 c-0.6-0.6-1.1-1.2-1.4-2.1c-0.3-0.2-0.4-0.5-0.5-0.9c-0.1-0.4-0.3-0.6-0.7-0.7c-0.2-0.2-0.3-0.4-0.4-0.7c0-0.2-0.1-0.5-0.3-0.6 c-0.6-0.8-1.1-1.6-1.6-2.4c-0.5-0.8-1-1.4-1.5-1.9c-0.1-0.2-0.3-0.4-0.5-0.5c-0.2-0.1-0.4-0.4-0.4-0.7l-0.1-0.2 c-0.3-0.5-0.7-0.9-1.1-1.4s-0.8-0.9-1.1-1.3l0-0.2c-0.1-0.4-0.2-0.7-0.4-1c-0.2-0.3-0.4-0.5-0.6-0.7s-0.4-0.4-0.6-0.6 s-0.3-0.4-0.3-0.5c-0.1-0.3-0.3-0.5-0.5-0.8c-0.2-0.2-0.3-0.5-0.4-0.8c-0.3-0.4-0.6-0.7-0.9-0.9c-0.3-0.2-0.6-0.6-0.7-1.1 l-0.1-0.3c-0.4-0.2-0.6-0.5-0.9-1c-0.2-0.5-0.5-0.8-0.8-1.1c-0.4-0.4-0.8-0.8-1.1-1.2c-0.3-0.4-0.6-0.9-0.8-1.6 c-0.2-0.3-0.4-0.5-0.7-0.7c-0.3-0.2-0.5-0.5-0.7-0.9c-0.3-0.5-0.6-0.9-1-1.2c-0.3-0.3-0.6-0.7-0.8-1.1c-0.3-0.6-0.7-1-1.1-1.3 c-0.5-0.3-0.8-0.8-1-1.4c-0.1-0.3-0.3-0.5-0.6-0.8c-0.2-0.2-0.4-0.5-0.5-0.8c0-0.2,0-0.4,0.1-0.6c0.1-0.2,0.1-0.4,0.1-0.6l0-0.1 c0.1-0.2,0.2-0.4,0.5-0.5c0.2-0.1,0.5-0.2,0.8-0.3c0.2,0,0.3-0.1,0.5-0.1c0.1,0,0.3,0,0.4-0.1c0.7-0.2,1.4-0.3,2.1-0.5 c0.7-0.2,1.4-0.4,2.1-0.5c0.8-0.2,1.5-0.3,2.2-0.5c0.7-0.1,1.4-0.3,2.1-0.5c0.2,0,0.5,0.1,0.9,0.4c0.4,0.3,0.8,0.6,1.2,0.8 c0,0,0,0.1,0,0.1c0,0,0,0.1,0,0.1c0.1,0.5,0.4,0.9,0.7,1.1c0.4,0.2,0.6,0.7,0.8,1.3c0.4,0.5,0.8,0.9,1.1,1.4s0.6,1,0.9,1.6 c0.2,0.2,0.4,0.4,0.5,0.6c0.1,0.2,0.3,0.4,0.4,0.7c0.2,0.3,0.4,0.5,0.6,0.8c0.2,0.2,0.4,0.6,0.5,1l0.1,0.5 c0.2,0.4,0.4,0.7,0.8,0.9c0.3,0.2,0.6,0.6,0.7,1.1l0,0.2c0.2,0.4,0.4,0.7,0.7,1.1c0.2,0.3,0.5,0.6,0.8,0.9 c0.3,0.4,0.5,0.9,0.6,1.4c0.1,0.5,0.4,0.9,0.9,1.1c0.1,0.2,0.3,0.4,0.4,0.6c0.1,0.1,0.2,0.3,0.3,0.6c0.1,0.5,0.4,0.9,0.8,1.1 c0.1,0.2,0.3,0.5,0.4,0.8s0.3,0.5,0.5,0.6c0.1,0.1,0.2,0.3,0.2,0.4s0.1,0.2,0.2,0.4c0,0.2,0,0.3-0.2,0.4c-0.2,0.1-0.3,0.1-0.5,0.2 c-0.2,0-0.4,0.1-0.6,0.2s-0.2,0.2-0.2,0.4c0,0.1,0.2,0.1,0.4,0.2c0.2,0,0.5,0,0.7,0c0.1,0,0.4-0.2,0.8-0.4 c0.4-0.2,0.7-0.5,0.8-0.6c0.1-0.7,0.2-1.3,0.3-1.9c0.1-0.6,0.2-1.3,0.2-2c0-0.2,0-0.5,0.1-0.6s0.1-0.4,0-0.6l0-0.2 c-0.1-0.3-0.1-0.6,0-0.8c0.1-0.2,0.1-0.5,0.1-0.8c-0.1-0.5,0-0.9,0.2-1.2s0.2-0.7,0.1-1.2l-0.1-0.2c0-0.4,0-0.8,0.1-1.1 c0.1-0.3,0.1-0.7,0.1-1.2c0-0.2,0-0.4,0-0.6c0-0.3,0-0.5,0-0.8c0-0.3,0-0.5,0.1-0.7c0-0.2,0.1-0.4,0.2-0.5 c0.1-0.1,0.1-0.2,0.1-0.4c0-0.2,0-0.3-0.1-0.5c0-0.2-0.1-0.3-0.1-0.5c0-0.2,0.1-0.3,0.1-0.4c0.1-0.2,0.1-0.5,0-0.9 c-0.1-0.4-0.1-0.6,0.1-0.8c0.1-0.2,0.2-0.5,0.1-0.8c-0.1-0.3-0.1-0.5,0-0.8c0-0.4,0-0.8,0.2-1.2c0.1-0.3,0.2-0.7,0.1-1.1 c0.2-0.3,0.2-0.7,0.1-1c-0.1-0.4-0.1-0.7,0-1.1c0.2-0.3,0.3-0.7,0.3-1.2c0-0.5,0.2-0.8,0.6-1.1c0.1-0.2,0.3-0.3,0.6-0.5 c0.3-0.2,0.4-0.2,0.3-0.2c0.3-0.1,0.6-0.1,1-0.1c0.4,0,0.8-0.1,1.2-0.2c1.2-0.3,2.4-0.6,3.7-1c1.2-0.4,2.5-0.7,3.7-1 c0.1,0,0.3,0,0.5,0c0.2,0,0.5,0.1,0.7,0.2c0.2,0.1,0.5,0.2,0.6,0.4c0.2,0.2,0.3,0.3,0.4,0.5C398.9,252.6,398.9,252.8,398.9,252.9z M366.2,268.4l0-0.1c0,0-0.1,0-0.1,0l-0.2,0l-0.1,0l0,0.1c0,0.1,0.1,0.1,0.2,0.1C366,268.4,366.1,268.4,366.2,268.4z M369.7,270.9 c-0.1,0-0.2,0-0.4,0c-0.2,0-0.4,0.1-0.6,0.2c-0.2,0.1-0.3,0.2-0.3,0.3c0,0.1,0.1,0.2,0.2,0.1c0.2,0,0.4-0.1,0.8-0.2 c0.3-0.1,0.5-0.2,0.4-0.4L369.7,270.9z M372.5,274.7c-0.2-0.1-0.4-0.2-0.6-0.1c-0.2,0-0.2,0.1-0.2,0.2c0,0.1,0.1,0.2,0.2,0.1 l0.1,0l0.3-0.1C372.4,274.8,372.4,274.8,372.5,274.7z M372.7,270.6c-0.1-0.1-0.1-0.1-0.3-0.1l0,0.1c0,0.1,0.1,0.1,0.1,0.1 C372.6,270.7,372.7,270.7,372.7,270.6z M380,285.2c0-0.1-0.1-0.1-0.3-0.1c-0.3,0.1-0.4,0.1-0.4,0.2c0,0,0,0.1,0.1,0.1 c0.1,0,0.1,0,0.1,0.1l0,0.1l0.1,0l0.3-0.1C380,285.4,380.1,285.3,380,285.2z M382,283.2c-0.2-0.1-0.6-0.2-1-0.1 c-0.1,0-0.2,0-0.3,0.1c-0.1,0-0.2,0.1-0.3,0.1c-0.2,0-0.3,0.1-0.4,0l0,0.1c0,0.2,0.2,0.2,0.4,0.3c0.2,0,0.4,0,0.6,0 c0.3-0.1,0.5-0.2,0.5-0.2C381.7,283.4,381.8,283.3,382,283.2z M381.2,286.3L381.2,286.3L381.2,286.3c-0.1,0-0.1,0-0.1-0.1 c0,0,0,0-0.1,0C381.1,286.3,381.1,286.4,381.2,286.3C381.2,286.4,381.2,286.3,381.2,286.3z M384.5,285.1c-0.4,0-0.7-0.1-0.9-0.3 c-0.3-0.2-0.6-0.3-0.9-0.2c-0.1,0-0.2,0.1-0.2,0.1c-0.1,0.1-0.2,0.1-0.2,0.1l-0.1,0c-0.1,0.1-0.2,0.3-0.1,0.5 c0,0.1,0.2,0.2,0.5,0.2s0.6,0,1,0.1c0.4,0,0.7,0,1.1,0c0.3,0,0.6,0.1,0.7,0.2c0.1,0,0.3,0,0.4,0s0.3-0.1,0.4,0 c0.1-0.1,0.2-0.2,0.3-0.2c0.2,0,0.2-0.1,0.2-0.2c-0.1-0.3-0.3-0.4-0.8-0.3C385.2,285.1,384.8,285.1,384.5,285.1z M384.6,288.1 c-0.2,0-0.4,0-0.5,0c-0.3,0.1-0.6,0.2-0.8,0.5c-0.2,0.3-0.3,0.4-0.3,0.6c0,0.1,0.1,0.2,0.2,0.2C384,289.1,384.5,288.7,384.6,288.1 z M385.5,281.3c-0.3-0.2-0.5-0.3-0.9-0.4c-0.3,0-0.5-0.1-0.5-0.2c-0.1,0.1-0.3,0.2-0.5,0.2c-0.2,0-0.3,0.1-0.3,0.2 c0.1,0.3,0.2,0.4,0.5,0.5c0.3,0.1,0.5,0.1,0.8,0c0.3,0,0.5-0.1,0.8-0.1c0.2-0.1,0.3,0,0.4,0l0.1,0c0.1,0,0.1,0,0.2,0 c0.1,0,0.1,0,0.2,0c0.1,0,0.1-0.1,0.1-0.1c0,0,0-0.1-0.1-0.2c0,0-0.1,0,0,0c0,0,0,0,0,0c-0.1,0-0.2,0-0.2,0c-0.1,0-0.2,0-0.2,0 C385.6,281.2,385.6,281.2,385.5,281.3C385.6,281.3,385.6,281.3,385.5,281.3z M384.7,282.9c0,0-0.1,0-0.4,0c-0.1,0-0.2,0-0.4,0 c0,0-0.1,0-0.1,0.1c0,0-0.1,0.1-0.2,0.1c0,0-0.1,0-0.1,0l0,0.1c0,0.1,0,0.1,0,0.1c0,0,0,0.1,0,0.1c0,0.2,0.2,0.3,0.5,0.3 c0.3,0,0.5,0,0.7-0.1l0.2,0c0,0,0.1,0,0.2,0.1l0.1,0l0.3-0.1c0.2,0,0.3-0.1,0.2-0.3c-0.1-0.2-0.3-0.3-0.5-0.4 C385.2,283,385,282.9,384.7,282.9z M387,288.7c-0.2,0-0.4,0-0.6,0c-0.5,0.1-0.9,0.4-1.2,0.9c0.1,0.1,0.2,0.1,0.3,0.2 c0.2,0,0.3,0,0.5,0c0.1,0,0.1,0,0.2-0.1c0,0,0.1-0.1,0.2-0.1l0.1,0c0.2-0.1,0.3-0.3,0.4-0.4C387,289.1,387,288.9,387,288.7z M386.8,286.7c0,0-0.1,0-0.1,0.1c0,0-0.1,0-0.1,0.1c0,0-0.1,0-0.1-0.1c-0.2,0.1-0.4,0.2-0.6,0.3s-0.3,0.2-0.3,0.4c0,0,0.1,0,0.1,0 l0.2,0c0.1,0,0.2,0,0.2,0.1c0.1,0,0.2-0.1,0.4-0.3c0.2-0.2,0.3-0.3,0.3-0.4L386.8,286.7z M387.1,291.6l0-0.1 c0-0.1-0.1-0.1-0.1-0.1c-0.1,0-0.2,0-0.3-0.1c-0.1,0.1-0.1,0.1-0.2,0.2c-0.1,0-0.1,0.1-0.1,0.1c0,0,0,0.1,0,0.1s0,0,0,0.1l0.1,0 l0.4-0.1C387,291.6,387.1,291.6,387.1,291.6z M387.1,273.3L387.1,273.3C387.1,273.2,387,273.2,387.1,273.3l-0.3,0l-0.1,0 c0,0.1,0.1,0.1,0.1,0.1L387.1,273.3L387.1,273.3z M387.2,279.9c0-0.1-0.1-0.2-0.2-0.1l0,0.1C387,279.9,387.1,280,387.2,279.9 C387.2,279.9,387.2,279.9,387.2,279.9z M389.2,277.4c-0.2,0-0.3,0-0.5,0c-0.4,0.1-0.7,0.2-0.9,0.4c-0.2,0.2-0.3,0.3-0.2,0.3 c0,0.1,0.1,0.2,0.1,0.2c0.1,0,0.1,0.1,0.2,0.1c0.3-0.1,0.6-0.2,0.9-0.4c0.3-0.2,0.4-0.4,0.4-0.5L389.2,277.4z M390,273.9 L390,273.9c0-0.2-0.1-0.2-0.3-0.2c-0.2,0-0.2,0.1-0.2,0.2c0,0.1,0.1,0.1,0.3,0.1C389.9,274.1,390,274,390,273.9z M392.2,272.4 L392.2,272.4L392.2,272.4c-0.3,0-0.4,0.1-0.6,0.2s-0.3,0.3-0.2,0.4c0,0.1,0.1,0.2,0.2,0.1c0.1,0,0.1,0,0.2-0.1 c0.1,0,0.1-0.1,0.2-0.1l0.2,0c0.1-0.1,0.1-0.3,0.1-0.4L392.2,272.4z M392.2,265.1c-0.1-0.1-0.2-0.1-0.3-0.1 c-0.1,0-0.2,0.1-0.2,0.1c-0.1,0.1-0.1,0.2-0.1,0.2c0.1-0.1,0.2-0.1,0.3-0.1C392.1,265.3,392.2,265.2,392.2,265.1z M392.6,268.6 c-0.1-0.1-0.2-0.1-0.3-0.1c-0.1,0-0.1,0-0.1,0.1c0,0,0,0-0.1,0c-0.1,0-0.1,0-0.2,0c-0.1,0.1-0.1,0.2-0.1,0.2c0,0,0.1,0.1,0.2,0 s0.2,0,0.3-0.1C392.5,268.7,392.6,268.7,392.6,268.6z"></path> <path id="XMLID_208_" class="st0" d="M420.9,251.8c0.5,0.1,1,0.1,1.6,0.1c0.5,0,1.1,0.1,1.6,0.1c1,0.1,1.9,0.3,2.6,0.5 c0,0,0,0.1,0.1,0.1l0.2,0l0.1,0c0.1-0.1,0.3-0.1,0.7-0.1c0.3,0,0.6,0.1,0.7,0.1c0.3,0,0.5,0.1,0.8,0.1c0.2,0.1,0.4,0.2,0.6,0.4 c0.2-0.1,0.4-0.1,0.6-0.1c0.2,0,0.4,0,0.6,0.1c0.2,0,0.4,0,0.5,0.1c0.1,0,0.3,0.1,0.5,0.1c0.1,0,0.2,0,0.3,0c0.1,0,0.2,0,0.3,0 c0.5,0,0.9,0.2,1.2,0.4c0.3,0.2,0.8,0.3,1.2,0.4c0.3,0,0.5,0,0.6,0c0.2,0,0.3,0.1,0.3,0.1c0.1,0.1,0.2,0.1,0.3,0.1l0.3,0 c0.5,0,0.9,0.2,1.2,0.3c0.4,0.2,0.7,0.4,1,0.6c0.3,0.2,0.6,0.4,0.9,0.6c0.3,0.2,0.6,0.3,1,0.4c0.1,0.1,0.2,0.2,0.4,0.4 c0.1,0.1,0.2,0.3,0.3,0.4c0.3,0.1,0.6,0.3,0.8,0.5c0.2,0.2,0.4,0.4,0.5,0.6c0.2,0.2,0.3,0.5,0.4,0.7c0.1,0.2,0.4,0.4,0.7,0.6 c0.1,0.1,0.2,0.3,0.2,0.5c0,0.2,0,0.4,0.1,0.6c0,0.2,0.1,0.3,0.2,0.5c0.1,0.2,0.2,0.3,0.4,0.4c0.2,0.3,0.2,0.6,0.1,1s0,0.7,0.2,1 c0,0.1-0.1,0.2-0.1,0.4c0,0.3,0,0.5,0.1,0.7c0.1,0.2,0.1,0.5,0.1,0.7c0,0.1,0,0.2-0.1,0.3c0,0.1,0,0.2-0.1,0.3c0,0.2,0,0.4,0,0.5 c0,0.2,0,0.3,0,0.5c0,0.2-0.1,0.4-0.2,0.5c-0.1,0.1-0.2,0.3-0.2,0.6c0,0.1,0,0.1,0,0.2c0,0,0,0.1,0,0.2c0,0.2-0.1,0.3-0.2,0.4 c-0.1,0.1-0.1,0.2-0.1,0.3c0,0.3-0.1,0.5-0.3,0.7c-0.2,0.2-0.3,0.3-0.5,0.5c-0.2,0.2-0.3,0.3-0.5,0.5c-0.2,0.2-0.2,0.4-0.3,0.7 c-0.2,0.1-0.3,0.2-0.3,0.3c-0.1,0.2-0.1,0.3-0.2,0.4c-0.4,0.1-0.8,0.3-1.5,0.6c-0.6,0.3-0.9,0.6-1,1c0,0.3,0.1,0.6,0.3,0.8 c0.2,0.2,0.5,0.3,0.8,0.5c0.3,0.1,0.6,0.3,0.9,0.4s0.5,0.4,0.5,0.7c0.1,0.1,0.3,0.3,0.5,0.5c0.2,0.2,0.3,0.5,0.5,0.7 c0.2,0.2,0.4,0.4,0.5,0.6c0.1,0.2,0.2,0.3,0.3,0.3c0.2,0.3,0.2,0.6,0.2,1c0,0.4,0.1,0.6,0.4,0.7c0.1,0.2,0.1,0.5,0.1,0.8 c0,0.3,0,0.5,0.1,0.7c0.2,0.3,0.2,0.6,0.2,1c0,0.4,0,0.8,0,1.1c0,0.1-0.1,0.2-0.1,0.3c0,0.2,0,0.4,0,0.6c0.1,0.2,0.1,0.5,0,0.8 c-0.1,0.7-0.2,1.3-0.5,1.9c-0.3,0.6-0.4,1.2-0.5,1.9c-0.1,0.4-0.3,0.7-0.6,1c-0.3,0.2-0.4,0.6-0.5,1l0,0.2 c-0.2,0.3-0.4,0.5-0.7,0.7c-0.3,0.2-0.5,0.4-0.7,0.7c-0.2,0.1-0.3,0.3-0.5,0.5c-0.2,0.2-0.4,0.3-0.7,0.4c-0.6,0.5-1.3,1-2.2,1.4 s-1.8,0.8-2.7,0.8c-0.2,0.1-0.4,0.1-0.7,0.1c-0.3,0-0.6,0.1-0.9,0.1c-0.3,0-0.6,0.1-0.8,0.1s-0.3,0-0.4,0l-0.7-0.1 c-0.2,0-0.4,0-0.6,0.1c-0.1,0.1-0.3,0.1-0.5,0.1c-0.2,0-0.4-0.1-0.6-0.1s-0.4-0.1-0.6-0.1c-0.5-0.1-0.9,0-1.1,0.2l-0.5-0.1 l-0.9-0.1c-0.5,0-0.8-0.1-1.1-0.3c-0.3-0.1-0.6-0.2-1-0.3c-0.3,0-0.6,0.1-0.8,0c-0.2,0-0.3,0-0.4-0.1c-0.1,0-0.3-0.1-0.4-0.1 c-0.3,0-0.5,0-0.7,0c-0.2,0.1-0.4,0.1-0.6,0.1c-0.3,0-0.7-0.1-1-0.3c-0.4-0.2-0.7-0.3-1-0.3l-0.2,0l-0.1,0c-0.3,0-0.5,0-0.8,0 c-0.3,0-0.5,0-0.7,0c-0.6-0.1-1.2-0.2-1.8-0.3c-0.6-0.1-1.1-0.2-1.7-0.3c-0.2,0-0.4,0-0.5,0c-0.2,0-0.3,0-0.5,0l-0.6-0.1 c-0.3,0-0.6-0.1-0.9-0.1c-0.3,0-0.5,0-0.8-0.1c-0.3,0-0.6-0.1-0.8-0.3c-0.2-0.2-0.3-0.4-0.5-0.6c-0.1-0.2-0.2-0.4-0.3-0.6 c-0.1-0.2-0.1-0.3-0.1-0.3c0-0.2,0.1-0.4,0.2-0.5c0.1-0.1,0.1-0.2,0.2-0.4c0-0.2,0-0.4,0-0.7c0-0.3-0.1-0.4-0.3-0.5 c0.1-0.2,0.1-0.5,0.1-0.8c0-0.3,0.1-0.6,0.1-0.9l0.1-0.6c0-0.1,0.1-0.3,0.1-0.5c0-0.3,0-0.6,0-0.9c0-0.3,0-0.5,0-0.8 c0-0.2,0.1-0.4,0.2-0.5c0.1-0.1,0.1-0.3,0.2-0.4c0-0.1,0-0.2-0.1-0.3c-0.1-0.1-0.1-0.3-0.1-0.4c0-0.3,0.1-0.5,0.2-0.8 c0.1-0.2,0.2-0.5,0.2-0.8c0-0.2,0-0.4-0.1-0.5c-0.1-0.2-0.1-0.3-0.1-0.5c0-0.3,0.1-0.7,0.3-1c0-0.3,0-0.5,0-0.8c0-0.3,0-0.5,0-0.8 c0-0.2,0.1-0.4,0.1-0.6c0.1-0.2,0.1-0.4,0.1-0.6c0-0.3,0-0.5,0-0.7c0-0.2,0-0.5,0-0.7l0-0.2c-0.2-0.2-0.2-0.6-0.2-1.1 s0.2-0.9,0.3-1.2c0.1-0.5,0.2-0.9,0.3-1.4c0.1-0.5,0.1-1,0.2-1.5l0.2-1.7c0-0.4,0.1-0.9,0.1-1.3c0-0.4,0.1-0.9,0.3-1.3 c-0.1-0.2-0.1-0.5,0-0.7c0-0.1,0-0.2,0.1-0.3c0-0.1,0.1-0.2,0.1-0.3c0-0.4,0-0.8-0.1-1.1c-0.1-0.3-0.1-0.7,0-1.2 c0.1-0.5,0.2-0.9,0.3-1.2s0.3-0.6,0.3-1c0-0.3,0-0.6-0.1-0.8c0.1-0.4,0.1-0.8,0.2-1.3c0-0.4,0.1-0.9,0.1-1.3l0.1-1 c0,0,0-0.1,0-0.1c0,0,0-0.1,0-0.1c0,0,0-0.1,0-0.1c0,0,0-0.1,0-0.1c0-0.1,0.1-0.1,0.1-0.2c0-0.2,0-0.3-0.1-0.4c0-0.1,0-0.3,0-0.5 c0-0.5,0.1-1,0.3-1.6c0.1-0.6,0.3-1.1,0.6-1.4c0.4-0.2,0.9-0.3,1.4-0.3c0.5,0,1,0,1.7,0.1c0.1,0,0.2,0,0.4,0c0.1,0,0.3,0,0.4,0 c0.4,0,0.7,0.1,1.1,0.2c0.3,0.1,0.7,0.2,1.1,0.2C420.6,251.8,420.8,251.8,420.9,251.8z M413.3,287.9c-0.1-0.1-0.1-0.1-0.2-0.1 c-0.1,0-0.1,0-0.1,0.1c0.1,0.1,0.1,0.1,0.2,0.1L413.3,287.9z M416.2,283.9c-0.2-0.1-0.3-0.1-0.4-0.2c-0.1,0-0.2-0.1-0.3-0.1 c-0.2,0-0.3,0-0.4,0.1l-0.1,0c-0.1,0-0.1,0-0.1,0c0,0,0,0.1,0,0.1c0,0,0,0.1,0,0.1l0,0.1l0.2,0c0.1,0,0.1,0,0.1,0.1 c0.2-0.1,0.3-0.1,0.6-0.1C416,284.1,416.1,284.1,416.2,283.9z M415.8,280.5c-0.1-0.1-0.3-0.1-0.6-0.2c-0.1,0.1-0.1,0.1-0.1,0.2 c0,0.1,0,0.2,0.1,0.2l0.1,0l0.3,0c0.1,0,0.2,0,0.2-0.1L415.8,280.5z M417,288c-0.1-0.1-0.3-0.2-0.5-0.4c-0.2-0.2-0.3-0.3-0.3-0.3 c0,0-0.1,0-0.2,0l-0.2,0c-0.1,0-0.1,0-0.2,0c0,0.3,0.1,0.5,0.3,0.6c0.2,0.1,0.4,0.2,0.5,0.2C416.7,288.3,416.9,288.2,417,288z M418.2,279.9c0-0.1,0-0.2-0.2-0.2c-0.1,0-0.2,0-0.3-0.1l-0.1,0.1c0,0.1,0,0.2,0.1,0.2c0.1,0.1,0.1,0.1,0.1,0.1 c0.1,0,0.2,0,0.2-0.1C418.1,280,418.2,279.9,418.2,279.9z M418.7,286.7c0-0.1-0.1-0.2-0.4-0.2c-0.1,0-0.2,0-0.2,0.1l0,0.1 c0,0.1,0,0.1,0.1,0.1c0.1,0,0.2,0,0.3,0C418.6,286.8,418.7,286.8,418.7,286.7z M418.6,277.9l-0.2,0c-0.1,0-0.2,0-0.2,0.1l0.2,0 C418.5,278,418.5,278,418.6,277.9z M418.9,288.9c0,0,0.1-0.1,0.1-0.1l0-0.1c0-0.1-0.1-0.2-0.3-0.2c-0.1,0-0.2,0-0.3,0 c-0.1,0-0.2,0-0.2,0c0,0.2,0,0.3,0.1,0.4c0.1,0,0.2,0,0.3,0S418.9,289,418.9,288.9z M419.3,269.8c0-0.2-0.1-0.2-0.4-0.3 s-0.4,0-0.4,0.2c0,0.2,0,0.3,0.2,0.3c0.1,0,0.2,0.1,0.3,0.2c0.1,0,0.2,0,0.2,0l0.1,0c0.1,0,0.1,0,0.1,0c0-0.1,0-0.1,0-0.2 C419.3,270,419.3,269.9,419.3,269.8z M420.6,282.2c-0.3-0.1-0.6-0.2-1-0.3c-0.3-0.1-0.6-0.2-0.8-0.2c-0.1,0-0.1,0-0.2,0 c-0.1,0-0.1,0-0.2,0c0,0.2,0.1,0.4,0.3,0.5c0.2,0.1,0.5,0.3,0.8,0.4c0.3,0.1,0.7,0.2,1.2,0.2c0.2,0,0.3,0,0.4-0.1l0.1,0 c0.1,0,0.1,0,0.1-0.2C421.3,282.4,421,282.2,420.6,282.2z M420,271.5c-0.1-0.1-0.1-0.2-0.2-0.2l-0.1,0l0,0.1l-0.1,0.1l-0.1,0.1 c0,0,0,0.1,0.1,0.1l-0.1,0.1c0,0,0.1,0.1,0.2,0.1c0.1,0,0.2-0.1,0.2-0.2L420,271.5z M420.6,285.4l-0.1-0.1c-0.1,0-0.1,0-0.2,0.1 c0,0.1-0.1,0.1-0.2,0.1c0,0-0.1,0-0.1,0c0,0,0,0-0.1,0c0,0.1,0,0.1-0.1,0.2c-0.1,0-0.1,0.1-0.1,0.3c0.1,0.1,0.3,0.1,0.4,0.2 c0.1-0.1,0.2-0.1,0.3-0.2c0.1-0.1,0.2-0.2,0.2-0.4l-0.1,0C420.6,285.5,420.6,285.4,420.6,285.4z M420.6,273.8 c-0.1-0.2-0.2-0.3-0.3-0.3c0,0-0.1,0-0.2,0c-0.1,0-0.1,0-0.1,0.1c0,0.1,0,0.1,0.1,0.2c0.1,0,0.1,0.1,0.1,0.1c0.1,0,0.2,0,0.3,0 C420.5,273.9,420.6,273.9,420.6,273.8z M420.4,268.3l0-0.1c0-0.1,0-0.1-0.1-0.1c-0.2,0-0.2,0-0.2,0.1c0,0.1,0,0.2,0.2,0.2 C420.3,268.4,420.4,268.4,420.4,268.3z M420.5,292.6c0-0.1-0.1-0.2-0.3-0.2c-0.1,0-0.1,0-0.1,0.1c0,0.1,0.1,0.2,0.3,0.2 C420.5,292.7,420.5,292.6,420.5,292.6L420.5,292.6z M421.9,287.9c-0.1-0.1-0.3-0.2-0.5-0.2c-0.2,0-0.3,0-0.5,0.1 c0,0.2,0.1,0.4,0.3,0.4C421.4,288.1,421.6,288,421.9,287.9z M422,272.5c-0.1,0-0.2-0.1-0.3-0.2c-0.1-0.1-0.2-0.1-0.3-0.1l-0.2,0.1 c-0.1,0.1-0.2,0.2-0.2,0.3c0,0.2,0.1,0.2,0.2,0.3c0.1,0,0.1,0,0.2,0c0.1,0,0.1,0,0.2,0l0.1,0c0-0.1,0.1-0.1,0.2-0.1 C421.9,272.7,421.9,272.6,422,272.5L422,272.5z M422,257.9c0-0.1,0-0.2,0-0.2c0,0-0.1,0-0.2,0c-0.3,0-0.6,0.1-0.6,0.3 c0,0.1,0.1,0.2,0.2,0.2c0.1,0,0.2,0,0.2-0.1C421.7,258,421.8,257.9,422,257.9z M422.2,267.8l0.1-0.1c0-0.1-0.1-0.1-0.2-0.1 c-0.1,0-0.2,0-0.3,0c-0.1,0-0.2,0-0.2,0.2c0,0.1,0,0.2,0.1,0.2l0.1,0l0.3,0C422.2,267.9,422.2,267.9,422.2,267.8z M422.8,285.9 c-0.1-0.1-0.1-0.2-0.2-0.2c-0.1,0-0.2-0.1-0.3-0.1l-0.1,0l-0.1,0.1c0,0.1,0,0.2,0.2,0.2l0.1,0c0.1,0,0.2,0.1,0.2,0.1 C422.6,286,422.7,286,422.8,285.9z M425.6,277.9l-0.2,0c-0.3,0-0.6,0-0.9,0.1c-0.3,0.1-0.5,0.1-0.9,0.1c-0.4,0-0.6,0.3-0.6,0.7 c0,0.4-0.1,0.8-0.2,1.1c-0.1,0.1-0.2,0.2-0.2,0.3c0,0.2,0,0.3,0.1,0.5c0.1,0.2,0.1,0.3,0.1,0.5c-0.1,0.1-0.2,0.4-0.2,0.6 s-0.1,0.6-0.2,0.8c-0.1,0.3-0.1,0.5-0.1,0.7c0,0.2,0,0.3,0,0.2c0,0.3,0,0.7,0.2,1c0.2,0.3,0.3,0.7,0.4,1c0.1,0.2,0.3,0.4,0.5,0.5 c0.2,0.1,0.5,0.2,0.8,0.2c1,0.1,1.8,0.1,2.5-0.1s1.3-0.2,2-0.1l0.3,0c0.1,0,0.3,0,0.5,0c0.2,0,0.4,0,0.5-0.1c0.3,0,0.7-0.1,1-0.4 c0.3-0.2,0.6-0.5,0.9-0.9c0.3-0.3,0.5-0.7,0.6-1.1c0.2-0.4,0.3-0.7,0.3-1c0-0.5,0-0.8-0.1-1.1c-0.1-0.3-0.2-0.5-0.4-0.7 c-0.2-0.2-0.3-0.4-0.5-0.6c-0.2-0.2-0.3-0.5-0.3-0.8c0.1-0.1,0.2-0.2,0.3-0.2c0.1,0,0.2-0.1,0.2-0.1c-0.1-0.2-0.3-0.3-0.5-0.3 c-0.3,0-0.5,0-0.8,0.1c-0.3,0.1-0.5,0.1-0.7,0.1c-0.7-0.1-1.3-0.2-1.9-0.4s-1.2-0.4-1.9-0.4L425.6,277.9z M424.2,257.5 c-0.1-0.1-0.2-0.1-0.4-0.2c-0.2,0-0.4,0-0.6,0.1c-0.2,0.1-0.4,0.2-0.5,0.2c0,0.1,0,0.2,0.2,0.2c0.1,0.1,0.2,0.1,0.3,0.1 c0.2,0,0.4,0,0.6-0.1C424.1,258,424.2,257.8,424.2,257.5z M424.3,276.5c0-0.1,0-0.2-0.1-0.2c-0.1,0-0.2-0.1-0.2-0.2 c0,0-0.1,0-0.2,0l-0.3,0c-0.2,0-0.4,0-0.4,0.1c0.1,0.1,0.3,0.2,0.6,0.2C423.9,276.4,424.1,276.5,424.3,276.5z M429.5,262.4 c-0.2-0.1-0.4-0.2-0.6-0.3c-0.2-0.1-0.5-0.1-0.7-0.1c-0.2,0-0.4,0-0.5,0c-0.1,0-0.3,0-0.5,0c-0.3,0-0.5-0.1-0.6-0.1 c-0.1,0.1-0.2,0.1-0.4,0.1c-0.2-0.1-0.3,0-0.4,0.1l-0.1,0c-0.5-0.1-0.9,0.2-1.1,0.8c-0.2,0.6-0.4,1.1-0.4,1.7c0,0.2,0,0.3,0,0.4 c0,0.1,0.1,0.3,0,0.4c0,0.2-0.1,0.4-0.1,0.5c-0.1,0.1-0.1,0.3-0.1,0.5c0,0.2,0,0.5,0,0.7c0,0.2,0,0.5,0,0.7l0,0.3 c0,0.3,0.2,0.6,0.6,0.8c0.4,0.3,0.7,0.4,0.9,0.4c0.1,0,0.2,0,0.2,0c0.1,0,0.2,0,0.2,0c0.2,0,0.4,0.1,0.6,0.1 c0.2,0.1,0.4,0.1,0.6,0.1c0.2,0,0.4,0,0.6,0c0.2,0,0.4,0,0.6-0.1c0.6-0.1,1.2-0.2,1.7-0.2c0.6,0,1.1-0.2,1.5-0.5 c0.2-0.5,0.4-1,0.7-1.4c0.3-0.4,0.4-0.9,0.5-1.6c0-0.3-0.1-0.5-0.2-0.8c-0.2-0.2-0.3-0.5-0.2-0.8c0-0.2,0.1-0.3,0.2-0.3 c0.1,0,0.3-0.1,0.5-0.1s0.4,0,0.5-0.1c0.2,0,0.3-0.1,0.4-0.2c-0.1-0.2-0.3-0.3-0.7-0.4c-0.4,0-0.7,0-0.8,0.1 c-0.2,0.1-0.3,0.1-0.5,0.1c-0.5-0.1-1-0.2-1.3-0.5C430.3,262.7,429.9,262.5,429.5,262.4z M425.8,260.5c0-0.1-0.1-0.1-0.3-0.1 l-0.3,0l-0.1,0c0,0.1,0,0.1-0.1,0.1c-0.1,0-0.1,0-0.1,0.1c0,0,0,0.1,0.1,0.1c0,0,0.1,0,0,0.1l0.2,0l0.3,0c0.2,0,0.2,0,0.2-0.1 L425.8,260.5z M427.4,273.8c0,0,0-0.1,0-0.1c0,0,0-0.1,0-0.1c0-0.1-0.1-0.2-0.2-0.2c-0.1,0-0.1,0-0.2,0c-0.1,0-0.1,0-0.2,0 c-0.1,0-0.1,0-0.2-0.1c-0.1,0.2-0.1,0.2-0.2,0.2c-0.1,0-0.2,0.1-0.2,0.1c0,0.1,0,0.2,0.2,0.2s0.2,0,0.3,0 C427,274,427.2,273.9,427.4,273.8z M427.1,276c0-0.1-0.1-0.2-0.3-0.2c-0.2,0-0.3,0-0.3-0.1c-0.1,0.1-0.1,0.2-0.2,0.3l0.1,0 c0.1,0,0.1,0,0.2,0c0.1,0,0.1,0,0.2,0.1C427,276.2,427.1,276.2,427.1,276z M431.3,288.8c-0.2-0.1-0.4-0.2-0.4-0.3 c-0.1,0-0.1-0.1-0.2-0.2c-0.2,0-0.3,0-0.4,0c0,0.2,0,0.4,0.2,0.5c0.2,0.1,0.3,0.2,0.5,0.2c0,0,0.1,0,0.1,0L431.3,288.8 L431.3,288.8z M432.9,289.4c-0.1-0.2-0.3-0.3-0.4-0.3l-0.1,0c0,0.3,0.2,0.5,0.5,0.5c0,0,0.1,0,0.1-0.1L432.9,289.4z M433.1,258.9 L433.1,258.9c0-0.1,0-0.1,0-0.1l-0.2,0l-0.1,0l0,0.1c0,0,0,0.1,0.1,0.1L433.1,258.9L433.1,258.9z M433.8,286.9 c-0.1-0.1-0.3-0.2-0.5-0.2c-0.2,0-0.4,0-0.5,0.1c0.1,0.2,0.2,0.2,0.3,0.2s0.2,0,0.2,0.2l0.1,0l0.2,0c0.1,0,0.2,0,0.2-0.1 C433.9,287,433.9,287,433.8,286.9C433.8,287,433.8,286.9,433.8,286.9z M434.3,275.9c-0.1-0.1-0.1-0.2-0.2-0.2s-0.2-0.1-0.4-0.1 c0,0.2,0,0.3,0.1,0.4c0.1,0.1,0.2,0.2,0.3,0.3c0.1,0,0.2,0,0.2,0c0.1,0,0.2,0,0.2-0.1c-0.1,0-0.2-0.1-0.1-0.2 C434.5,276,434.5,276,434.3,275.9L434.3,275.9z M434.5,278.3c0,0,0.1-0.1,0.1-0.2c0-0.1,0-0.1-0.2-0.1c-0.1,0-0.2,0-0.3,0 c-0.1,0-0.2,0.1-0.2,0.2c0,0.1,0,0.2,0.1,0.2c0.1,0,0.2,0,0.3,0C434.3,278.4,434.4,278.4,434.5,278.3z M435.4,267L435.4,267 c0-0.2,0-0.2-0.1-0.2s-0.2,0-0.3,0c-0.4,0.2-0.7,0.5-1,0.8c0.3,0,0.5-0.1,0.7-0.2C434.9,267.2,435.1,267.1,435.4,267z M436.2,283.1c-0.1-0.1-0.3-0.1-0.4-0.2c-0.2,0-0.3,0-0.4,0c-0.1,0-0.3,0-0.5,0l-0.2,0c0,0-0.1,0-0.2,0l-0.2,0 c0.1,0.2,0.3,0.4,0.4,0.6c0.2,0.2,0.4,0.3,0.7,0.3c0.2,0,0.3,0,0.4,0c0.1,0,0.2-0.1,0.2-0.3L436.2,283.1z M435.5,281l0-0.1 c0-0.1-0.1-0.2-0.2-0.2c0,0-0.1,0-0.1,0c-0.1,0-0.1,0-0.2,0c-0.1,0-0.1,0-0.2-0.1c0,0.2,0,0.3,0,0.3c0,0.1,0.2,0.1,0.5,0.1 C435.3,281.1,435.4,281.1,435.5,281z M435.8,264.7c-0.1-0.3-0.4-0.5-0.9-0.7c0,0-0.1,0.1-0.1,0.2c0,0.2,0,0.3,0.1,0.4 c0.1,0.1,0.2,0.2,0.3,0.2c0.1,0.1,0.2,0.1,0.3,0.1c0.1,0,0,0,0,0c0.1,0,0.1,0,0.2-0.1C435.7,264.9,435.7,264.8,435.8,264.7z M435.5,260.3c-0.1-0.1-0.2-0.2-0.3-0.2l-0.1,0c0,0.3,0,0.4,0.2,0.4C435.5,260.6,435.5,260.5,435.5,260.3z M436.8,287.3 c-0.1-0.1-0.2-0.1-0.4-0.2c-0.3,0-0.6,0-0.9,0.1l-0.1-0.1l-0.1,0.1l0,0.2l0,0.1c0.1,0.1,0.2,0.2,0.5,0.2c0.3,0.1,0.4,0.1,0.3,0.1 c0.1,0,0.2,0,0.4-0.1c0.2-0.1,0.3-0.2,0.3-0.3L436.8,287.3z M436.6,279.2c0-0.1-0.1-0.2-0.3-0.2l-0.2,0l-0.1,0 c-0.1,0.1-0.1,0.1-0.1,0.2c0,0.1,0,0.1,0.2,0.2c0.1,0,0.2,0.1,0.3,0.1C436.5,279.4,436.6,279.4,436.6,279.2z M436.7,268.3 c0,0-0.1-0.1-0.2-0.1c0,0-0.1,0-0.1,0c0,0-0.1,0-0.1,0l-0.1,0c0,0.1,0,0.1-0.1,0.1c-0.1,0-0.1,0-0.1,0.1c0,0.1,0.1,0.2,0.2,0.2 c0.1,0,0.1,0,0.2-0.1C436.6,268.4,436.7,268.3,436.7,268.3z M437.6,275.7c-0.1-0.1-0.2-0.2-0.3-0.2c-0.1-0.1-0.3-0.1-0.5-0.1 c0,0.1-0.1,0.2-0.1,0.3c0.1,0,0.2,0.1,0.3,0.1C437.1,275.8,437.3,275.8,437.6,275.7z M437.2,262.4L437.2,262.4 c0-0.1-0.1-0.2-0.3-0.2c-0.1,0-0.2,0-0.2,0.1c0,0.1,0,0.1,0.1,0.2c0.1,0,0.2,0,0.2,0l0.1-0.1L437.2,262.4z M437.1,282.4 c0,0,0-0.1,0-0.2c0-0.1,0-0.1-0.1-0.1c0,0-0.1,0.1-0.1,0.2C436.9,282.4,436.9,282.4,437.1,282.4L437.1,282.4z M438,260.1 c0,0,0.1-0.1,0.1-0.2c0-0.1-0.1-0.1-0.3-0.2c-0.2,0-0.3-0.1-0.2-0.1c0,0.1-0.1,0.1-0.1,0.2c0,0-0.1,0.1-0.1,0.2c0,0,0,0.1,0.1,0.1 l0.1,0l0.2,0C437.8,260.2,437.9,260.2,438,260.1z M438,264.3c0-0.1,0-0.2-0.2-0.2l-0.2,0l-0.1,0c0,0.1,0,0.2,0.1,0.2l0.2,0 L438,264.3z M438.3,268.1L438.3,268.1c0-0.2-0.1-0.2-0.3-0.3c-0.1,0-0.2,0-0.3,0c-0.1,0-0.2,0-0.3,0c0,0.1,0.1,0.2,0.3,0.2l0.3,0 L438.3,268.1z M439.4,283.7c0-0.1-0.1-0.2-0.3-0.3c-0.2-0.1-0.4-0.2-0.5-0.2c-0.1,0-0.2,0-0.4,0c-0.2,0-0.3,0.1-0.3,0.1 c0,0.2,0.1,0.3,0.4,0.4c0.3,0.1,0.5,0.1,0.6,0.1C439.1,283.9,439.2,283.8,439.4,283.7z"></path> <path id="XMLID_258_" class="st0" d="M484.2,267.2c0.1,0,0.2,0.1,0.2,0.1c0.1,0,0.2,0.1,0.3,0.1c0.1,0,0.2,0.1,0.5,0.3 c0.3,0.1,0.5,0.3,0.8,0.5c0.3,0.2,0.6,0.4,0.8,0.6c0.2,0.2,0.4,0.4,0.6,0.6c0.2,0.1,0.4,0.2,0.5,0.4c0.1,0.2,0.3,0.4,0.6,0.5 l0.3,0.1c0.6,0.3,1,0.7,1.2,1.2c0.2,0.5,0.6,0.9,1.2,1.1c0.2,0.1,0.4,0.3,0.4,0.5s0.1,0.4,0.3,0.6c0.1,0.3,0.3,0.6,0.5,0.8 c0.2,0.2,0.4,0.5,0.5,0.9c0.2,0.3,0.4,0.6,0.6,0.9c0.2,0.3,0.3,0.6,0.4,0.9c0.2,0.2,0.4,0.4,0.5,0.7c0.1,0.3,0.2,0.5,0.3,0.8 c0.1,0.3,0.1,0.5,0.2,0.8c0.1,0.2,0.2,0.5,0.4,0.7c0.2,0.6,0.3,1.1,0.3,1.7c0,0.6,0.2,1.2,0.5,1.7c0,0.3,0,0.6-0.1,0.9 c-0.1,0.3-0.1,0.6,0,0.8c0.1,0.5,0.2,0.9,0.3,1.4c0.1,0.5,0.1,0.9-0.1,1.4c-0.1,0.3-0.1,0.7-0.1,1.1c0,0.4,0,0.7,0.2,1l-0.1,0.2 c-0.2,0.4-0.3,0.7-0.3,1.1c0,0.3-0.1,0.7-0.3,1.1c-0.1,0.2-0.2,0.4-0.3,0.4c0.1,0.2,0,0.5-0.1,0.8c-0.1,0.1-0.1,0.2-0.2,0.3 c-0.1,0.1-0.1,0.2-0.2,0.2c-0.1,0.3-0.2,0.5-0.1,0.7c0,0.2,0,0.4-0.1,0.7c-0.1,0.2-0.2,0.4-0.4,0.6c-0.1,0.2-0.2,0.3-0.3,0.5 c-0.1,0.2-0.2,0.4-0.2,0.5c0,0.2-0.1,0.4-0.2,0.5c-0.1,0.2-0.3,0.4-0.5,0.5c-0.2,0.4-0.5,0.8-0.7,1.2c-0.2,0.4-0.5,0.7-0.7,1.1 c-0.2,0-0.4,0.2-0.5,0.4c0,0.1,0,0.1,0,0.1c0,0,0,0.1,0,0.1c0,0.1-0.1,0.1-0.1,0.2c0,0-0.1,0.1-0.1,0.1l-0.1,0.2 c-0.2,0.4-0.5,0.7-0.8,0.8c-0.4,0.1-0.6,0.4-0.8,0.7c-0.1,0.2-0.1,0.3-0.1,0.4c-0.3,0.1-0.5,0.2-0.7,0.4c-0.2,0.2-0.4,0.4-0.6,0.6 c-0.6,0.3-1.2,0.7-1.8,1.2c-0.6,0.4-1.2,0.8-2,1.2c-0.1,0.2-0.2,0.3-0.5,0.4s-0.5,0.2-0.8,0.2s-0.6,0.2-0.9,0.3 c-0.3,0.1-0.6,0.2-0.8,0.4c-0.7,0.3-1.3,0.4-1.8,0.5c-0.5,0.1-0.9,0.1-1.3,0.1c-0.4,0-0.7,0-1,0.1c-0.3,0-0.6,0.1-1,0.3 c-0.6,0.2-1.2,0.2-1.9,0.1c-0.7-0.1-1.4-0.1-2,0c-0.3-0.2-0.7-0.2-0.9-0.2c-0.3,0-0.6,0-0.9-0.1c-0.7-0.3-1.3-0.4-1.9-0.3 c-0.1,0-0.2,0-0.2,0c-0.1,0-0.1-0.1-0.1-0.1c0-0.1-0.1-0.1-0.1-0.1c-0.1,0-0.1,0-0.2,0c-0.1,0-0.3,0-0.5-0.1 c-0.2-0.1-0.4-0.1-0.5-0.2c-0.2-0.1-0.3-0.1-0.5-0.2c-0.2,0-0.3,0-0.4,0.1c-0.1-0.1-0.2-0.1-0.3-0.1c-0.1,0-0.2-0.1-0.3-0.1 c-0.4-0.2-0.7-0.4-1.1-0.6c-0.3-0.2-0.7-0.4-1.1-0.6l-0.3-0.2l-0.1,0.1c-0.2,0-0.4-0.1-0.6-0.2c-0.6-0.3-1.1-0.6-1.4-1 c-0.3-0.4-0.8-0.8-1.4-1.1c-0.8-0.8-1.7-1.7-2.6-2.5c-0.9-0.9-1.7-1.7-2.3-2.5c-0.3-0.4-0.5-0.9-0.7-1.4c-0.2-0.5-0.4-0.9-0.7-1.3 c-0.1-0.4-0.3-0.7-0.6-0.9s-0.4-0.6-0.4-1.1c-0.2-0.4-0.3-0.8-0.4-1.1c-0.1-0.3-0.2-0.7-0.4-1c-0.1-0.6-0.2-1.1-0.2-1.6 c-0.1-0.5-0.2-1.1-0.2-1.6c-0.1-0.2-0.2-0.4-0.2-0.6c0-0.2,0-0.4,0.1-0.7c0-0.2,0-0.4,0-0.7c0-0.2-0.1-0.4-0.3-0.6 c0-0.2,0-0.3,0-0.3c0-0.1,0-0.2,0-0.3l0.1-0.2c0.2-0.4,0.2-0.7,0.1-1c-0.1-0.3-0.1-0.6,0.1-1l0.1-0.2c0-0.4,0-0.9,0.1-1.3 c0.1-0.4,0.2-0.9,0.4-1.4c-0.1-0.4,0-1,0.2-1.5c0.3-0.6,0.5-1.1,0.7-1.6l0.2-0.4c0.1-0.3,0.2-0.6,0.3-0.8c0.1-0.3,0.2-0.6,0.3-0.8 c0.3-0.7,0.7-1.3,1.2-1.8c0.4-0.5,0.8-1.1,1.2-1.9c0.5-0.6,1-1.1,1.6-1.6c0.6-0.5,1.1-1,1.6-1.5c0.3-0.3,0.6-0.6,1-0.8 c0.4-0.2,0.8-0.4,1.2-0.7c0.2-0.2,0.4-0.4,0.6-0.6c0.2-0.2,0.4-0.3,0.7-0.4c0.7-0.3,1.4-0.6,2-0.9c0.7-0.3,1.4-0.7,2.3-0.9 c0.1,0,0.3,0,0.7,0c0.4,0,0.6-0.1,0.7-0.3c0.6-0.1,1.2-0.2,1.9-0.4c0.7-0.2,1.3-0.2,1.9-0.1c0.4,0.1,0.7,0.1,1.1-0.1 c0.3-0.2,0.7-0.2,1.1-0.1c0.3,0.1,0.6,0.1,1,0.1c0.3,0,0.7,0,1-0.1c0.3,0.2,0.7,0.3,1,0.3c0.3,0.1,0.7,0.1,1,0.1s0.6,0.1,0.9,0.1 c0.3,0,0.7,0.2,1,0.3l0.4,0.2c0.4,0,0.8,0.1,1.2,0.2c0.6,0.3,1,0.5,1.3,0.7c0.3,0.2,0.6,0.4,1,0.6S483.7,267.1,484.2,267.2z M456,288.1c0-0.1,0-0.1,0-0.2c0,0,0-0.1-0.1-0.1l-0.1,0c-0.1,0-0.1-0.1-0.1-0.1c-0.1,0-0.2,0-0.3,0c-0.1,0-0.2,0-0.2,0.1 c0.1,0.1,0.1,0.1,0.1,0.2c0,0.1,0.1,0.2,0.2,0.2c0,0,0.1,0,0.1,0C456,288.1,456.1,288.1,456,288.1 C456.1,288.1,456.1,288.1,456,288.1z M457.3,286.2c0-0.1,0-0.2,0-0.3c-0.1-0.1-0.1-0.2-0.1-0.3c0,0-0.1,0-0.1,0c0,0-0.1,0-0.1,0 c-0.1,0-0.1-0.1-0.2-0.1c0,0-0.1-0.1-0.2-0.1c-0.1-0.1-0.2,0-0.3,0.1c-0.1,0.2-0.1,0.3,0,0.3c0.1,0,0.1,0.1,0.1,0.2l0.2,0.1 l0.3,0.2C457.2,286.3,457.3,286.3,457.3,286.2z M457.3,274.2c0-0.1,0-0.2-0.2-0.3c-0.1,0-0.1,0-0.2,0.1c0,0.1,0,0.1,0,0.2l0.1,0 l0.2,0.1C457.2,274.3,457.2,274.3,457.3,274.2z M458.4,289.9c0-0.1-0.1-0.2-0.3-0.3c-0.2-0.1-0.4-0.1-0.6,0c0,0,0.1,0,0.1,0.1 c0,0,0.1,0.1,0.1,0.1C457.9,289.8,458.2,289.9,458.4,289.9z M459.9,280.5c0-0.1-0.1-0.2-0.2-0.2s-0.3-0.1-0.4-0.2 c-0.1,0.1-0.1,0.1-0.2,0.1c-0.1,0-0.1,0-0.2,0.1c0,0.1,0,0.1,0.1,0.2c0.1,0,0.1,0.1,0.2,0.1C459.5,280.6,459.7,280.6,459.9,280.5z M460.8,278.4c0-0.1-0.2-0.3-0.4-0.4c-0.3-0.1-0.5-0.1-0.6,0.2c0,0.1,0,0.2,0.1,0.2c0.1,0,0.1,0.1,0.2,0c0,0,0.1,0,0.2,0l0.1,0 c0.1,0,0.2,0,0.3,0c0.1,0,0.1,0,0.2-0.1L460.8,278.4z M461.3,300.7c-0.1,0-0.1-0.1-0.1-0.1c0-0.1,0-0.1-0.1-0.1 c0,0.1-0.1,0.1-0.1,0.1c0,0-0.1,0-0.1,0.1l0,0.1l0.1,0l0.2,0.1C461.3,300.8,461.3,300.7,461.3,300.7z M478.2,276.7 c-0.1,0-0.3-0.1-0.4-0.1c-0.3-0.1-0.5-0.3-0.7-0.5c-0.2-0.2-0.4-0.4-0.7-0.5c-0.1-0.1-0.5-0.1-1.1-0.2c-0.6-0.1-1.1-0.1-1.5-0.1 c-0.4,0.2-0.8,0.3-1.3,0.3c-0.5,0.2-1,0.4-1.5,0.6c-0.5,0.1-0.9,0.3-1.4,0.5c-0.5,0.2-0.9,0.4-1.4,0.7c-0.5,0.3-0.9,0.6-1.4,1.1 c-0.4,0.5-0.8,1-1.3,1.4c-0.5,0.4-0.8,1-1.1,1.6c-0.1,0.2-0.2,0.4-0.2,0.6c0,0.2,0,0.3-0.1,0.5c-0.1,0.2-0.2,0.3-0.3,0.5 c-0.1,0.1-0.2,0.3-0.3,0.5c-0.2,0.5-0.4,0.9-0.5,1.3c-0.2,0.4-0.3,0.8-0.4,1.2c0,0.3,0,0.6,0,0.9c0,0.2,0,0.5-0.2,0.8 c0,0.1-0.1,0.1-0.1,0.2c-0.1,0.1-0.1,0.1-0.1,0.2c0.2,0.2,0.2,0.4,0.2,0.6c0,0.2-0.1,0.4-0.1,0.6s-0.1,0.4-0.1,0.6 c0,0.2,0.1,0.4,0.3,0.5c0,0.4,0.1,0.8,0.3,1.1c0.2,0.3,0.3,0.6,0.3,1c0,0.6,0.2,1.2,0.6,1.7c0.4,0.6,0.9,1.1,1.4,1.5 c0.9,0.9,1.6,1.5,2.1,1.9c0.5,0.3,0.7,0.5,0.6,0.5c0.1,0,0.3,0.1,0.6,0.1c0.4-0.1,0.9-0.1,1.4,0c0.5,0.2,0.9,0.3,1.5,0.5 c0.6-0.1,1.2-0.1,1.8,0c0.6,0,1.2-0.1,1.7-0.4c0.4-0.3,0.8-0.4,1.3-0.3c0.2-0.2,0.4-0.3,0.6-0.3c0.2-0.1,0.4-0.2,0.7-0.3l0,0.1 c0,0,0.1,0,0.1-0.1l0-0.1c0.2-0.1,0.4-0.2,0.9-0.4c0.4-0.2,0.7-0.5,0.9-0.7c0.2-0.4,0.4-0.6,0.7-0.7c0.3-0.1,0.5-0.3,0.6-0.7 l0.2-0.3c0.1-0.2,0.3-0.4,0.5-0.5c0.2-0.1,0.4-0.2,0.5-0.5c0.1-0.2,0.2-0.4,0.2-0.8c0.1-0.3,0.2-0.6,0.3-0.9 c0.1-0.2,0.2-0.3,0.3-0.4c0.1-0.1,0.2-0.3,0.3-0.4c0.3-0.7,0.6-1.5,0.7-2.4c0.2-0.9,0.2-1.7,0.1-2.4c0.1-0.6,0.1-1.1-0.1-1.7 c-0.2-0.5-0.2-1.1-0.1-1.7c-0.1-0.6-0.4-1-0.9-1.4c0-0.3-0.1-0.5-0.1-0.6c-0.1-0.2-0.2-0.3-0.3-0.5c-0.1-0.2-0.2-0.3-0.3-0.5 c-0.1-0.2-0.1-0.4-0.1-0.6c-0.3-0.3-0.7-0.5-0.9-0.8c-0.3-0.3-0.6-0.6-1.1-0.8C479.1,276.9,478.6,276.7,478.2,276.7z M468.2,274 c0-0.1,0-0.2-0.1-0.2c0-0.1-0.1-0.1-0.1-0.2c-0.2-0.1-0.4-0.1-0.5,0c0,0.1,0,0.2,0,0.2c0.1,0.1,0.1,0.1,0.1,0.2l0.1,0l0.2,0.1 c0.1,0,0.2,0.1,0.2,0C468.2,274.2,468.2,274.1,468.2,274C468.2,274.1,468.2,274,468.2,274z M468.5,271.2c-0.1-0.1-0.1-0.2-0.2-0.3 c-0.1-0.1-0.2-0.2-0.3-0.3c-0.1,0-0.1,0-0.1,0c0,0-0.1,0-0.1,0c-0.1,0.2-0.1,0.3,0.1,0.4c0.1,0.1,0.3,0.1,0.4,0.2 C468.3,271.1,468.4,271.2,468.5,271.2z M469.6,304.6c0,0-0.1-0.1-0.1-0.1l-0.1,0c-0.1,0-0.1-0.1-0.1-0.1c0,0.1-0.1,0.1-0.1,0.1 c0,0-0.1,0-0.1,0.1l0.1,0l0.2,0.1C469.4,304.7,469.5,304.6,469.6,304.6z M469.5,269.1c0-0.1,0-0.2-0.2-0.3c-0.1-0.1-0.2,0-0.2,0 c0,0.1,0,0.1,0,0.2C469.3,269.1,469.4,269.1,469.5,269.1z M474.7,270.6c0-0.2-0.2-0.3-0.4-0.4c-0.1-0.1-0.2-0.1-0.4-0.1 s-0.3,0-0.3,0.1c0,0.1,0,0.2,0.2,0.4c0.2,0.2,0.3,0.3,0.5,0.4c0.1,0,0.2-0.1,0.2-0.1c0.1,0,0.1-0.1,0.2-0.2L474.7,270.6z M475.1,305.1c0,0-0.1-0.1-0.1-0.1l-0.2-0.1c-0.1,0.1,0,0.2,0.1,0.3C475,305.2,475,305.2,475.1,305.1z M477.8,272.2 c0.1-0.2,0-0.3-0.1-0.4c-0.2-0.1-0.3-0.2-0.4-0.3c-0.2-0.1-0.3-0.1-0.4,0.1c-0.1,0.2,0.1,0.4,0.6,0.6 C477.6,272.2,477.7,272.2,477.8,272.2z M480.2,300.5c0-0.1,0-0.2-0.1-0.2c-0.1,0-0.1-0.1-0.1-0.2l-0.1-0.1l-0.3-0.1 c-0.1,0-0.2,0-0.2,0c0.1,0.2,0.2,0.3,0.4,0.4c0.1,0,0.1,0,0.1,0C480.1,300.5,480.1,300.5,480.2,300.5z M482.3,274.1 c0-0.1-0.1-0.2-0.2-0.3c-0.2-0.1-0.4-0.1-0.6-0.1c-0.2,0-0.3,0-0.4,0.1c-0.1,0.1,0,0.2,0.2,0.3C481.7,274.2,482,274.2,482.3,274.1 z M483,300.9c0-0.1,0-0.2-0.1-0.2c-0.1,0-0.2-0.1-0.4-0.1c-0.2,0-0.3,0-0.4,0c-0.1,0.2,0,0.3,0.1,0.4l0.2,0.1l0.1,0 c0.1,0,0.2-0.1,0.3-0.1C482.9,301.1,483,301,483,300.9L483,300.9z M484,298.9c0-0.2,0-0.3-0.3-0.5c-0.2-0.1-0.3-0.1-0.5-0.1 c-0.2,0-0.3,0-0.3,0.2c0,0.1,0,0.2,0.2,0.3C483.4,299,483.7,299,484,298.9z M485.2,275.9c0.1-0.2,0.1-0.3-0.1-0.5 c-0.1-0.1-0.3-0.2-0.5-0.3c-0.1,0-0.1,0-0.2,0s-0.2,0.1-0.2,0.2c0,0.1,0,0.3,0,0.5c0.2,0.1,0.3,0.1,0.5,0.1 C484.9,275.9,485.1,275.9,485.2,275.9z M486.2,282.7L486.2,282.7c0.1-0.2,0.1-0.2,0-0.3c-0.1,0-0.1-0.1-0.2-0.1 c-0.1,0.1-0.1,0.1-0.2,0.1c0,0-0.1,0-0.1,0.1c0,0,0,0.1,0,0.1c0.1,0,0.1,0,0.2,0C486,282.6,486.1,282.6,486.2,282.7z M486.4,293.2 c-0.1-0.1-0.1-0.1-0.3-0.2c-0.2-0.1-0.3-0.1-0.3-0.1c0,0.2,0.1,0.3,0.2,0.4c0.2,0.1,0.3,0.1,0.4,0.2c0,0,0-0.1,0.1-0.2 C486.6,293.3,486.5,293.3,486.4,293.2L486.4,293.2z M487.7,291.4c0-0.1-0.1-0.2-0.2-0.3c-0.1-0.1-0.3-0.2-0.4-0.2 c-0.1-0.1-0.2,0-0.3,0.1c0,0.3,0.1,0.5,0.3,0.6c0.1,0,0.2,0.1,0.2,0.1c0.1,0,0.2,0,0.2-0.2L487.7,291.4z M488.8,280.8l0-0.1 c0-0.1,0-0.1-0.1-0.2c-0.1-0.1-0.3-0.1-0.6-0.2c-0.3,0-0.4,0-0.4,0c0,0.1,0,0.1,0.1,0.2c0.1,0,0.1,0.1,0.2,0.1 c0.1,0.1,0.3,0.1,0.4,0.1C488.5,280.8,488.6,280.8,488.8,280.8z M489,278.3c0-0.1,0-0.1-0.2-0.2l-0.2,0.1c0,0.1,0,0.1,0,0.2 c0.1,0.1,0.1,0.1,0.1,0.2c0.2,0.1,0.3,0.1,0.4,0l0-0.1c0,0-0.1,0-0.1,0c0,0,0,0-0.1,0C489,278.4,489,278.4,489,278.3 C489,278.3,489,278.3,489,278.3z M492.8,291.3c0.1-0.1,0-0.2-0.1-0.2c-0.1,0-0.2,0-0.3-0.2c-0.1,0.1-0.2,0.2-0.3,0.3l0.1,0 C492.4,291.4,492.6,291.4,492.8,291.3z"></path> <path id="XMLID_286_" class="st0" d="M540.8,315.3l-0.2,0.2c-0.3,0.3-0.6,0.4-0.9,0.5c-0.3,0.1-0.6,0.2-0.9,0.4 c-0.4-0.1-0.7-0.1-1,0s-0.6,0.2-1,0.1c-0.3-0.1-0.5,0-0.7,0.2c-0.2,0.2-0.5,0.2-0.7,0.2c-0.7,0.1-1.5,0.2-2.3,0.3 c-0.8,0.1-1.6,0.3-2.4,0.4c-0.8,0.1-1.6,0.3-2.4,0.4c-0.8,0.1-1.5,0.1-2.2,0.1c-0.2,0.1-0.4,0.2-0.5,0.4c-0.2,0.2-0.3,0.2-0.5,0.2 c-0.3-0.2-0.6-0.2-0.9-0.2c-0.3,0-0.6,0.1-0.9,0.3c-0.4,0.1-0.7,0.1-1,0c-0.3-0.1-0.6,0-1,0.2c-0.3,0-0.5,0-0.8,0.1 c-0.3,0.1-0.5,0.1-0.7,0.2c-0.3,0-0.6,0-0.9,0c-0.3,0-0.5,0-0.7,0.2c0,0,0,0.1,0,0.1c0,0,0,0.1,0,0.1c-0.1,0-0.2,0.1-0.3,0.2 c-0.2,0.2-0.3,0.3-0.4,0.5c-0.1,0.2-0.2,0.4-0.4,0.5c0,0.1,0,0.1,0,0.1c0,0,0,0.1,0,0.1l0,0c-0.1,0.4-0.1,0.8-0.1,1.2 c0,0.4-0.1,0.8-0.2,1.2c0.1,0.1,0.1,0.3,0.1,0.4c0,0.1-0.1,0.2-0.2,0.3c-0.1,0.1-0.2,0.2-0.2,0.3c-0.1,0.1-0.1,0.2,0,0.3 c-0.1,0.1-0.1,0.3-0.2,0.6c0,0.3-0.1,0.6-0.1,1c0,0.4-0.1,0.7-0.1,1.1c0,0.4-0.1,0.7-0.2,1c-0.1,0.4-0.2,0.8-0.2,1.2 c0,0.5,0,0.9,0,1.3c-0.1,0.2-0.1,0.3-0.2,0.4c-0.1,0.1-0.1,0.3-0.1,0.5c-0.1,0.2-0.2,0.5-0.1,0.8c0,0.3,0,0.5-0.2,0.8 c-0.1,0.5-0.1,0.9,0,1.3c0,0.2-0.1,0.5-0.3,0.7c-0.1,0.2-0.2,0.4-0.3,0.7c0,0.1,0.1,0.3,0.1,0.5c0,0.2,0,0.3,0,0.3 c-0.2,0.2-0.3,0.4-0.3,0.6c0,0.2,0,0.4,0,0.6c0,0.2,0,0.4,0,0.6c0,0.2-0.1,0.4-0.2,0.6c0,0.3,0,0.6,0,0.9c0,0.3-0.1,0.6-0.4,0.8 c-0.1,0.3-0.1,0.7,0,1c0.1,0.3,0,0.7-0.2,1c-0.1,0.2-0.2,0.4-0.3,0.7c-0.1,0.2-0.1,0.4-0.2,0.4c-0.2,0.2-0.4,0.3-0.8,0.3 c-0.4,0-0.6,0-0.7-0.1l-0.1-0.1c-0.1-0.1-0.3-0.2-0.4-0.3c-0.2-0.1-0.3-0.2-0.4-0.3c-0.1-0.1-0.2-0.2-0.2-0.4 c-0.5-0.7-1.1-1.4-1.8-2.1c-0.3-0.3-0.6-0.7-1-1c-0.3-0.3-0.6-0.6-1-0.9c-0.1-0.2-0.3-0.4-0.6-0.7c-0.3-0.3-0.5-0.5-0.8-0.7 c-0.3-0.2-0.5-0.5-0.8-0.7c-0.2-0.2-0.4-0.5-0.4-0.6c-0.1-0.1-0.1-0.1-0.1-0.1c0,0-0.1,0-0.1-0.1c-0.3-0.3-0.4-0.6-0.4-0.9 c0-0.3,0-0.6,0-0.9c0.4-0.5,0.6-1,0.6-1.5s0.2-1,0.5-1.5c-0.1-0.5,0-0.9,0.3-1.2c0.3-0.3,0.4-0.7,0.3-1.1 c-0.1-0.1-0.1-0.3,0.1-0.6c0.1-0.3,0.2-0.6,0.4-0.9c0.2-0.3,0.3-0.7,0.4-1s0.1-0.7,0-1.1c0.4-0.4,0.6-0.8,0.6-1.3 c0-0.5,0.1-0.9,0.4-1.3c0.1-0.5,0.2-0.9,0.4-1.3c0.2-0.4,0.1-0.8-0.3-1.3c-1.3,0-2.4,0.3-3.4,0.8c-0.4,0.2-0.8,0.3-1.1,0.2 c-0.3-0.1-0.7,0.1-1.1,0.4c-0.3,0.3-0.7,0.3-1.1,0.2c-0.4-0.1-0.8,0-1.3,0.3c-0.2,0.1-0.4,0.1-0.6,0.2c-0.2,0.1-0.4,0.2-0.6,0.3 c-0.2,0.1-0.5,0.1-0.8,0.2c-0.3,0.1-0.7,0.1-1,0.2c-0.4,0-0.7,0.1-1,0.2c-0.3,0.1-0.5,0.1-0.6,0.2c-0.5,0.1-1,0.2-1.5,0.3 c-0.5,0.1-1,0.1-1.5-0.2l-0.1-0.1c-0.1-0.1-0.2-0.2-0.3-0.2c-0.1,0-0.2-0.1-0.3-0.2c-0.7-0.6-1.4-1.3-2-2c-0.7-0.8-1.3-1.4-2-2 c-0.1-0.1-0.1-0.1-0.1-0.2c0-0.1-0.1-0.1-0.1-0.2c-0.4-0.4-0.9-0.9-1.4-1.4c-0.5-0.5-1-1-1.4-1.4c-0.2-0.3-0.4-0.7-0.5-1.2 c-0.1-0.5,0-0.9,0.3-1.2c0.3-0.3,0.6-0.4,1-0.4c0.4,0.1,0.7,0,1-0.2c0.3-0.2,0.6-0.4,0.9-0.4c0.3,0,0.6-0.1,1,0c0.3,0,0.6,0,0.9,0 c0.3,0,0.6-0.1,0.8-0.4c0.1,0,0.1,0,0.2,0c0-0.1,0.1-0.1,0.2,0c0.3,0,0.5,0,0.8,0.1c0.3,0.1,0.5,0.1,0.7-0.1l0.1-0.1 c0.2,0,0.5-0.1,0.6-0.2c0.2-0.1,0.4-0.1,0.6,0.1c0.3,0.1,0.5,0,0.8-0.1c0.2-0.1,0.5-0.2,0.8,0l0,0c0.1-0.1,0.1-0.1,0.1,0 c0,0,0.1,0,0.1,0c0.2-0.1,0.3-0.2,0.5-0.2c0.2,0,0.4,0,0.6,0c0.2,0,0.4,0,0.6-0.1s0.4-0.1,0.6-0.3c0.1-0.1,0.2-0.1,0.3-0.1 c0.1,0,0.2,0,0.3,0c0.3,0.2,0.6,0.2,0.9,0c0.3-0.2,0.5-0.3,0.8-0.3c0.3,0,0.7,0,1,0c0.3,0,0.6-0.1,0.9-0.2 c0.3-0.1,0.6-0.2,0.9-0.1c0.3,0,0.6,0,0.9-0.1l0,0c0.1-0.1,0.3-0.1,0.6-0.2c0.3,0,0.6-0.1,0.9-0.1c0.3,0,0.6,0,0.9,0 c0.3,0,0.5,0,0.6,0c0.2-0.1,0.5-0.2,0.7-0.2c0.3,0,0.5,0,0.8,0c0.3,0,0.5,0,0.7-0.1c0.2-0.1,0.4-0.2,0.6-0.4 c0.1-0.1,0.2-0.3,0.4-0.6s0.3-0.6,0.4-1c0.1-0.4,0.2-0.7,0.2-1.1c0-0.4,0-0.7,0-0.9c0.1-0.4,0.2-0.7,0.4-0.9s0.3-0.5,0.2-0.9 c-0.1-0.5-0.1-0.9,0-1.4s0.1-0.9,0.2-1.3c0.3-0.3,0.5-0.8,0.6-1.4c0.1-0.6,0.1-1.1-0.1-1.4c0.2-0.3,0.3-0.6,0.4-0.9 c0.1-0.3,0.1-0.6,0-1c0.1-0.4,0.3-0.7,0.4-1.1c0.2-0.3,0.2-0.7,0-1.1c0.2-0.2,0.3-0.5,0.4-0.9c0.1-0.4,0.1-0.8,0.1-1.3 c0-0.4,0.1-0.9,0.1-1.3c0-0.4,0.2-0.7,0.4-0.9c0.1-0.4,0.1-0.7,0-1c-0.1-0.3,0-0.7,0.2-1c0.2-0.2,0.3-0.5,0.3-0.7 c0-0.3,0.1-0.5,0.4-0.7c0.3-0.3,0.8-0.3,1.4-0.1c0.6,0.2,1.1,0.5,1.4,0.9l0.3,0.3l0,0c0.1,0.2,0.3,0.3,0.4,0.5 c0.2,0.2,0.3,0.3,0.4,0.5c0.1,0.1,0.2,0.3,0.3,0.4c0,0.1,0.1,0.3,0.3,0.4c0.7,0.7,1.4,1.4,2.2,2.1c0.7,0.7,1.5,1.3,2.2,2.1 c0.2,0.2,0.4,0.4,0.6,0.6c0.2,0.2,0.4,0.4,0.6,0.7c0.1,0.4,0.2,0.7,0.3,1c0.1,0.3,0.2,0.7,0.3,1l-0.1,0.1 c-0.1,0.1-0.1,0.2-0.1,0.2c0,0.1,0,0.1-0.1,0.2c-0.2,0.3-0.4,0.7-0.4,1c-0.1,0.4-0.1,0.7-0.2,1.1c-0.1,0.2-0.2,0.4-0.3,0.6 c-0.1,0.2-0.2,0.4-0.4,0.5c-0.1,0.2-0.2,0.4-0.3,0.7c-0.1,0.3-0.1,0.6-0.1,1c-0.3,0.2-0.4,0.5-0.5,0.7c-0.1,0.2-0.1,0.5-0.2,0.7 s-0.1,0.5-0.1,0.7c0,0.2-0.2,0.5-0.4,0.7c-0.3,0.3-0.5,0.8-0.5,1.4c0,0.6,0.1,1.1,0.3,1.3c0.4,0,0.8,0,1.1,0 c0.4,0.1,0.7,0,1.1-0.3c0.4-0.2,0.7-0.4,1.1-0.5c0.3-0.1,0.7-0.2,1-0.5c0.3-0.2,0.6-0.3,1-0.2c0.4,0,0.7,0,1-0.3 c0.6-0.3,1.2-0.5,1.9-0.5s1.2-0.3,1.7-0.8c0.2-0.2,0.4-0.3,0.6-0.3c0.2,0,0.5,0,0.7,0.1c0.2,0.1,0.5,0.2,0.7,0.3 c0.2,0.1,0.5,0.1,0.7,0.1c0.3,0.3,0.7,0.6,1,0.9c0.3,0.3,0.7,0.7,1,1.1c0.3,0.3,0.7,0.7,1,1c0.3,0.3,0.6,0.7,0.9,1 c0.1,0.1,0.3,0.2,0.4,0.3s0.3,0.3,0.4,0.4c0.1,0.1,0.3,0.3,0.4,0.4c0.1,0.1,0.2,0.3,0.3,0.4c0.3,0.2,0.7,0.4,1.1,0.8 c0.1,0.1,0.3,0.3,0.4,0.5s0.3,0.3,0.4,0.4c0.3,0.1,0.5,0.3,0.8,0.5c0.3,0.3,0.4,0.6,0.5,1C541,314.6,541,315,540.8,315.3z M503.6,316c-0.1-0.2-0.1-0.3-0.2-0.4s-0.2-0.1-0.3-0.1c-0.1,0.1,0,0.3,0.1,0.5l0.2,0.2l0.1,0.1c0,0,0.1-0.1,0.1-0.1 C503.7,316.1,503.8,316,503.6,316L503.6,316z M505.5,314.7c0-0.1,0-0.1-0.1-0.2c-0.1,0-0.1-0.1,0-0.1l-0.1-0.1l-0.2-0.2 c-0.1-0.1-0.2-0.1-0.3,0c-0.1,0.1-0.1,0.2,0,0.4l0.1,0.1l0.2,0.2c0.1,0.1,0.2,0.1,0.3,0C505.4,314.8,505.4,314.8,505.5,314.7 L505.5,314.7z M508.1,316.2c0.1-0.1,0.1-0.2,0-0.2c-0.1-0.1-0.1-0.1-0.2-0.2c-0.1,0-0.2,0-0.2,0c-0.1,0-0.2,0-0.2,0.1 c-0.1,0.1-0.1,0.3,0.1,0.5C507.8,316.4,507.9,316.3,508.1,316.2L508.1,316.2z M510.1,320.4c0-0.1,0-0.2,0-0.3 c-0.1-0.1-0.3-0.2-0.4-0.2s-0.4-0.1-0.7-0.1c-0.2,0-0.5-0.1-0.8-0.1c-0.1,0.1,0,0.2,0.1,0.4c0.2,0.1,0.5,0.2,0.9,0.3 C509.5,320.5,509.9,320.5,510.1,320.4z M509.6,318.2c0.2,0,0.3,0,0.4-0.1c0,0-0.1-0.1-0.2-0.1c-0.1-0.1-0.3-0.1-0.5-0.2 c-0.2,0-0.3-0.1-0.5-0.1c-0.2,0-0.3,0-0.4,0c0.2,0.1,0.4,0.3,0.6,0.4C509.1,318.3,509.3,318.3,509.6,318.2z M511.7,317.3 c0-0.3-0.2-0.5-0.3-0.7c-0.1-0.1-0.3-0.3-0.5-0.4c-0.2-0.2-0.4-0.3-0.6-0.5c-0.2-0.1-0.4-0.2-0.6-0.3c-0.2-0.1-0.4,0-0.5,0.1 c-0.1,0.1-0.1,0.1-0.1,0.2c0,0.1,0,0.1,0,0.2c0.3,0.3,0.6,0.5,1,0.7s0.5,0.3,0.5,0.4c0.1,0.1,0.2,0.3,0.3,0.5 c0.1,0.2,0.1,0.4,0,0.5c-0.1,0.1-0.2,0.2-0.3,0.2c-0.1,0-0.2,0.1-0.3,0.1c0.1,0,0.2,0.1,0.4,0.3l0.3,0.3c0.1,0.1,0.3,0.2,0.4,0.3 c0.1,0.1,0.3,0,0.4-0.1c0.1-0.1,0.2-0.3,0.2-0.4c0-0.2-0.1-0.3-0.2-0.5c-0.1-0.2-0.1-0.3-0.2-0.5 C511.5,317.6,511.5,317.4,511.7,317.3z M509.8,322.3c0.1-0.1,0.1-0.2,0-0.3c-0.1-0.1-0.2-0.1-0.2,0c-0.1,0.1,0,0.1,0.1,0.2 C509.6,322.3,509.7,322.3,509.8,322.3z M510.7,314c0-0.1,0-0.3-0.2-0.5c-0.1-0.1-0.3-0.2-0.5-0.2c-0.2,0-0.3,0-0.4,0 c0,0.1,0.1,0.2,0.2,0.4c0.1,0.1,0.2,0.2,0.3,0.2c0.1,0,0.1,0.1,0.2,0.1l0.1,0.1c0.1,0,0.1,0,0.2,0C510.6,314,510.6,314,510.7,314z M510.4,330.4c0.1-0.1,0.1-0.1,0-0.2c0,0,0,0-0.1,0c0,0,0,0-0.1,0l0,0.1C510.3,330.3,510.4,330.4,510.4,330.4z M511.4,323.2 L511.4,323.2c0.1-0.1,0.1-0.2,0-0.4c-0.1-0.1-0.1-0.1-0.2-0.2c-0.1-0.1-0.1-0.1-0.2-0.2c-0.1,0.1-0.1,0.2,0.1,0.3l0.2,0.3 L511.4,323.2z M513.9,313.2c0.1-0.4,0-0.7-0.3-1c-0.2-0.2-0.3-0.3-0.6-0.5c-0.2-0.1-0.4-0.3-0.5-0.4c-0.1-0.1-0.1-0.2-0.2-0.2 c-0.1-0.1-0.1-0.2-0.2-0.2c-0.1-0.1-0.2-0.1-0.4-0.2c-0.2,0.2-0.1,0.4,0.1,0.8c0.2,0.4,0.5,0.7,0.8,1c0.1,0.1,0.3,0.3,0.4,0.4 c0.1,0.1,0.3,0.2,0.4,0.4l0.1,0l0,0.1c0.1,0.1,0.1,0.1,0.2,0L513.9,313.2L513.9,313.2z M517.2,316.9c0.1-0.1,0-0.1,0-0.2 c-0.1-0.1-0.1-0.2-0.2-0.2c-0.3-0.3-0.6-0.5-1-0.5c-0.4,0-0.7-0.2-1-0.5c-0.1-0.1-0.2-0.3-0.3-0.5c-0.1-0.2-0.2-0.3-0.3-0.5 l-0.2-0.2c-0.2,0.2-0.3,0.2-0.5,0.2c-0.2,0-0.3-0.1-0.5-0.2c-0.2-0.1-0.3-0.2-0.5-0.3c-0.2-0.1-0.3-0.2-0.5-0.3 c-0.1,0.1-0.1,0.2-0.1,0.4c0,0.2,0,0.4,0,0.7c0,0.2,0,0.4,0.1,0.6c0,0.2,0,0.2-0.1,0.1c0.1,0.1,0.4,0.2,0.7,0.1 c0.3-0.1,0.6,0,0.8,0.2c0.1,0.1,0.3,0.2,0.4,0.2c0.2,0,0.3,0,0.5,0.1c0.2,0,0.4,0,0.6,0.1c0.2,0.1,0.4,0.2,0.5,0.4 c0.2,0.2,0.3,0.3,0.5,0.4c0.2,0.1,0.3,0.2,0.5,0.2c0,0,0,0,0-0.1c0,0,0,0,0-0.1c0.1-0.1,0.1-0.1,0.2,0 C517,317.1,517,317,517.2,316.9L517.2,316.9z M518.1,313.4c0-0.4-0.2-0.8-0.6-1.2c-0.4-0.4-0.8-0.6-1.3-0.5 c-0.5-0.3-0.9-0.6-1.3-1c-0.4-0.4-0.8-0.7-1.3-0.9c-0.2-0.1-0.4-0.2-0.5-0.3c-0.1-0.1-0.2-0.2-0.3-0.4c-0.1-0.1-0.2-0.2-0.2-0.3 l-0.1,0.1c-0.2,0.2-0.2,0.3,0,0.5c0.3,0.2,0.6,0.5,1,0.9c0.4,0.4,0.7,0.7,0.8,0.8c0.3,0.4,0.6,0.7,0.7,1.1c0.1,0.4,0.2,0.7,0.3,1 c0.1,0.3,0.1,0.6,0.1,0.8c0,0.2,0.1,0.4,0.2,0.5l0.1,0.1c0.1,0,0.2,0,0.4,0.1s0.3,0.1,0.4,0c0,0,0-0.1,0.1-0.1c0,0,0-0.1,0.1-0.1 c0,0-0.1,0-0.1,0c0,0-0.1,0-0.1,0c-0.2-0.2-0.4-0.5-0.5-0.8c-0.2-0.4-0.1-0.7,0.2-1c0.2-0.1,0.4-0.1,0.6,0 c0.2,0.1,0.4,0.2,0.5,0.4c0.1,0.1,0.1,0.2,0.2,0.3c0,0.1,0.1,0.2,0.2,0.3C517.7,313.4,517.9,313.5,518.1,313.4z M513.6,320 c0-0.1,0-0.2-0.1-0.3c-0.1-0.1-0.1-0.1-0.2-0.2c-0.1-0.1-0.1-0.1-0.2-0.2c-0.1,0.1-0.2,0.2-0.2,0.3l0.1,0.1l0.2,0.2 C513.4,320.1,513.5,320.1,513.6,320z M514.4,318.4c0.1-0.1,0.1-0.2,0-0.3s-0.1-0.2-0.1-0.3l-0.1-0.1c-0.1-0.1-0.1-0.1-0.1-0.2 c0-0.1-0.1-0.2-0.1-0.2c0,0-0.1-0.1-0.3-0.1c-0.2,0-0.3,0-0.3,0c-0.1,0.1,0,0.2,0.1,0.4c0.1,0.2,0.2,0.4,0.4,0.5 C514,318.4,514.2,318.4,514.4,318.4z M514.4,299.5L514.4,299.5c0.1-0.1,0.1-0.2,0-0.3l-0.2-0.3c-0.1-0.1-0.1-0.2-0.1-0.2 c-0.1,0.1-0.2,0.1-0.3,0.2c0.1,0.1,0.2,0.2,0.3,0.3C514.2,299.5,514.3,299.5,514.4,299.5z M515,304.5c0-0.1,0-0.1,0-0.2 c0,0,0-0.1,0-0.1c-0.1-0.1-0.3-0.2-0.4,0c-0.1,0.1-0.1,0.2,0,0.3c0.1,0.1,0.1,0.1,0.2,0l0.1,0.1 C514.9,304.6,514.9,304.5,515,304.5z M519.8,311.1c0-0.1-0.1-0.2-0.2-0.4l-0.3-0.3l-0.1-0.1c-0.3-0.1-0.6-0.3-1-0.7 c-0.2-0.2-0.3-0.3-0.5-0.5c-0.2-0.2-0.3-0.4-0.4-0.5c-0.1,0-0.2,0-0.3,0.2l-0.3,0.3c-0.2,0.2-0.4,0.3-0.5,0.2s-0.3-0.2-0.5-0.2 c0,0.2,0,0.3,0.1,0.4c0.1,0.1,0.2,0.2,0.4,0.2c0.1,0,0.3,0.1,0.4,0.3c0.2,0,0.5,0.1,0.8,0.3c0.3,0.2,0.6,0.4,0.9,0.6 c0.3,0.2,0.6,0.4,0.8,0.5c0.2,0.1,0.4,0.1,0.6,0L519.8,311.1z M518.3,306.8c0-0.1,0-0.2-0.1-0.3c-0.1-0.1-0.1-0.2-0.1-0.3 c-0.1-0.1-0.1-0.1-0.2-0.1l-0.1-0.1c-0.1-0.1-0.2-0.1-0.3-0.1c-0.1,0-0.2,0.1-0.3,0.1c-0.1,0.1-0.1,0.2,0.1,0.3 c0.1,0.1,0.3,0.3,0.5,0.3C518,306.6,518.2,306.7,518.3,306.8z M520.4,315.1c0-0.2-0.2-0.4-0.4-0.7l-0.4-0.5 c-0.2-0.2-0.3-0.3-0.4-0.5l0,0c-0.1-0.1-0.2-0.2-0.4-0.2c-0.1,0.1-0.2,0.3-0.1,0.4l0.1,0.1c0.2,0.2,0.3,0.4,0.4,0.7 c0.1,0.2,0.3,0.5,0.6,0.8c0.1,0,0.2,0,0.3,0.1C520.1,315.3,520.2,315.3,520.4,315.1L520.4,315.1z M521.6,310.5L521.6,310.5 c0.2-0.2,0.2-0.2,0.1-0.3c-0.2-0.2-0.3-0.2-0.4-0.1c0,0,0,0.1,0,0.1L521.6,310.5L521.6,310.5z M522.8,313.1c0.1,0,0.1,0,0.2-0.1 c0.1-0.1,0-0.1-0.1-0.2c-0.1-0.1-0.3-0.2-0.5-0.3c-0.2-0.1-0.3-0.1-0.3,0c-0.1,0.1-0.1,0.2,0.1,0.3c0.1,0.1,0.2,0.2,0.3,0.2 C522.6,313,522.7,313.1,522.8,313.1z"></path> </g> <g id="XMLID_55_"> <path id="XMLID_68_" class="st0" d="M465.9,544.7c-0.1-0.2-0.3-0.4-0.5-0.6c-0.6-0.6-1.1-0.8-1.6-0.7l-6.2,2.3 c-0.2,0.1-0.3,0.2-0.2,0.4l1.9,5.1c0.1,0.2,0.2,0.3,0.5,0.2l5.7-2.1c0.3-0.1,0.6-0.4,0.8-0.8c0.2-0.4,0.3-0.8,0.3-1.3 c0-0.5-0.1-1.1-0.4-1.7C466.2,545.1,466,544.9,465.9,544.7z"></path> <path id="XMLID_87_" class="st0" d="M414.9,565.7l-4.5-3.3c-0.2-0.1-0.3-0.2-0.4-0.3c-0.1-0.1-0.3-0.1-0.4-0.1 c-0.4,0-0.7,0.1-1,0.3c-0.3,0.2-0.5,0.4-0.7,0.8c-0.2,0.3-0.4,0.7-0.5,1.1c-0.1,0.4-0.2,0.9-0.2,1.3c0,1,0.3,1.6,0.8,2 c0.5,0.3,1.3,0.5,2.3,0.5l2.5,0c0.6,0,1-0.1,1.3-0.2s0.6-0.3,0.8-0.5c0.2-0.2,0.3-0.4,0.3-0.5c0-0.2,0.1-0.3,0.1-0.3 c0-0.1,0-0.3-0.1-0.4C415.2,565.9,415,565.8,414.9,565.7z"></path> <path id="XMLID_88_" class="st0" d="M240.8,489.7c5.5-1.7,10.8-3.3,15.8-4.8c-3.2-8.8-6.3-17.4-9.4-25.9 C245.1,469,243,479.3,240.8,489.7z"></path> <path id="XMLID_89_" class="st0" d="M447,552.2c-0.1-0.4-0.3-0.8-0.5-1.1c-0.3-0.3-0.6-0.6-1-0.9s-0.8-0.4-1.2-0.5 c-0.4-0.1-0.8-0.1-1.2,0l-5.6,1.2c-0.2,0-0.3,0.2-0.3,0.4l3,14.3c0,0.2,0.2,0.3,0.4,0.3l5.9-1.2c0.3-0.1,0.7-0.2,1-0.5 c0.3-0.3,0.6-0.6,0.8-0.9c0.2-0.4,0.4-0.7,0.5-1.1c0.1-0.4,0.1-0.8,0-1.2L447,552.2z"></path> <path id="XMLID_90_" class="st0" d="M348.9,536.1c-0.5-0.3-1.1-0.7-1.7-1c-0.6-0.3-1.2-0.6-1.7-0.9c-0.6-0.3-1.1-0.5-1.5-0.6 c-0.8-0.2-1.5-0.2-2.1,0.2c-0.6,0.4-1.2,1-1.7,2.1l-3.8,6.7c-0.6,1-0.9,1.9-0.9,2.6c0,0.7,0.3,1.3,0.9,1.9c0.3,0.3,0.8,0.6,1.3,1 c0.5,0.3,1.1,0.7,1.7,1c0.6,0.3,1.2,0.6,1.7,0.9c0.6,0.3,1.1,0.5,1.5,0.6c0.8,0.2,1.5,0.2,2.1-0.2c0.6-0.4,1.2-1,1.7-2.1l3.8-6.7 c0.6-1,0.9-1.9,0.9-2.6c0-0.7-0.3-1.3-0.9-1.9C349.9,536.8,349.4,536.4,348.9,536.1z"></path> <path id="XMLID_91_" class="st0" d="M570.8,485c5,1.5,10.3,3.1,15.8,4.8c-2.2-10.5-4.3-20.7-6.4-30.7 C577.1,467.6,574,476.2,570.8,485z"></path> <path id="XMLID_93_" class="st0" d="M602.5,404.8c-0.4,0.3-0.8,0.5-1.2,0.8c-6.9,4.6-13.9,9.1-20.8,13.7c-0.8,0.5-1.3,0.5-2.1,0 c-6-3.8-12.1-7.6-18.1-11.3c-0.5-0.3-1-0.6-1.7-1c0.4,12.5-0.8,24.7-3.4,36.7c0.3,0.1,0.5,0.2,0.6,0.2c8.2,2.5,16.4,5,24.6,7.5 c0.8,0.3,1.3,0.6,1.4,1.5c1.8,8.7,3.6,17.4,5.4,26.1c0.4,2.1,0.9,4.2,1.4,6.6c0.2-0.5,0.3-0.6,0.4-0.8c7.5-18.4,12-37.5,13.4-57.3 c0.2-2.2,0.4-4.5,0.5-6.7v-14.4C602.7,405.9,602.6,405.4,602.5,404.8z"></path> <path id="XMLID_96_" class="st0" d="M577.4,454.2c-15.3-4.4-30.5-8.9-45.8-13.4c-0.7-0.2-1.5-0.4-2.3-0.6 c-6.6,25.6-19.8,46.9-40.2,63.6c-20.4,16.7-43.9,25.6-70.2,26.7c-22.9,1-44.4-4.1-64.2-15.6c-29.3-17-47.8-42.1-56.5-74.7 c-0.3,0.1-0.6,0.1-0.9,0.2c-15.7,4.6-31.4,9.3-47.1,13.8c-1.2,0.3-1.3,0.8-1,1.9c4,15.4,10,30,18,43.7 c28,47.9,78.2,79.5,133.9,83.6c1.9,0.1,3.8,0.3,5.7,0.5h14.1c0.5-0.1,0.9-0.2,1.4-0.2c14-0.6,27.7-3.1,41.1-7.1 c56.4-16.9,101-63.5,115.2-120.4C578.6,455,578.6,454.6,577.4,454.2z M300.6,521.9c-0.5-0.1-1-0.2-1.6-0.5c-0.6-0.2-1-0.5-1.4-0.9 l-7.9-9.3c-0.1-0.2-0.1-0.3,0-0.5l2.8-2.4c0.2-0.1,0.3-0.1,0.5,0l7,8.2c0.2,0.3,0.5,0.4,0.9,0.3c0.4,0,0.7-0.1,1-0.2 c0.3-0.1,0.5-0.2,0.7-0.3c0.2-0.1,0.4-0.3,0.6-0.4c0.3-0.2,0.5-0.5,0.8-0.8c0.3-0.3,0.4-0.6,0.5-1c0-0.3,0-0.7-0.2-1.1 c-0.2-0.4-0.5-0.8-0.8-1.2l-2.5-2.9c-0.4-0.5-0.9-1.1-1.2-1.9c-0.4-0.7-0.6-1.5-0.6-2.3c0-0.5,0.1-1,0.2-1.5 c0.2-0.5,0.4-0.9,0.7-1.4c0.3-0.5,0.6-0.9,0.9-1.3c0.3-0.4,0.7-0.8,1.1-1.1c0.2-0.1,0.3-0.3,0.5-0.4c0.2-0.1,0.3-0.2,0.5-0.3 c1.6-1.1,3.2-1.6,4.9-1.3c0.5,0.1,1,0.2,1.6,0.5s1,0.6,1.4,1l7.2,8.4c0.1,0.2,0.1,0.3,0,0.5l-2.8,2.4c-0.2,0.1-0.3,0.1-0.5,0 l-6.3-7.4c-0.2-0.2-0.5-0.4-0.9-0.4c-0.4,0-0.7,0-1,0.1c-0.2,0.1-0.5,0.2-0.6,0.3c-0.2,0.1-0.4,0.3-0.5,0.4 c-0.3,0.2-0.5,0.5-0.8,0.8c-0.3,0.3-0.4,0.6-0.5,1c0,0.3,0.1,0.7,0.3,1.1c0.2,0.4,0.5,0.7,0.9,1.1l2.4,2.9 c0.4,0.5,0.8,1.1,1.2,1.8c0.3,0.7,0.5,1.5,0.5,2.3c0,0.5-0.1,1-0.2,1.5c-0.2,0.5-0.4,1-0.7,1.4c-0.3,0.5-0.6,0.9-1,1.3 c-0.4,0.4-0.8,0.8-1.2,1.1c-0.2,0.2-0.4,0.3-0.5,0.5c-0.2,0.1-0.3,0.2-0.5,0.3C303.9,521.7,302.3,522.2,300.6,521.9z M323.4,544.1 l-3.2-2.7c-0.2-0.1-0.2-0.3,0-0.5l11.7-14c0,0,0.1-0.1,0.2-0.2c0.1-0.1,0.1-0.2,0-0.3c-0.1-0.1-0.2-0.1-0.3-0.1 c-0.1,0-0.2,0.1-0.3,0.1c0,0-0.1,0.1-0.3,0.2c-0.1,0.1-0.3,0.2-0.4,0.3c-0.1,0.1-0.3,0.2-0.4,0.3s-0.2,0.2-0.3,0.3 c-0.5,0.3-0.9,0.7-1.4,1.1c-0.5,0.4-1.1,0.9-2,1.5s-1.9,1.5-3.1,2.5s-2.9,2.3-4.9,3.8c-0.3,0.2-0.6,0.4-0.9,0.6 c-0.3,0.2-0.7,0.2-1.1,0.3c-0.4,0-0.8,0-1.3-0.2c-0.5-0.2-1-0.5-1.5-0.9c-0.5-0.4-0.9-0.8-1.1-1.2c-0.2-0.4-0.4-0.8-0.4-1.1 c-0.1-0.4,0-0.7,0-1c0.1-0.3,0.2-0.6,0.3-0.8l7.6-14.4c0,0,0.1-0.2,0.2-0.4c0.1-0.2,0.1-0.3,0.1-0.4l-0.1-0.1 c-0.1-0.1-0.2,0-0.3,0.1l-11.9,14.3c-0.1,0.2-0.3,0.2-0.5,0l-3.2-2.7c-0.2-0.1-0.2-0.3,0-0.5l12.7-15.3c0.5-0.6,1-1,1.5-1.2 c0.5-0.2,1-0.3,1.6-0.2c0.5,0.1,1.1,0.2,1.6,0.5c0.5,0.3,1,0.6,1.5,1c0.7,0.6,1.3,1.2,1.7,1.6c0.4,0.5,0.6,1,0.7,1.5 c0,0.6-0.1,1.2-0.4,1.9c-0.3,0.7-0.8,1.7-1.5,2.9l-5.7,9.7c0,0.1-0.1,0.2-0.2,0.4c-0.1,0.2-0.2,0.4-0.3,0.5 c-0.1,0.2-0.2,0.4-0.2,0.5c-0.1,0.2-0.1,0.2,0,0.3c0,0,0.1,0,0.3-0.1c0.2-0.1,0.3-0.2,0.5-0.3c0.2-0.1,0.3-0.2,0.5-0.4 s0.2-0.2,0.3-0.2l8.6-7.6c1-0.9,1.8-1.5,2.5-2c0.7-0.4,1.3-0.7,1.8-0.7c0.5,0,1.1,0.1,1.6,0.4c0.6,0.3,1.2,0.8,2,1.4 c1.1,0.9,1.8,1.9,2.1,2.9s0.1,2-0.8,3.1l-12.8,15.3C323.8,544.2,323.6,544.2,323.4,544.1z M349.5,552.3c-0.6,0.7-1.1,1.3-1.6,1.8 c-0.5,0.5-1,0.9-1.5,1.1c-0.7,0.3-1.4,0.5-2.2,0.5c-0.8,0.1-1.6,0-2.3-0.2c-0.5-0.2-1.2-0.5-1.9-0.9c-0.8-0.4-1.7-0.9-2.7-1.5 c-1-0.6-1.9-1.1-2.7-1.6c-0.7-0.4-1.3-0.9-1.7-1.2c-0.6-0.5-1-1.1-1.4-1.9c-0.4-0.7-0.6-1.4-0.7-2.2c-0.1-0.6,0-1.2,0.1-1.9 c0.2-0.7,0.4-1.5,0.7-2.3c0.2-0.6,0.5-1.3,1-2.1c0.5-0.8,1-1.8,1.6-3l0.1-0.2c0.6-1.1,1.2-2.1,1.7-3s0.9-1.5,1.3-1.9 c0.6-0.7,1.1-1.3,1.6-1.8c0.5-0.5,1-0.9,1.5-1.1c0.7-0.3,1.4-0.5,2.2-0.5c0.8-0.1,1.6,0,2.3,0.3c0.5,0.2,1.2,0.5,1.9,0.9 s1.7,0.9,2.7,1.5c1,0.6,1.9,1.1,2.7,1.6c0.7,0.4,1.3,0.8,1.7,1.2c0.6,0.5,1,1.1,1.4,1.9c0.4,0.7,0.6,1.4,0.7,2.1 c0.1,0.6,0,1.2-0.1,1.9c-0.2,0.7-0.4,1.5-0.7,2.3c-0.2,0.6-0.5,1.3-1,2.1c-0.5,0.8-1,1.8-1.6,3l-0.1,0.2c-0.6,1.1-1.2,2.1-1.7,3 C350.3,551.1,349.9,551.8,349.5,552.3z M355.5,561.2l-3.9-1.5c-0.2-0.1-0.3-0.2-0.2-0.4l8.2-21.9c0.1-0.2,0.2-0.3,0.4-0.2l3.9,1.5 c0.2,0.1,0.3,0.2,0.2,0.4l-8.2,21.9C355.8,561.2,355.7,561.2,355.5,561.2z M367.2,565.4c-0.1,0-0.1,0.1-0.2,0l-4.8-1.8 c-0.1,0-0.1-0.1-0.2-0.2c0-0.1,0-0.1,0-0.2l-1.6-10.6c-0.2-1.3-0.2-2.2-0.1-2.7c0-0.1,0.1-0.2,0.1-0.3c0.1-0.1,0.1-0.2,0.3-0.4 c0.1-0.2,0.3-0.3,0.5-0.5c0.2-0.2,0.5-0.5,0.9-0.8l7.9-6.8c0,0,0.1-0.1,0.2-0.1c0.1,0,0.1-0.1,0.2,0l4.8,1.8 c0.1,0,0.1,0.1,0.1,0.2s0,0.2-0.2,0.3l-9.6,7.8c-0.1,0-0.2,0.1-0.3,0.2c-0.2,0.1-0.2,0.2-0.3,0.3c0,0.1,0,0.2,0,0.4 c0,0.2,0,0.3,0.1,0.4l2.2,12.7C367.3,565.3,367.2,565.4,367.2,565.4z M392.9,547.4l-0.8,3.6c0,0.2-0.2,0.3-0.4,0.3l-10.8-2.4 c-0.2,0-0.4,0-0.4,0.3l-1,4.4c0,0.2,0,0.4,0.3,0.4l10,2.2c0.2,0,0.3,0.2,0.3,0.4l-0.8,3.8c0,0.2-0.2,0.3-0.4,0.3l-10-2.2 c-0.2,0-0.4,0-0.4,0.3l-1.1,4.7c0,0.2,0,0.4,0.3,0.4l10.8,2.4c0.2,0,0.3,0.2,0.3,0.4l-0.8,3.6c0,0.2-0.2,0.3-0.4,0.3l-12.6-2.8 c-0.4-0.1-0.8-0.3-1.1-0.6c-0.3-0.3-0.6-0.6-0.9-1c-0.2-0.4-0.4-0.8-0.5-1.3c-0.1-0.4-0.1-0.9,0-1.3l3.4-15c0.3-1.5,1-2.6,2-3.3 c1-0.7,2.3-0.9,3.8-0.6l11.1,2.5C392.9,547,393,547.1,392.9,547.4z M423.6,567.1l-2,2.9c-0.1,0.2-0.3,0.2-0.5,0.1l-1.1-0.8 c-0.2-0.1-0.4-0.1-0.5,0.1l-1.3,1.3c-0.4,0.4-1,0.8-1.9,1.1c-0.9,0.4-2,0.5-3.4,0.5l-4.6-0.1c-1.7,0-3.1-0.5-4.2-1.4 c-1-0.9-1.6-2.2-1.5-3.8l0-3.4c0-0.4,0.1-0.9,0.2-1.3c0.1-0.4,0.3-0.9,0.5-1.3c0.2-0.4,0.5-0.8,0.8-1.2c0.3-0.4,0.7-0.6,1.1-0.9 c0.2-0.1,0.4-0.2,0.4-0.3c0-0.1-0.1-0.3-0.4-0.5c-0.3-0.3-0.6-0.6-0.8-0.9c-0.2-0.3-0.4-0.6-0.6-1c-0.2-0.3-0.3-0.7-0.3-1.1 c-0.1-0.4-0.1-0.9-0.1-1.5c0-3.6,1.9-5.4,5.6-5.4l6.6,0.1c0.2,0,0.3,0.1,0.3,0.3l0,3.6c0,0.2-0.1,0.3-0.3,0.3l-5.4-0.1 c-0.7,0-1.2,0.1-1.6,0.5c-0.4,0.3-0.5,0.7-0.5,1.3c0,0.4,0.2,0.7,0.5,1.1c0.3,0.4,0.9,0.9,1.7,1.5l5.3,3.9 c0.3,0.2,0.5,0.2,0.5-0.1l0-1.3c0-0.2,0.1-0.3,0.3-0.3l3.6,0c0.2,0,0.3,0.1,0.3,0.3l-0.1,4.4c0,0.3,0.1,0.6,0.4,0.8l2.7,1.9 C423.7,566.8,423.8,566.9,423.6,567.1z M453.6,562.5c-0.1,0.9-0.4,1.8-0.8,2.7c-0.4,0.8-1.1,1.6-1.9,2.2c-0.8,0.6-1.8,1.1-3.1,1.3 l-11.2,2.3c-0.2,0-0.4,0-0.4-0.3l-4.7-22.9c0-0.2,0-0.4,0.3-0.4l11.2-2.3c1.2-0.3,2.4-0.2,3.4,0.1c1,0.3,1.9,0.8,2.6,1.4 c0.7,0.6,1.4,1.4,1.8,2.4c0.5,0.9,0.8,1.9,1,2.9l1.6,7.9C453.7,560.7,453.7,561.6,453.6,562.5z M477.1,559.4l-4.3,1.6 c-0.1,0-0.3,0-0.5-0.2c-0.2-0.2-0.4-0.3-0.5-0.4l-4-4.8c-0.7-1.1-1.6-1.5-2.5-1.3l-3.8,1.4c-0.2,0.1-0.3,0.2-0.2,0.4l2.9,7.7 c0.1,0.2,0,0.4-0.2,0.4l-3.9,1.5c-0.2,0.1-0.4,0-0.4-0.2l-8.1-21.9c-0.1-0.2,0-0.4,0.2-0.4l11.7-4.3c0.6-0.2,1.2-0.3,1.9-0.3 c0.7,0,1.4,0.2,2.1,0.6c1.3,0.6,2.4,1.9,3.2,3.9l0.3,0.7c0.7,1.8,1,3.3,0.8,4.3c-0.1,0.5-0.3,1-0.5,1.5c-0.2,0.5-0.5,0.9-0.9,1.4 c0,0,0,0.1,0,0.1c0,0.1,0,0.1,0,0.2c0,0,0,0.1,0.1,0.1c0.7,0.4,1.3,0.9,1.6,1.3c0.4,0.4,0.7,0.8,1.1,1.3l3.7,4.7 c0.1,0.2,0.2,0.3,0.4,0.4c0.2,0.1,0.3,0.2,0.3,0.2C477.3,559.3,477.3,559.4,477.1,559.4z M484.9,555.4l-3.8,1.9 c-0.2,0.1-0.3,0-0.4-0.2l-10.4-20.9c-0.1-0.2,0-0.4,0.2-0.4l3.8-1.9c0.2-0.1,0.4,0,0.4,0.2l10.4,20.9 C485.2,555.2,485.1,555.3,484.9,555.4z M503.9,542.6c-0.1,0.5-0.2,0.9-0.4,1.4c-0.2,0.4-0.5,0.8-0.9,1l-2.6,1.6 c-0.2,0.1-0.5,0.2-0.8,0.3c-0.3,0-0.7,0-1,0c-0.4-0.1-0.7-0.2-1-0.3c-0.3-0.1-0.6-0.3-0.9-0.5l-12.7-11.6 c-0.2-0.1-0.3-0.2-0.4-0.1c-0.1,0.1-0.1,0.2,0,0.4l10.1,15.9c0.1,0.2,0.1,0.3-0.1,0.5l-3.5,2.2c-0.2,0.1-0.3,0.1-0.5-0.1l-10-15.8 c-0.5-0.7-0.8-1.4-1-2c-0.2-0.6-0.2-1.2-0.1-1.7c0.1-0.5,0.4-1,0.8-1.6c0.4-0.5,1.1-1,1.9-1.5c1.2-0.8,2.2-1.1,2.9-1.1 c0.8,0,1.5,0.3,2.1,0.9l12.6,11.6c0.2,0.2,0.3,0.2,0.5,0.1c0.1-0.1,0.1-0.2,0-0.4l-10-15.8c-0.1-0.2-0.1-0.3,0.1-0.5l3.5-2.2 c0.2-0.1,0.3-0.1,0.5,0.1l10.6,16.8c0.2,0.4,0.4,0.8,0.5,1.3C503.9,541.7,504,542.1,503.9,542.6z M512.8,537.2l-3.2,2.7 c-0.2,0.1-0.3,0.1-0.5,0l-15.2-17.7c-0.1-0.2-0.1-0.3,0-0.5l3.2-2.7c0.2-0.1,0.3-0.1,0.5,0l15.2,17.7 C513,536.9,512.9,537.1,512.8,537.2z M522.1,529.2l-3.9,3.3c-0.1,0.1-0.1,0.1-0.2,0.1c-0.1,0-0.1,0-0.2-0.1l-10.1-3.7 c-1.3-0.4-2.1-0.9-2.4-1.2c-0.1-0.1-0.1-0.1-0.2-0.2c0-0.1-0.1-0.2-0.2-0.4c-0.1-0.2-0.1-0.4-0.2-0.7c-0.1-0.3-0.2-0.7-0.3-1.1 l-2.1-10.2c0,0,0-0.1,0-0.2c0-0.1,0-0.1,0.1-0.2l3.9-3.3c0.1,0,0.1-0.1,0.2,0c0.1,0,0.1,0.1,0.2,0.3l2.3,12.2c0,0.1,0,0.2,0.1,0.4 c0,0.2,0.1,0.3,0.1,0.4c0,0,0.1,0.1,0.3,0.2c0.2,0.1,0.3,0.1,0.4,0.1l12.2,4.2c0.2,0.1,0.3,0.1,0.3,0.2 C522.2,529.1,522.1,529.1,522.1,529.2z M534.6,514.7c-0.1,0.6-0.4,1.1-0.7,1.5l-8,9.2c-0.1,0.2-0.3,0.2-0.5,0l-2.8-2.4 c-0.2-0.1-0.2-0.3,0-0.5l7.1-8.1c0.2-0.3,0.3-0.6,0.2-1c-0.1-0.4-0.2-0.7-0.3-1c-0.1-0.2-0.2-0.5-0.4-0.6 c-0.2-0.2-0.3-0.3-0.5-0.5c-0.3-0.2-0.6-0.5-0.9-0.7c-0.3-0.2-0.7-0.3-1.1-0.3c-0.3,0-0.7,0.1-1,0.4c-0.3,0.2-0.7,0.6-1.1,1 l-2.5,2.8c-0.5,0.5-1,1-1.7,1.5c-0.7,0.5-1.4,0.8-2.2,0.9c-0.5,0.1-1,0.1-1.5,0c-0.5-0.1-1-0.2-1.5-0.4c-0.5-0.2-1-0.5-1.4-0.7 c-0.4-0.3-0.9-0.6-1.2-0.9c-0.2-0.1-0.3-0.3-0.5-0.4c-0.2-0.1-0.3-0.3-0.4-0.4c-1.4-1.4-2-2.9-2-4.6c0-0.5,0.1-1,0.2-1.7 c0.2-0.6,0.4-1.1,0.8-1.5l7.3-8.3c0.1-0.2,0.3-0.2,0.5,0l2.8,2.4c0.2,0.1,0.2,0.3,0,0.5L515,508c-0.2,0.2-0.3,0.5-0.2,0.9 c0,0.4,0.1,0.7,0.2,0.9c0.1,0.2,0.2,0.4,0.4,0.6c0.2,0.2,0.3,0.3,0.5,0.5c0.3,0.2,0.6,0.5,0.9,0.7c0.3,0.2,0.7,0.3,1.1,0.3 c0.3,0,0.7-0.2,1-0.5c0.3-0.3,0.6-0.6,1-1l2.5-2.8c0.5-0.5,1-1,1.6-1.5c0.6-0.4,1.4-0.7,2.2-0.9c0.5-0.1,1-0.1,1.5,0 c0.5,0.1,1,0.3,1.5,0.5c0.5,0.2,1,0.5,1.4,0.8c0.5,0.3,0.9,0.6,1.3,1c0.2,0.2,0.4,0.3,0.5,0.5c0.2,0.1,0.3,0.3,0.4,0.4 c1.4,1.5,2.1,3,2.1,4.7C534.8,513.6,534.8,514.1,534.6,514.7z"></path> <path id="XMLID_110_" class="st0" d="M247.2,451.4c4.8-1.4,9.7-2.9,14.5-4.4c3.5-1.1,7-2.2,10.7-3.3c-2.7-12.1-3.8-24.2-3.5-36.7 c-0.6,0.4-1.1,0.6-1.5,0.9c-6.1,3.8-12.3,7.6-18.4,11.5c-0.8,0.5-1.3,0.5-2.1,0c-6.7-4.4-13.4-8.8-20.1-13.2 c-0.6-0.4-1.2-0.8-1.9-1.2c-0.1,0.6-0.2,1.1-0.4,1.6v14.4c0.1,0.6,0.2,1.2,0.2,1.8c0.4,4.5,0.6,9,1.1,13.5 c1.8,15.9,5.7,31.3,11.6,46.2c0.4,1,0.8,2,1.3,3.3c0.2-0.6,0.3-0.8,0.4-1.1c2.2-10.5,4.4-21,6.5-31.5 C245.9,452.1,246.3,451.7,247.2,451.4z"></path> </g> <g id="XMLID_26_"> <path id="XMLID_63_" class="st0" d="M230.8,433.5l9.4-2.7l1.1,3.7l-1.8,0.5l-0.6-2.2l-4.7,1.3l1.2,4.2l3.9-1.1l0.4,1.5l-3.9,1.1 l1.3,4.4l4.7-1.3l-0.6-2.2l1.8-0.5l1.1,3.7l-9.4,2.7l-0.4-1.5l1.2-0.4l-2.9-10.1l-1.2,0.4L230.8,433.5z"></path> <path id="XMLID_65_" class="st0" d="M249,430.9c-0.3-0.2-0.5-0.3-0.8-0.4c-0.3-0.1-0.5-0.1-0.8-0.1c-0.3,0-0.6,0-0.8,0.1 c-0.4,0.1-0.8,0.3-1.1,0.5c-0.3,0.2-0.5,0.4-0.7,0.6c-0.2,0.2-0.3,0.5-0.3,0.7c0,0.3,0,0.5,0,0.8c0.1,0.4,0.3,0.7,0.5,0.9 c0.2,0.2,0.4,0.3,0.7,0.4c0.2,0.1,0.5,0.1,0.8,0.1c0.3,0,0.5,0,0.8,0l1.9,0.1c0.6,0,1.1,0.1,1.6,0.2c0.5,0.1,0.9,0.3,1.2,0.5 c0.4,0.2,0.7,0.5,0.9,0.8c0.3,0.3,0.4,0.8,0.6,1.3c0.2,0.5,0.2,1.1,0.1,1.6c-0.1,0.5-0.3,1-0.6,1.5c-0.3,0.5-0.7,0.9-1.2,1.2 c-0.5,0.4-1.1,0.6-1.7,0.8c-0.7,0.2-1.3,0.3-1.8,0.3c-0.5,0-1-0.1-1.4-0.3c-0.4-0.2-0.7-0.4-1-0.7c-0.3-0.3-0.5-0.6-0.8-0.9 l-0.7,0.2l-0.4-1.5l2.2-0.6c0.2,0.6,0.4,1.1,0.6,1.3c0.2,0.2,0.5,0.4,0.8,0.5c0.3,0.1,0.6,0.2,1,0.2c0.4,0,0.7-0.1,1.1-0.2 c0.4-0.1,0.7-0.3,1-0.4c0.3-0.2,0.5-0.4,0.7-0.6c0.2-0.2,0.3-0.5,0.3-0.8c0-0.3,0-0.6-0.1-0.9c-0.1-0.4-0.3-0.6-0.5-0.8 c-0.2-0.2-0.5-0.4-0.7-0.5c-0.3-0.1-0.6-0.2-0.9-0.2c-0.3,0-0.6-0.1-0.9-0.1l-2,0c-0.5,0-0.9-0.1-1.3-0.2 c-0.4-0.1-0.8-0.3-1.1-0.5c-0.3-0.2-0.6-0.5-0.9-0.8c-0.2-0.3-0.4-0.8-0.6-1.3c-0.1-0.5-0.2-1-0.1-1.5c0.1-0.5,0.2-1,0.5-1.4 c0.3-0.4,0.7-0.8,1.2-1.2s1.1-0.6,1.8-0.8c0.5-0.1,0.9-0.2,1.3-0.2c0.4,0,0.8,0,1.2,0.2c0.4,0.1,0.7,0.3,1.1,0.5 c0.3,0.2,0.6,0.5,0.9,0.7l0.6-0.2l0.4,1.5l-2.1,0.6C249.5,431.4,249.3,431.1,249,430.9z"></path> <path id="XMLID_67_" class="st0" d="M258.4,438.2l1.2-0.3l-2.9-10.2l-3,0.9l0.6,2l-1.8,0.5l-1-3.5l11.7-3.4l1,3.5l-1.8,0.5l-0.6-2 l-3.5,1l2.9,10.2l1.3-0.4l0.4,1.5l-4.2,1.2L258.4,438.2z"></path> <path id="XMLID_71_" class="st0" d="M265.3,436.7c0-0.1-0.1-0.3,0-0.5c0-0.2,0.1-0.3,0.1-0.4c0.1-0.1,0.2-0.2,0.3-0.3 s0.3-0.2,0.4-0.2c0.1,0,0.3-0.1,0.5,0c0.2,0,0.3,0.1,0.4,0.1c0.1,0.1,0.2,0.2,0.3,0.3c0.1,0.1,0.2,0.3,0.2,0.4 c0,0.2,0.1,0.3,0,0.5c0,0.2-0.1,0.3-0.1,0.4s-0.2,0.3-0.3,0.4c-0.1,0.1-0.3,0.2-0.4,0.2c-0.2,0-0.3,0.1-0.5,0s-0.3-0.1-0.4-0.1 c-0.1-0.1-0.3-0.2-0.4-0.3C265.4,437,265.3,436.8,265.3,436.7z"></path> </g> <g id="XMLID_10_"> <g id="XMLID_391_"> <path id="XMLID_401_" class="st0" d="M560.1,435l6.1-4.5c0.2-0.1,0.4-0.3,0.6-0.5c0.2-0.2,0.4-0.4,0.7-0.6 c0.2-0.2,0.4-0.4,0.6-0.7s0.3-0.5,0.3-0.8c0.1-0.3,0.1-0.6,0-0.9s-0.2-0.5-0.3-0.8c-0.2-0.2-0.4-0.5-0.6-0.6 c-0.3-0.2-0.6-0.3-0.9-0.4c-0.3-0.1-0.6-0.1-0.9-0.1c-0.3,0-0.6,0.1-0.8,0.2c-0.3,0.1-0.5,0.3-0.7,0.6c-0.2,0.2-0.3,0.5-0.4,0.9 l-1.6-0.4c0.1-0.6,0.4-1,0.7-1.5c0.3-0.4,0.7-0.8,1.1-1c0.4-0.3,0.9-0.4,1.4-0.5c0.5-0.1,1,0,1.5,0.1c0.6,0.1,1.1,0.4,1.5,0.7 c0.4,0.3,0.8,0.7,1,1.1c0.3,0.4,0.4,0.9,0.5,1.4c0.1,0.5,0,1-0.1,1.5c-0.1,0.2-0.1,0.4-0.2,0.7s-0.3,0.5-0.4,0.7 c-0.2,0.2-0.4,0.5-0.7,0.8s-0.6,0.5-1,0.8l-5.4,3.9l5.7,1.4l-0.4,1.5l-7.8-1.9L560.1,435z"></path> <path id="XMLID_398_" class="st0" d="M574.3,440.1c-0.9-0.2-1.7-0.6-2.2-1.1c-0.5-0.5-0.9-1.1-1.2-1.8c-0.2-0.7-0.3-1.5-0.3-2.4 s0.2-1.8,0.4-2.7c0.3-1,0.6-1.9,1-2.7c0.4-0.8,0.9-1.5,1.4-1.9c0.5-0.4,1.1-0.8,1.7-1c0.7-0.2,1.5-0.2,2.5,0 c0.9,0.2,1.7,0.6,2.2,1c0.5,0.5,1,1,1.2,1.8c0.3,0.7,0.4,1.5,0.3,2.4c-0.1,0.9-0.2,1.8-0.4,2.8c-0.2,0.9-0.5,1.8-0.9,2.6 c-0.4,0.8-0.8,1.4-1.4,2c-0.5,0.5-1.2,0.9-1.9,1.1C576.1,440.4,575.2,440.3,574.3,440.1z M574.7,438.5c0.7,0.2,1.3,0.2,1.8,0 c0.5-0.2,0.9-0.5,1.2-0.9s0.6-0.9,0.9-1.6c0.3-0.6,0.5-1.3,0.7-2c0.2-0.7,0.3-1.4,0.4-2c0.1-0.7,0.1-1.3-0.1-1.8 c-0.1-0.5-0.3-1-0.7-1.4c-0.3-0.4-0.9-0.7-1.5-0.8c-0.7-0.2-1.3-0.2-1.8,0c-0.5,0.2-0.9,0.5-1.2,0.8s-0.6,0.9-0.9,1.6 c-0.3,0.7-0.5,1.4-0.7,2.1c-0.2,0.7-0.3,1.4-0.4,2.1c-0.1,0.7-0.1,1.3,0,1.8c0.1,0.5,0.3,1,0.7,1.4S574,438.4,574.7,438.5z"></path> <path id="XMLID_396_" class="st0" d="M582.7,440.4l1.3,0.3l2.4-9.7l-3,0.8l0.5-1.8l4.2-1.1l0.7,0.2l-3,12.1l1.3,0.3l-0.4,1.5 l-4.3-1.1L582.7,440.4z"></path> <path id="XMLID_392_" class="st0" d="M596.6,431.1c0.5,0.1,1,0.3,1.4,0.6c0.4,0.3,0.7,0.6,1,1c0.3,0.4,0.4,0.8,0.5,1.3 c0.1,0.5,0.1,0.9,0,1.4c-0.1,0.6-0.4,1.1-0.8,1.5c-0.4,0.4-0.8,0.7-1.4,0.9c0.3,0.2,0.5,0.5,0.7,0.8c0.2,0.3,0.3,0.6,0.4,1 s0.2,0.7,0.2,1c0,0.4,0,0.7-0.1,1.1c-0.1,0.6-0.4,1-0.7,1.5c-0.3,0.4-0.8,0.8-1.2,1c-0.5,0.3-1,0.4-1.6,0.5 c-0.6,0.1-1.1,0.1-1.7-0.1c-0.6-0.1-1.1-0.4-1.6-0.7c-0.5-0.3-0.8-0.7-1.1-1.2c-0.3-0.5-0.5-1-0.6-1.5s-0.1-1.1,0-1.6 c0.1-0.4,0.2-0.7,0.4-1c0.2-0.3,0.4-0.6,0.6-0.8c0.3-0.2,0.5-0.5,0.8-0.6c0.3-0.2,0.6-0.3,1-0.4c-0.4-0.4-0.6-0.9-0.8-1.5 c-0.1-0.5-0.1-1.1,0-1.7c0.1-0.5,0.3-0.9,0.6-1.3c0.3-0.4,0.7-0.7,1.1-0.9c0.4-0.2,0.9-0.4,1.4-0.4S596,431,596.6,431.1z M591.5,440.1c-0.1,0.3-0.1,0.7,0,1c0.1,0.3,0.2,0.7,0.4,0.9c0.2,0.3,0.4,0.5,0.7,0.8c0.3,0.2,0.6,0.4,1,0.5 c0.4,0.1,0.7,0.1,1.1,0.1c0.4-0.1,0.7-0.2,1-0.3c0.3-0.2,0.6-0.4,0.8-0.7s0.4-0.6,0.5-0.9c0.1-0.3,0.1-0.7,0-1 c-0.1-0.3-0.2-0.7-0.4-0.9c-0.2-0.3-0.4-0.5-0.7-0.7s-0.6-0.4-1-0.5c-0.4-0.1-0.7-0.1-1.1-0.1s-0.7,0.2-1,0.3 c-0.3,0.2-0.6,0.4-0.8,0.7C591.7,439.4,591.6,439.7,591.5,440.1z M593.5,434.1c-0.1,0.3-0.1,0.6,0,0.9c0,0.3,0.1,0.5,0.3,0.8 c0.2,0.2,0.3,0.4,0.6,0.6c0.2,0.2,0.5,0.3,0.8,0.4c0.3,0.1,0.6,0.1,0.9,0c0.3,0,0.6-0.1,0.8-0.3c0.2-0.1,0.5-0.3,0.6-0.5 c0.2-0.2,0.3-0.5,0.4-0.8c0.1-0.3,0.1-0.6,0-0.9s-0.2-0.5-0.3-0.8c-0.2-0.2-0.3-0.4-0.6-0.6c-0.2-0.2-0.5-0.3-0.8-0.4 c-0.3-0.1-0.6-0.1-0.9-0.1c-0.3,0-0.6,0.1-0.8,0.3c-0.2,0.1-0.5,0.3-0.6,0.5C593.7,433.6,593.5,433.8,593.5,434.1z"></path> </g> </g> <g id="XMLID_4_"> <path id="XMLID_53_" class="st0" d="M454.8,444.3c0.6-2.4,1.5-4.7,2.3-7c0.1-0.3,0.2-0.7,0.1-1c-1.5-2.4-2-5.1-2.2-7.9 c-0.7-10.1-0.5-20.2,1.2-30.2c1.4-8.3,3.1-16.5,4.6-24.8c0.6-3.3,1.1-6.6,0.5-10c-0.5-2.3-1.2-4.5-2.4-6.5 c-1.5,2.9-2.9,5.7-4.4,8.5c-0.1,0-0.2-0.1-0.4-0.1c3-5.9,3.3-12.4,4.3-18.6c-1.8-0.5-3.5-0.9-5.1-1.5c-4.8-1.7-9.6-1.7-14.3,0.4 c-5.2,2.4-8.2,6.7-10.2,11.8c-0.1,0.4-0.3,0.7-0.4,1.1c0.5-4.1,1.8-7.9,4.7-11c3.4-3.7,7.8-5.4,12.7-5.6c3-0.2,6,0.1,8.9,0.2 c-0.1-0.1-0.4-0.4-0.7-0.6c-3.9-3.2-8.3-5.3-13.1-6.7c-2-0.6-4.1-1.3-6.2-1.3c-4.2-0.1-8.3,0.6-12.3,1.9 c-8.9,2.9-14.8,8.6-17,17.8c-0.5,2.1-0.6,4.3-0.9,6.4c0-1.1-0.2-2.3-0.1-3.5c0.1-10.3,4.7-17.7,14.1-22.1c3.3-1.5,6.8-2.5,10.5-3 c1.9-0.3,3.8-0.4,5.9-0.7c-0.5-0.2-0.7-0.3-1-0.3c-4.9-1.6-9.9-2.4-15.1-2.5c-8.2-0.3-16.2,0.7-24,3.1c-3,0.9-5.4,2.6-7.2,5.2 c-4.5,6.4-5.5,13.2-2.4,20.5c0.1,0.1,0.1,0.3,0.2,0.6c-2.2-2.9-3.6-7.4-3.5-11.2c0.2-6.5,3.5-11.5,8-15.8 c-1.4,0.5-2.8,1.1-4.1,1.8c-5,2.5-9.1,5.9-11.2,11.2c-1.8,4.6-2.3,9.4-1.7,14.2c0.2,1.7,0.7,3.4,1.1,5.2c-2.6-4.4-3.3-9.1-3-14.1 c-4.7,8.1-5.8,16.3-1.5,24.9c-0.1,0.1-0.1,0.1-0.2,0.2c-1.2-0.9-2.5-1.7-3.7-2.6c0.2,1.3,0.6,2.5,1.2,3.7c1.9,3.9,3.3,7.9,4,12.2 c0.8,5.2,1.6,10.4,2.2,15.7c1,8.7,1.3,17.3,0.6,26c-0.2,2.6-0.5,5.1-1.9,7.4c-0.4,0.8-0.4,1.3-0.1,2.1c0.9,2.1,1.6,4.3,2.4,6.4 c-0.1,0-0.1,0.1-0.2,0.1c-1.3-1.9-2.6-3.8-4.1-5.9c0,0.5,0,0.6,0,0.8c0.1,2.1,0.2,4.2,0.4,6.2c1.2,11.9,5.1,23,11,33.4 c1.1,1.8,2.4,3.4,4,4.7c3.6,3,7.7,5.2,11.9,7.3c0.1,0,0.2,0,0.1,0c-0.8-2.1-1.6-4.2-2.4-6.2c0.1,0,0.2-0.1,0.2-0.1 c0.2,0.3,0.5,0.7,0.7,1c1.4,1.8,2.7,3.7,4.1,5.5c0.9,1.2,2.1,2.1,3.7,2.5c2.5,0.6,5.1,1.3,7.6,1.9c1.1,0.3,2.3,0.6,3.4,0.4 c3.5-0.6,6.9-1.5,10.4-2.3c1.6-0.4,2.8-1.3,3.7-2.5c1.5-2,2.9-3.9,4.4-5.9c0.2-0.2,0.3-0.4,0.5-0.6c0.1,0,0.1,0.1,0.2,0.1 c-0.8,2.1-1.6,4.2-2.4,6.4c5.2-2.6,10.2-5.2,14.3-9.4c0.4-0.5,0.8-1,1.2-1.5c6.9-11.5,11.1-23.8,12-37.2c0.1-1.3,0.1-2.7,0.2-4 c-0.1,0-0.1,0-0.2,0C457.4,440.6,456.1,442.5,454.8,444.3z M378.5,384.9c0.8-3.5,2-6.9,2.8-10.4c0.9-3.7,0.9-7.5,0.2-11.2 c0-0.1,0-0.3,0-0.3c3.2,1.1,6.3,2.4,9.6,3.3c8.5,2.4,17.2,3.1,26,2.9c8-0.2,15.9-0.9,23.6-3.3c2.4-0.8,4.8-1.9,7.2-2.9 c-1.5,6-0.6,11.8,1.4,17.7c1.5,4.4,2.5,9,3.1,13.6c0,0.2,0,0.3,0,0.6c-2.2-0.5-4.4,0-6.5-1.1c-2.5-1.4-5.2-2.4-8-2.4 c-2.1,0-4.2,0.3-6.3,0.7c-4,0.8-8,1.7-12,2.6c-0.1,0-0.2,0.1-0.5,0.2c0.6,0.4,1.1,0.8,1.7,1.2c-4,2.6-8.3,2.9-12.8,0 c0.5-0.4,1-0.8,1.7-1.3c-2.4-0.6-4.6-1.2-6.9-1.6c-2.9-0.6-5.9-1.2-8.8-1.7c-3.3-0.6-6.6,0.1-9.5,1.6c-2.3,1.2-4.7,1.6-7.1,1.8 c-0.2,0-0.4,0-0.9,0C377.1,391.5,377.7,388.2,378.5,384.9z M418.9,447.6c-0.2-0.3-0.7-0.5-1-0.5c-2.4,0-4.8,0-7.2,0 c-0.3,0-0.7,0.2-0.9,0.4c-3.6,4.2-8.1,4.8-13.1,3.2c-1.2-0.4-2.4-1-3.6-1.5c0-0.1,0-0.2,0.1-0.2c0.4-0.1,0.9-0.3,1.3-0.5 c5.1-2,10.1-4,15.2-6c1.5-0.6,2.5-1.6,3.2-3c0.4-0.8,0.9-1.6,1.4-2.5c0.5,0.9,1,1.8,1.4,2.6c0.7,1.3,1.7,2.3,3.1,2.8 c5.3,2.1,10.6,4.2,15.9,6.3c0.2,0.1,0.4,0.1,0.7,0.3C431.2,451.8,423.7,453.4,418.9,447.6z M448.1,427.3c-1.5,3.3-3.4,6.4-6.2,8.8 c-1.2,1-2.5,1.8-3.8,2.6c2.1,2.8,7,3.3,9.4,0.8c-0.2,1.9-2.4,3.5-4.6,3.1c-1.4-0.2-2.9-0.7-4.1-1.4c-2.5-1.4-4.9-3.1-7.3-4.7 c-3.7-2.6-7.6-4.8-11.9-6c-0.7-0.2-1.2-0.2-1.8,0.4c-1.9,1.8-5.2,1.7-7.1-0.2c-0.4-0.4-0.7-0.5-1.2-0.3c-4.5,1.2-8.5,3.4-12.3,6.1 c-2.4,1.7-5,3.4-7.6,4.9c-1.2,0.7-2.6,1-3.9,1.3c-2.2,0.4-4-0.9-4.7-3.2c2.6,2.8,5.3,1.8,8,0.4c0.6-0.3,1.2-0.7,1.8-1.2 c-7-3.5-10-9.7-12.1-16.5c-2.2-6.9-3.1-13.9-2.6-21.1c0-0.2,0-0.4,0.1-0.7c0-0.1,0-0.2,0.2-0.5c0.5,0.6,1.1,1,1.4,1.6 c0.7,1.5,1.4,3,2,4.6c0.6,1.6,1.1,3.3,1.7,5c0.3,0.8,0.7,1.6,1.1,2.4c0.8,1.5,1.9,2.3,3.6,2.5c5,0.6,10.1,1,15.1,0.6 c1.9-0.1,3.5-1,4.6-2.5c1.5-1.8,2.7-3.8,4-5.8c0.8-1.3,1.6-2.8,2.3-4.2c0.9-1.8,3.8-1.8,4.7,0c0.7,1.4,1.4,2.9,2.3,4.2 c1.2,2,2.5,4,3.9,5.8c1.3,1.7,3.2,2.5,5.4,2.6c4.8,0.2,9.5-0.1,14.3-0.7c1.7-0.2,3-1.1,3.7-2.6c0.8-1.8,1.5-3.7,2.2-5.6 c0.7-1.9,1.4-3.8,2.2-5.6c0.4-0.8,1.1-1.5,1.7-2.3c0.1,0.1,0.2,0.1,0.3,0.2c0,0.1,0.1,0.2,0.1,0.3 C453.1,409.6,451.8,418.7,448.1,427.3z"></path> <path id="XMLID_59_" class="st0" d="M371.3,420.1c0-1.6,0-3-0.8-4.3c-1.3-2.3-2.2-4.8-2.5-7.4c-0.2-1.7-0.3-3.4-0.3-5.1 c0.1-1.9,1.2-2.5,2.9-2c0.1,0,0.2,0.1,0.5,0.1c-0.1-0.7-0.2-1.3-0.1-1.9c0.1-1.5-0.7-2.4-1.8-3.1c-1.7-1.1-3.1-0.7-3.5,1.3 c-0.3,1.4-0.4,2.9-0.3,4.4c0.5,6.2,2.5,11.9,5.4,17.3C370.9,419.5,371,419.7,371.3,420.1z"></path> <path id="XMLID_60_" class="st0" d="M463.1,397.8c-0.5-2.2-1.9-2.6-3.8-1.4c-1.9,1.2-1.7,3.1-1.8,5c0.3-0.1,0.5-0.2,0.7-0.2 c1.5-0.4,2.4,0.1,2.7,1.7c0.1,0.4,0.1,0.9,0.1,1.3c0.1,4.4-1.1,8.4-3.2,12.2c-0.5,0.9-0.7,2.4-0.3,3.5c0.1-0.1,0.2-0.2,0.2-0.3 c2.5-4.4,4.2-9.2,5.1-14.2C463.3,402.9,463.7,400.3,463.1,397.8z"></path> <path id="XMLID_61_" class="st0" d="M371.5,414.8c-0.1-0.7,0-1.4-0.2-2.1c-0.7-1.9-1.6-3.7-2.3-5.3 C369.3,409.8,370.1,412.4,371.5,414.8z"></path> <path id="XMLID_62_" class="st0" d="M457.8,411.6c-0.5,1-0.7,2.1-0.6,3.4c1.3-2.7,2.1-5.3,2.4-8 C459,408.6,458.5,410.1,457.8,411.6z"></path> </g> </g> </svg> 